<svg width="1920" height="1080" viewBox="0 0 1920 1080" fill="none" xmlns="http://www.w3.org/2000/svg">
<path d="M1886.52 -381C1893.16 -370.82 1898.02 -363.738 1902.67 -356.435C2170.18 65.7126 2437.58 487.86 2704.98 909.897C2828.95 1105.64 2953.03 1301.28 3077.22 1496.92C3169.67 1642.65 3233.81 1799.89 3268.75 1968.97C3282.58 2035.59 3290.76 2102.97 3295.29 2171.03C3299.72 2239.19 3298.61 2307.02 3292.75 2374.85C3277.93 2547.58 3233.59 2712.46 3157.61 2868.37C3049.46 3090.35 2895.63 3274.03 2692.81 3415.67C2534.56 3526.21 2360.17 3599.36 2171.06 3638.2C2050.97 3662.76 1929.76 3671.61 1807.78 3664.75C1384.68 3640.74 994.856 3436.47 738.957 3078.06C625.384 2918.94 547.751 2743.66 506.17 2552.67C481.509 2439.14 471.888 2324.39 475.869 2208.43C484.053 1966.32 549.742 1741.02 673.268 1532.88C709.983 1471.03 749.794 1411.05 788.279 1350.19C953.275 1089.71 1118.27 829.119 1283.38 568.638C1479.78 258.805 1676.18 -51.028 1872.7 -360.861C1876.46 -366.726 1880.55 -372.369 1886.52 -381Z" fill="#9B000B" fill-opacity="0.22"/>
</svg>
