<svg width="337" height="471" viewBox="0 0 337 471" fill="none" xmlns="http://www.w3.org/2000/svg">
<path d="M154.714 246.8C146.869 247.556 139.729 250.306 133.832 255.47C130.07 258.764 126.76 262.661 123.69 266.633C120.316 271.005 119.241 276.386 118.247 281.741C116.92 288.904 117.31 295.903 119.741 302.77C120.224 304.126 120.688 305.517 121.402 306.753C124.858 312.74 129.343 317.908 134.627 322.319C136.245 323.668 138.353 324.513 140.343 325.311C145.254 327.281 150.282 328.41 155.634 327.16C157.816 326.649 160.09 326.546 162.315 326.199C165.349 325.723 167.971 324.357 170.097 322.16C174.667 317.436 179.099 312.605 182.804 307.132C183.84 305.599 184.717 304.027 185.309 302.362C184.482 302.291 183.656 302.238 182.843 302.188C181.782 305.184 180.338 308.041 178.386 310.628C175.228 314.823 171.506 318.493 167.294 321.627C166.087 322.525 164.682 323.345 163.241 323.714C158.164 325.017 152.965 325.773 147.735 325.038C142.288 324.271 137.423 322.142 133.225 318.415C125.003 311.111 120.745 302.046 120.614 291.062C120.578 287.914 120.656 284.762 120.759 281.614C120.933 276.109 122.761 271.222 126.462 267.098C129.946 263.211 133.406 259.3 137.008 255.524C137.959 254.526 139.328 253.827 140.627 253.281C143.367 252.134 146.163 251.116 148.98 250.168C150.68 249.597 152.458 249.263 154.196 248.816C155.201 248.56 156.368 248.549 156.815 246.949C156.031 246.888 155.364 246.736 154.714 246.8Z" fill="white"/>
<path d="M111.423 255.513C104.787 262.796 101.487 271.357 101.036 281.241C100.674 289.188 101.75 296.78 103.935 304.414C106.359 312.886 110.901 319.981 116.483 326.54C119.19 329.723 122.668 332.002 126.312 334.025C127.884 334.894 129.349 335.956 130.865 336.928C131.819 337.539 132.706 338.383 134.143 337.89C133.568 335.821 131.698 335.242 130.283 334.344C120.56 328.151 112.693 320.307 108.247 309.5C106.469 305.174 104.705 300.755 103.747 296.205C102.466 290.129 102.459 283.907 103.236 277.66C104.024 271.35 106.625 265.966 110.44 261.054C113.087 257.646 115.684 254.186 118.541 250.96C123.416 245.448 129.708 241.941 136.326 238.949C140.098 237.246 143.838 235.464 147.588 233.704C147.894 233.558 148.146 233.299 148.419 233.093C148.366 232.848 148.312 232.607 148.259 232.362C147.258 232.515 146.219 232.547 145.261 232.834C135.446 235.787 126.638 240.582 119.084 247.528C116.373 250.019 113.907 252.788 111.423 255.513Z" fill="white"/>
<path d="M209.811 284.017C209.087 278.306 208.728 272.535 206.943 266.995C205.194 261.565 202.714 256.503 199.513 251.794C195.244 245.519 190.514 239.648 184.773 234.626C178.96 229.544 172.474 225.533 165.462 222.403C163.361 221.462 160.973 221.164 158.709 220.61C158.511 220.564 158.241 220.813 157.396 221.21C158.422 221.874 159.025 222.36 159.703 222.687C163.425 224.479 167.13 226.318 170.916 227.975C177.452 230.836 182.878 235.191 188.03 240.025C194.197 245.81 198.448 252.876 202.015 260.393C203.161 262.81 203.796 265.483 204.552 268.07C206.99 276.404 208.601 284.886 208.384 293.607C208.246 299.211 207.618 304.733 204.594 309.72C203.473 311.565 202.504 313.51 201.543 315.455C201.993 316.059 202.465 316.648 202.951 317.226C206.78 311.8 209.857 306.05 210.361 299.094C210.726 294.029 210.449 289.025 209.811 284.017Z" fill="white"/>
<path d="M142.414 225.54C143.188 226.048 143.447 226.339 143.745 226.378C144.174 226.442 144.657 226.403 145.075 226.271C149.546 224.905 153.01 226.538 155.831 229.927C157.062 231.4 158.691 232.064 160.419 232.61C161.877 233.075 163.368 233.451 164.812 233.952C172.512 236.631 179.002 240.681 184.186 246.197C184.768 246.097 185.354 245.998 185.961 245.898C185.734 246.488 185.521 246.995 185.304 247.428C186.699 249.022 187.99 250.732 189.176 252.56C189.864 252.351 190.549 252.145 191.23 251.939C187.692 246.807 183.576 242.189 178.392 238.509C174.336 235.627 170.113 233.143 165.241 231.79C161.317 230.704 157.637 228.891 154.532 226.215C150.803 223.01 146.974 223.684 142.414 225.54Z" fill="white"/>
<path d="M170.728 242.189C163.155 237.654 155.136 236.972 146.854 239.854C138.696 242.69 131.053 246.548 125.002 252.869C120.311 257.77 116.55 263.378 113.86 269.657C113.47 270.565 113.009 271.445 112.576 272.34C108.85 279.963 108.807 287.963 110.163 296.109C111.674 305.209 116.028 312.843 122.174 319.583C125.269 322.98 128.342 326.358 132.238 328.917C138.217 332.846 144.643 335.402 151.8 336.058C155.171 336.367 158.457 336.069 161.658 334.951C163.272 334.383 164.891 333.826 166.494 333.222C170.419 331.739 173.982 329.677 176.877 326.586C178.407 324.956 179.986 323.363 181.526 321.737C181.206 321.148 180.901 320.584 180.6 320.034C177.009 324.633 172.52 328.204 167.229 330.82C159.838 334.479 151.967 335.135 144.398 332.328C136.098 329.251 128.707 324.396 122.728 317.592C117.455 311.597 114.073 304.79 112.906 296.904C112.462 293.876 112.157 290.827 111.827 287.786C111.334 283.2 112.2 278.863 113.96 274.608C116.259 269.06 119.545 264.127 123.168 259.417C125.46 256.439 127.674 253.156 130.637 250.984C137.127 246.225 144.295 242.569 152.389 241.224C156.498 240.539 160.561 240.415 164.642 241.827C172.364 244.504 177.977 249.884 183.002 255.95C183.417 256.454 183.822 256.975 184.198 257.522C184.347 256.887 184.506 256.17 184.684 255.364C182.168 251.712 179.02 248.546 175.511 245.678C173.982 244.433 172.413 243.197 170.728 242.189Z" fill="white"/>
<path d="M206.202 335.977C206.142 335.132 205.865 334.206 205.457 333.357C204.928 334.028 204.393 334.692 203.853 335.356C200.227 339.82 196.011 343.441 191.359 346.394C191.192 347.657 190.962 348.91 190.664 350.152C192.115 349.254 193.485 348.211 194.783 347.054C198.758 343.515 202.604 339.856 206.202 335.977Z" fill="white"/>
<path d="M194.832 286.987C194.679 281.17 193.839 275.541 191.266 270.207C190.024 267.634 189.406 264.766 188.331 262.101C187.6 260.298 186.735 258.598 185.748 256.99C185.606 257.551 185.535 258.175 185.528 258.86C185.525 259.183 185.525 259.51 185.528 259.836C186.078 261.032 186.44 262.324 186.507 263.715C186.536 264.351 186.614 265.103 186.287 265.575C186.834 267.481 187.302 269.383 187.661 271.293C190.443 273.266 191.798 276.106 191.968 279.644C192.213 284.794 192.302 289.976 192.1 295.129C192.767 296.215 193.441 297.298 194.041 298.391C194.701 294.707 194.935 290.895 194.832 286.987Z" fill="white"/>
<path d="M188.477 328.815C189.379 327.707 190.213 326.515 190.972 325.234C192.303 322.984 193.392 320.591 194.52 318.217C194.041 317.213 193.605 316.18 193.215 315.122C192.193 317.489 191.132 319.842 190.088 322.206C189.24 324.126 188.14 325.816 186.849 327.324C187.512 327.818 188.041 328.3 188.477 328.815Z" fill="white"/>
<path d="M182.264 200.962C188.134 202.808 193.233 205.86 197.402 210.435C198.261 211.376 199.311 212.142 200.454 213.154C201.071 211.571 200.241 210.897 199.705 210.133C195.596 204.281 189.901 200.728 183.148 198.705C182.211 198.425 181.278 197.907 180.277 198.946C180.345 200.345 181.324 200.664 182.264 200.962Z" fill="white"/>
<path d="M268.952 188.082C267.657 183.326 266.5 178.499 264.733 173.917C262.601 168.391 260.039 163.018 257.392 157.712C251.668 146.223 241.998 138.738 231.172 132.544C228.064 130.766 224.682 129.471 221.577 127.693C215.839 124.417 209.704 122.49 203.157 121.971C194.616 121.293 186.078 121.744 177.541 122.291C164.369 123.132 152.304 127.206 141.379 134.553C136.595 137.769 131.964 141.219 127.373 144.704C125.23 146.326 123.317 148.257 121.362 150.116C121.028 150.432 121.003 151.082 120.833 151.575C121.003 151.703 121.174 151.831 121.344 151.958C122.196 151.38 123.115 150.883 123.888 150.212C125.109 149.151 126.22 147.962 127.394 146.848C133.008 141.517 139.693 137.737 146.353 133.968C149.473 132.204 152.829 130.834 156.154 129.474C158.567 128.488 161.14 127.906 163.578 126.969C167.832 125.332 172.218 124.527 176.764 124.378C183.062 124.168 189.357 123.576 195.645 123.632C204.218 123.71 212.472 125.705 220.069 129.694C226.101 132.86 232.073 136.157 237.669 140.14C243.475 144.271 248.559 149.009 252.392 155.004C254.184 157.8 255.642 160.807 257.324 163.674C260.791 169.573 262.778 176.018 264.378 182.602C265.656 187.851 266.55 193.211 268.065 198.389C268.374 199.447 268.668 200.504 268.952 201.565C270.102 201.285 271.266 201.09 272.448 201.015C271.298 196.699 270.127 192.391 268.952 188.082Z" fill="white"/>
<path d="M256.543 196.327C256.142 194.208 255.681 192.068 254.929 190.055C252.314 183.053 249.34 176.221 245.77 169.626C238.116 155.486 227.687 144.338 212.617 138.046C205.921 135.252 199.069 133.197 191.653 133.822C182.157 134.624 172.956 136.605 164.117 140.189C162.36 140.899 160.615 141.644 158.819 142.23C153.858 143.856 149.529 146.528 145.509 149.811C143.419 151.515 141.233 153.122 138.976 154.599C129.679 160.682 121.046 167.596 112.789 175.017C106.057 181.072 100.543 188.16 95.0322 195.265C90.0537 201.682 85.1782 208.192 82.5133 215.982C81.1187 220.06 79.9016 224.223 78.9613 228.429C78.28 231.499 78.3545 234.697 79.1564 237.799C79.93 240.78 81.2216 241.345 83.8014 239.712C86.6472 237.912 89.0105 235.545 90.8024 232.702C93.8719 227.833 96.7851 222.864 99.8155 217.97C105.34 209.047 112.246 201.154 119.272 193.477C125.205 186.996 132.043 181.292 138.831 175.674C144.792 170.741 151.193 166.336 157.503 161.839C159.838 160.175 162.378 158.737 164.979 157.527C168.428 155.923 171.139 156.988 172.821 160.405C173.492 161.765 173.886 163.273 174.319 164.739C174.759 166.212 175.55 167.298 177.04 167.855C179.145 168.639 181.167 169.867 183.335 170.215C186.823 170.773 189.847 172.143 192.742 174.024C197.27 176.959 202.039 179.567 206.333 182.808C214.037 188.625 221.371 194.886 226.204 203.517C226.736 204.465 227.624 205.217 228.266 205.963C229.565 205.437 229.451 204.692 229.121 204.025C228.603 202.978 228.021 201.956 227.368 200.99C223.678 195.507 219.153 190.723 214.537 186.041C213.284 184.771 211.815 183.674 210.307 182.712C204.239 178.833 198.15 174.989 192.008 171.23C189.396 169.63 186.643 168.313 183.481 168.022C181.579 167.848 179.826 167.163 178.467 165.651C175.859 162.755 173.442 159.759 172.14 156.001C171.771 154.936 171.154 153.96 170.696 153.041C167.605 153.059 165.377 154.5 163.244 155.972C158.056 159.557 152.943 163.252 147.83 166.939C143.011 170.414 137.894 173.569 133.501 177.523C126.212 184.086 119.385 191.159 112.398 198.055C111.249 199.187 110.166 200.426 109.254 201.757C104.315 208.951 99.3791 216.152 94.5603 223.428C91.867 227.489 89.2518 231.577 85.5578 234.842C84.5146 235.762 83.4394 236.457 81.9775 236.486C80.8987 235.35 80.9661 233.984 80.9449 232.645C80.8278 225.416 83.0988 218.765 86.335 212.486C90.146 205.097 95.0961 198.414 100.798 192.376C106.795 186.03 113.041 179.919 119.197 173.729C125.616 167.266 132.28 161.087 139.838 155.933C148.05 150.336 156.47 145.126 165.923 141.854C169.582 140.587 173.389 139.735 177.005 138.358C185.982 134.944 195.162 135.66 204.182 137.431C212.23 139.011 219.292 143.174 225.604 148.441C232.662 154.329 238.233 161.499 243.073 169.257C244.894 172.171 246.171 175.308 247.14 178.638C248.499 183.301 250.149 187.89 251.87 192.437C253.538 196.856 254.893 201.342 255.912 205.927C256.692 205.796 257.466 205.615 258.236 205.395C257.675 202.371 257.115 199.347 256.543 196.327Z" fill="white"/>
<path d="M265.529 202.634C264.762 199.518 263.96 196.409 263.063 193.328C261.327 187.387 259.301 181.53 257.584 175.586C256.367 171.39 254.483 167.543 252.226 163.848C247.73 156.502 242.074 150.092 236.102 143.945C232.553 140.293 228.682 136.956 224.101 134.77C215.858 130.837 207.292 127.824 198.044 127.249C187.761 126.61 177.762 127.853 167.975 131.157C160.864 133.556 154.143 136.814 147.287 139.803C142.309 141.975 138.1 145.002 134.151 148.633C127.98 154.312 121.547 159.664 114.117 163.717C112.087 164.824 110.174 166.301 108.521 167.926C102.045 174.294 95.6788 180.746 90.7464 188.483C87.4606 193.64 83.7028 198.496 80.3424 203.606C75.8501 210.435 73.7387 218.176 72.4045 226.122C71.308 232.667 71.9893 239.24 72.6103 245.788C72.7381 247.13 72.8374 248.493 73.1532 249.792C73.5507 251.421 74.1858 251.815 75.7081 251.169C77.3475 250.473 78.8556 249.465 80.4027 248.564C82.2586 247.485 83.9689 245.98 85.9631 245.352C90.7145 243.851 94.011 240.717 96.8001 236.837C101.736 229.973 106.615 223.067 111.604 216.245C120.014 204.746 129.038 193.814 139.591 184.132C147.138 177.204 155.562 171.884 164.856 167.784C165.722 167.401 166.548 166.936 168.025 166.191C166.889 165.737 166.371 165.328 165.931 165.396C164.874 165.559 163.813 165.864 162.815 166.258C151.233 170.847 141.049 177.41 133.083 187.17C129.783 191.216 126.274 195.088 122.899 199.074C118.829 203.88 114.581 208.554 110.813 213.587C105.966 220.057 101.591 226.882 96.8746 233.452C94.1955 237.182 91.3639 240.827 87.1945 243.105C84.196 244.749 81.2366 246.473 78.2417 248.127C77.4788 248.55 76.6414 248.844 75.3888 249.398C74.9807 247.836 74.5904 246.74 74.42 245.611C74.1113 243.563 73.8771 241.501 73.7103 239.435C73.0752 231.592 73.9445 223.965 77.2304 216.728C78.7562 213.367 80.4027 210.062 81.9286 206.701C83.9121 202.339 86.3002 198.197 89.3164 194.496C93.7484 189.062 98.4998 183.894 102.918 178.453C106.005 174.659 109.365 171.192 113.119 168.076C118.045 163.99 122.835 159.738 127.895 155.834C133.665 151.38 139.346 146.663 145.648 143.096C152.667 139.121 160.339 136.307 167.73 132.988C167.812 132.953 167.897 132.924 167.982 132.9C173.684 131.231 179.337 129.361 185.398 129.421C187.555 129.446 189.709 129.12 191.87 129.02C198.123 128.733 204.254 129.372 210.265 131.253C214.598 132.609 218.622 134.553 222.433 136.995C228.181 140.683 233.816 144.491 238.401 149.669C245.803 158.021 250.92 167.699 254.919 178.006C256.413 181.864 257.541 185.864 258.769 189.818C259.759 192.994 260.827 196.16 261.537 199.401C261.863 200.895 262.147 202.4 262.41 203.908C262.633 203.816 262.857 203.72 263.08 203.624C263.897 203.273 264.713 202.939 265.529 202.634Z" fill="white"/>
<path d="M220.828 202.879C219.238 200.245 217.525 197.757 215.19 195.685C210.009 191.088 204.999 186.272 198.987 182.741C196.514 181.289 193.86 180.146 191.273 178.897C186.71 176.696 181.838 175.387 176.948 174.226C175.082 173.783 172.903 173.545 171.114 174.066C161.392 176.909 151.988 180.54 143.958 186.971C139.711 190.375 136.318 194.595 133.029 198.886C131.57 200.785 129.818 202.254 127.781 203.468C126.755 204.082 125.85 204.902 124.488 205.935C126.337 206.68 127.437 206.187 128.49 205.562C132.092 203.425 135.215 200.785 137.578 197.253C142.415 190.031 149.345 185.197 156.619 180.778C162.992 179.22 169.34 177.555 175.752 176.192C177.232 175.877 179.042 176.313 180.504 176.895C185.173 178.755 190.056 180.057 194.47 182.599C204.999 188.664 214.423 196.107 220.693 206.577C225.31 214.282 229.412 222.282 231.498 231.127C232.126 230.204 232.577 228.887 232.85 227.538C232.283 225.146 231.605 222.779 230.799 220.444C229.621 217.015 227.932 213.853 225.874 210.861C224.089 208.27 222.453 205.573 220.828 202.879Z" fill="white"/>
<path d="M249.929 201.892C249.305 199.277 248.442 196.711 247.587 194.155C247.044 192.537 246.086 191.032 245.717 189.385C244.848 185.502 243.446 181.825 241.81 178.226C235.306 163.905 225.566 152.633 211.294 145.528C206.535 143.16 201.638 141.705 196.305 141.528C188.58 141.269 181.047 142.319 173.613 144.332C164.018 146.926 155.143 151.135 147.159 156.956C140.399 161.882 134.037 167.359 127.593 172.704C123.785 175.863 119.839 178.947 116.511 182.578C110.674 188.941 105.195 195.639 99.6949 202.308C94.8619 208.164 90.6996 214.474 87.8041 221.544C87.4563 222.385 86.5621 223.237 87.6657 224.327C89.0744 224.309 89.4044 223.095 89.9438 222.101C92.009 218.307 93.9642 214.446 96.1749 210.737C101.845 201.225 109.379 193.232 117.125 185.424C125.322 177.162 134.161 169.62 143.131 162.23C145.143 160.573 147.194 158.88 149.462 157.63C157.283 153.336 165.192 149.183 173.762 146.529C176.246 145.755 178.79 144.992 181.362 144.711C188.133 143.977 194.871 142.795 201.727 144.665C211.531 147.338 220.012 151.881 226.729 159.728C233.145 167.22 237.275 176.04 241.984 184.537C242.158 184.849 242.307 185.197 242.367 185.545C243.361 191.092 245.88 196.128 247.623 201.424C248.084 202.829 248.531 204.235 248.939 205.644C249.567 205.825 250.188 205.953 250.809 206.041C250.543 204.654 250.256 203.269 249.929 201.892Z" fill="white"/>
<path d="M187.814 164.377C190.656 165.52 193.548 166.549 196.351 167.781C202.724 170.574 208.54 174.272 213.735 178.922C218.025 182.765 222.333 186.591 226.573 190.488C228.493 192.252 230.288 194.158 232.112 196.029C233.628 197.583 234.444 199.482 234.369 201.647C234.288 204.16 234.16 206.683 233.826 209.171C233.432 212.11 233.56 214.924 234.476 217.732C235.121 216.206 235.966 214.797 236.928 213.459C236.75 212.184 236.608 210.903 236.466 209.626C236.221 207.397 236.285 205.129 236.285 202.879C236.285 198.761 234.774 195.326 231.747 192.561C229.554 190.559 227.315 188.604 225.104 186.623C222.29 184.1 219.451 181.608 216.684 179.035C209.555 172.409 201.819 166.783 192.316 164.033C190.383 163.472 188.427 162.993 186.302 162.428C186.266 163.901 187.114 164.097 187.814 164.377Z" fill="white"/>
<path d="M240.799 193.001C240.079 190.879 238.95 188.899 238.056 186.833C237.194 184.845 235.803 183.341 233.922 182.354C228.426 179.476 223.66 175.699 219.668 170.954C216.78 167.522 213.143 165.08 209.292 162.865C204.86 160.313 199.907 159.227 195.138 157.613C194.176 157.29 193.115 157.258 192.097 157.091C192.182 157.868 192.427 158.354 192.796 158.486C194.236 159.004 195.723 159.384 197.178 159.863C206.592 162.954 214.725 168.04 221.503 175.316C223.458 177.413 225.608 179.358 227.837 181.165C231.282 183.958 234.405 187.039 237.219 190.464C239.696 193.474 240.856 196.87 240.427 200.739C240.125 203.486 240.324 206.162 240.781 208.813C241.498 208.018 242.222 207.223 242.928 206.421C242.602 204.33 242.414 202.212 242.442 200.036C242.474 197.693 241.569 195.284 240.799 193.001Z" fill="white"/>
<path d="M88.2664 250.161C87.4396 249.256 86.8187 249.757 86.2828 250.197C85.5944 250.761 84.9841 251.425 84.3418 252.046C82.3157 254.016 80.0305 255.513 77.2095 256.095C76.5707 256.23 75.9746 256.578 75.2046 256.887C76.074 258.541 77.355 258.583 78.5437 258.282C79.7324 257.98 80.9247 257.465 81.9502 256.795C84.5725 255.077 86.7725 252.922 88.2664 250.161Z" fill="white"/>
<path d="M211.696 155.295C207.803 153.204 203.903 150.982 199.365 150.816C194.787 150.652 190.196 150.752 185.611 150.862C183.369 150.919 181.129 151.263 178.89 151.486C178.447 151.529 177.95 151.511 177.581 151.71C177.244 151.891 176.761 152.477 176.836 152.626C177.045 153.023 177.475 153.407 177.9 153.559C178.287 153.701 178.784 153.527 179.231 153.499C183.812 153.204 188.39 152.874 192.974 152.629C196.441 152.441 199.816 153.055 202.984 154.432C212.31 158.496 220.929 163.593 227.483 171.625C228.902 173.364 230.581 174.808 232.976 175.6C232.27 174.421 231.659 173.165 230.84 172.072C225.631 165.147 219.368 159.412 211.696 155.295Z" fill="white"/>
<path d="M126.968 213.054C134.175 209.768 141.492 206.723 148.724 203.482C152.162 201.942 155.576 200.302 158.865 198.464C163.038 196.132 165.423 195.986 168.868 199.355C174.33 204.696 180.571 208.859 187.051 212.781C194.825 217.484 202.479 222.378 210.211 227.148C211.808 228.131 213.515 228.933 215.307 229.892C216.553 228.508 216.006 227.244 215.637 226.091C212.238 215.411 207.188 205.793 197.849 199.032C194.648 196.714 191.405 194.435 188.027 192.387C184.056 189.981 179.603 189.257 175.018 189.683C173.439 189.829 171.672 190.148 170.401 191C166.122 193.857 161.19 195.067 156.534 196.966C151.949 198.833 147.301 200.554 142.802 202.609C140.115 203.834 137.71 205.651 135.098 207.056C132.728 208.338 130.315 209.597 127.802 210.559C123.814 212.085 120.514 214.492 117.835 217.746C112.753 223.918 107.665 230.09 102.732 236.383C99.9079 239.982 97.1898 243.702 94.8017 247.595C93.3681 249.93 92.7046 252.731 91.6081 255.283C90.7281 257.338 89.9261 259.471 88.7268 261.334C86.1896 265.27 85.0293 269.568 85.1428 274.154C85.3451 282.175 85.0754 290.168 84.4402 298.164C83.9825 303.906 85.9164 309.173 88.1448 314.334C89.259 316.904 90.5826 319.331 92.5201 321.425C93.4852 322.465 94.1807 323.771 94.9081 325.01C98.556 331.21 102.878 336.924 108.896 340.907C114.581 344.665 120.556 348.051 126.653 351.111C128.161 351.867 129.743 352.399 131.372 352.772C131.319 351.696 131.397 350.699 131.571 349.776C128.544 349.159 125.57 348.129 122.678 347.008C118.747 345.485 115.876 342.358 112.626 339.824C110.216 337.943 108.02 335.792 105.671 333.833C99.4111 328.605 94.7449 322.124 90.9587 314.991C88.0313 309.475 86.6474 303.459 86.8177 297.262C87.0448 288.996 87.7013 280.737 88.2761 272.485C88.418 270.43 88.8616 268.39 89.2981 266.37C90.7458 259.694 94.3475 254.083 98.2614 248.663C101.831 243.716 105.614 238.921 109.169 233.966C111.416 230.832 113.296 227.439 115.571 224.33C117.586 221.583 119.801 218.95 122.164 216.494C123.512 215.095 125.201 213.86 126.968 213.054ZM171.523 192.515C172.19 192.26 172.903 192.082 173.613 192.001C176.867 191.617 180.153 191.642 183.151 193.016C186.817 194.691 190.34 196.678 193.892 198.591C197.189 200.37 199.793 202.953 202.146 205.825C206.063 210.613 208.757 216.089 211.145 221.736C211.549 222.69 211.663 223.769 211.911 224.792C211.744 225.004 211.581 225.217 211.414 225.43C210.534 225.182 209.502 225.146 208.799 224.646C203.963 221.228 199.197 217.707 194.403 214.233C189.535 210.701 184.758 206.953 178.989 204.994C174.887 203.599 172.158 200.76 169.89 197.349C168.365 195.049 168.964 193.495 171.523 192.515Z" fill="white"/>
<path d="M152.5 353.261C155.438 353.006 158.376 352.363 161.222 351.575C168.34 349.605 175.508 347.728 182.147 344.37C183.79 343.536 185.472 342.716 187.04 341.748C186.948 341.297 186.828 340.839 186.686 340.374C186.565 339.984 186.455 339.59 186.352 339.192C184.493 340.253 182.566 341.222 180.66 342.191C170.82 347.203 160.25 349.737 149.359 351.085C144.14 351.731 138.984 351.153 133.878 350.216C133.803 351.195 133.746 352.196 133.729 353.201C135.996 353.52 138.32 353.595 140.623 353.588C144.587 353.577 148.561 353.605 152.5 353.261Z" fill="white"/>
<path d="M75.1822 325.762C76.4951 329.73 78.578 333.559 80.92 337.045C85.8133 344.338 91.6434 350.837 99.1732 355.589C100.465 356.405 101.764 357.232 103.126 357.925C108.083 360.437 112.98 363.103 118.072 365.321C122.497 367.248 127.114 368.292 131.819 368.87C131.823 367.955 131.851 367.039 131.883 366.12C131.23 366.027 130.581 365.921 129.931 365.807C123.693 364.714 117.831 362.908 112.334 360.427C112.306 360.902 112.281 361.378 112.253 361.853C111.575 361.112 111.043 360.377 110.652 359.646C102.441 355.674 95.0606 350.166 88.4676 343.227C85.4585 340.058 83.2442 336.338 81.3068 332.463C75.9451 321.741 72.1553 310.529 70.8353 298.547C70.4414 294.966 69.8701 291.406 69.3875 287.835C68.7559 283.122 69.015 278.49 70.6437 273.979C71.0908 272.751 71.4244 271.513 69.1959 270.81C68.8375 271.97 68.4401 272.865 68.2911 273.798C66.6517 283.97 67.0491 294.124 69.2704 304.137C70.8885 311.427 72.8331 318.674 75.1822 325.762Z" fill="white"/>
<path d="M238.67 275.318C239.132 280.656 239.135 286.029 238.514 291.399C238.206 294.075 238.078 296.801 237.428 299.395C236.935 301.354 235.853 303.207 234.813 304.978C234.274 305.894 233.252 306.526 232.45 307.285C232.301 307.175 232.152 307.065 232.006 306.955C232.429 304.684 232.823 302.402 233.28 300.137C234.778 292.751 234.664 285.294 234.455 277.816C234.231 269.728 232.425 261.937 230.52 254.143C229.622 250.47 228.749 246.786 228.05 243.07C226.127 232.813 222.039 223.258 218.593 213.498C216.652 208.004 212.71 203.826 208.785 199.727C203.143 193.835 196.536 189.158 189.482 185.129C188.038 184.306 186.292 183.884 184.631 183.603C181.093 183.007 177.523 182.542 173.95 182.187C171.229 181.914 168.564 182.428 166.034 183.504C161.637 185.374 157.241 187.238 152.862 189.14C150.101 190.34 147.692 192.064 145.676 194.308C145.243 194.794 144.949 195.404 144.59 195.958C144.718 196.118 144.842 196.281 144.97 196.441C146.145 195.88 147.344 195.369 148.487 194.755C152.691 192.501 156.907 190.265 161.066 187.919C169.387 183.223 177.9 183.557 186.622 186.655C195.433 189.786 202.604 195.184 208.658 202.187C210.13 203.89 211.535 205.654 212.969 207.386C214.903 209.718 216.138 212.391 216.968 215.287C220.74 228.447 224.65 241.572 228.281 254.771C231.187 265.334 232.688 276.152 232.17 287.108C231.921 292.379 230.743 297.614 229.852 302.842C229.263 306.299 228.515 309.731 227.702 313.141C226.538 318.018 223.341 321.776 220.499 325.702C220.428 325.798 220.36 325.894 220.286 325.989C220.708 325.968 221.127 325.954 221.549 325.957C222.316 325.961 223.1 326.007 223.888 326.057C225.97 322.983 227.89 319.796 229.686 316.534C231.644 312.978 233.965 309.713 236.179 306.341C240.53 299.722 242.19 292.34 241.417 284.418C240.899 283.626 240.437 282.824 240.214 281.958C239.643 279.758 239.149 277.539 238.67 275.318Z" fill="white"/>
<path d="M122 354.695C118.821 353.531 115.787 352.158 112.895 350.578C112.828 351.771 112.76 352.917 112.696 354.028C116.82 356.044 121.177 357.62 125.716 358.865C127.816 359.444 129.92 360.019 132.039 360.502C132.039 359.71 132.021 358.919 131.979 358.134C130.673 357.822 129.385 357.403 128.118 356.842C126.148 355.969 124.03 355.437 122 354.695Z" fill="white"/>
<path d="M132.767 377.385C132.721 377.286 132.678 377.183 132.628 377.08C132.33 376.441 132.146 375.742 132.032 375.011C130.833 374.883 129.633 374.727 128.434 374.543C124.779 373.978 121.114 373.375 117.782 371.71C115.802 370.72 113.825 369.719 111.856 368.704C111.689 369.616 111.529 370.528 111.37 371.441C111.522 371.515 111.675 371.593 111.827 371.668C118.537 374.979 125.546 376.697 132.767 377.385Z" fill="white"/>
<path d="M260.007 130.76C261.728 132.503 263.179 134.387 264.403 136.513C267.281 141.507 270.209 146.472 273.243 151.37C275.964 155.771 277.983 160.459 279.619 165.35C281.922 172.225 283.501 179.284 285.13 186.329C286.67 186.376 288.43 186.077 290.151 185.542C289.892 184.455 289.647 183.366 289.431 182.273C287.997 175.043 286.113 167.952 283.214 161.155C281.273 156.601 279.357 152.051 278.98 147.015C278.643 142.486 276.614 138.611 274.013 134.987C272.657 133.099 271.092 131.285 270.124 129.205C268.491 125.685 266.107 122.767 263.538 120.013C262.061 120.201 260.589 120.336 259.123 120.418C259.649 121.053 260.181 121.681 260.731 122.292C266.696 128.893 271.525 136.229 275.414 144.215C275.961 145.34 276.592 146.447 275.844 148.325C275.045 147.636 274.414 147.281 274.055 146.745C272.859 144.964 271.642 143.178 270.645 141.283C267.579 135.459 263.463 130.373 259.262 125.393C257.807 123.669 256.253 122.047 254.627 120.492C252.938 120.453 251.253 120.339 249.567 120.144C250.135 120.623 250.699 121.106 251.26 121.596C254.425 124.364 257.04 127.75 260.007 130.76Z" fill="white"/>
<path d="M283.991 151.653C285.517 156.168 286.599 160.842 287.66 165.495C289.129 171.951 290.225 178.499 291.929 184.898C293.291 184.338 294.565 183.642 295.608 182.872C294.973 180.977 294.835 179.074 295.037 177.055C295.963 178.41 296.68 179.862 297.269 181.363C297.411 181.197 297.542 181.03 297.656 180.859C297.798 180.646 298.035 180.405 298.025 180.192C297.372 169.651 307.031 162.354 306.882 151.966C306.846 149.538 307.24 147.078 306.97 144.686C306.584 141.254 307.595 140.204 310.828 141.488C312.506 142.156 314.032 143.217 315.622 144.108C318.457 145.698 322.129 145.208 323.733 142.809C325.625 139.98 323.357 138.376 321.764 136.452C320.412 134.819 319.809 132.527 318.347 131.047C316.026 128.69 313.304 126.717 310.668 124.69C309.98 124.158 308.897 124.161 308.141 123.682C303.525 120.754 298.788 119.065 293.965 118.213C294.934 120.041 295.903 121.865 296.872 123.693C294.466 122.475 294.26 120.09 293.309 118.103C291.822 117.865 290.335 117.702 288.834 117.609C289.43 118.553 289.718 119.583 289.459 120.718C289.21 121.801 288.189 122.128 287.443 121.304C286.794 120.591 286.322 119.696 285.847 118.841C285.598 118.394 285.35 117.95 285.098 117.503C283.583 117.506 282.06 117.567 280.535 117.677C280.921 118.365 281.283 119.061 281.606 119.778C282.763 122.348 284.168 124.711 285.935 126.901C290.286 132.285 293.21 138.457 295.537 144.924C296.102 146.496 296.449 148.154 295.481 149.801C293.557 145.261 291.701 140.693 289.686 136.196C288.82 134.262 287.802 132.342 286.535 130.653C283.49 126.582 280.322 122.585 278.381 117.854C276.951 117.993 275.517 118.167 274.083 118.362C275.684 120.921 277.156 123.568 278.491 126.312C280.02 129.46 281.798 132.502 283.671 135.458C286.34 139.671 288.753 143.962 289.771 148.913C289.931 149.701 290.158 150.507 290.513 151.224C292.518 155.27 292.518 159.777 293.497 164.058C293.586 164.452 293.316 164.924 293.213 165.364C293.014 165.381 292.812 165.399 292.61 165.417C292.312 164.448 291.921 163.497 291.723 162.507C290.449 156.164 289.161 149.822 286.059 144.047C283.693 139.643 281.276 135.263 278.835 130.898C277.401 128.335 276.01 125.733 274.353 123.32C273.313 121.797 272.256 120.289 271.17 118.795C269.726 119.018 268.275 119.263 266.827 119.519C266.816 119.522 266.806 119.522 266.795 119.526C269.644 123.274 272.323 127.146 274.623 131.309C278.246 137.872 281.599 144.558 283.994 151.653H283.991ZM303.94 127.792C305.594 131.533 306.889 135.373 306.921 139.604C305.544 135.795 303.67 132.072 303.94 127.792ZM300.228 133.85C300.711 135.536 301.375 137.3 300.392 139.731C299.022 135.845 298.543 132.399 298.224 128.875C299.987 130.138 299.739 132.143 300.225 133.85H300.228ZM294.672 133.762C292.22 131.015 291.35 127.529 289.487 124.63C289.147 124.101 289.186 123.334 289.033 122.585C290.612 122.45 291.222 123.235 291.691 124.285C292.681 126.497 293.728 128.679 294.7 130.894C295.069 131.739 295.637 132.64 294.672 133.762Z" fill="white"/>
<path d="M252.406 296.372C253.569 293.575 253.882 290.654 254.027 287.701C252.952 284.567 252.044 281.359 250.869 278.271C250.805 280.304 250.706 282.335 250.575 284.358C249.985 293.447 248.013 302.32 245.454 311.044C245.33 311.477 245.192 311.91 245.042 312.343C246.231 311.48 247.438 310.604 248.669 309.706C248.704 309.745 248.74 309.784 248.775 309.823C249.755 306.476 250.777 303.14 251.735 299.786C252.054 298.675 251.969 297.419 252.406 296.372Z" fill="white"/>
<path d="M264.05 148.189C268.485 155.923 271.473 164.207 274.383 172.526C276.157 177.601 277.179 182.939 278.531 188.164C279.492 191.876 280.447 195.589 281.402 199.301C281.543 198.985 281.653 198.637 281.739 198.261C282.384 195.362 282.824 192.416 283.254 189.477C283.268 189.388 283.279 189.296 283.286 189.207C283.236 189.026 283.186 188.849 283.137 188.668C281.959 184.441 280.809 180.196 279.464 176.018C278.453 172.867 277.037 169.839 276.004 166.695C272.974 157.478 268.35 149.048 263.23 140.889C259.33 134.67 253.986 129.627 248.983 124.325C247.383 122.628 245.8 120.907 244.161 119.249C241.982 118.781 239.799 118.17 237.603 117.414C237.188 117.272 236.762 117.141 236.329 117.024C239.32 119.53 242.227 122.145 245.076 124.814C252.457 131.732 258.968 139.327 264.05 148.189Z" fill="white"/>
<path d="M161.438 254.644C155.771 254.768 150.367 255.978 145.357 258.697C143.536 259.683 141.776 260.784 139.949 261.753C135.077 264.329 131.748 268.45 128.892 272.968C126.816 276.255 126.227 280.02 126.227 283.853C126.227 294.941 129.786 304.705 137.249 312.967C139.537 315.505 142.312 317.162 145.736 317.872C150.282 318.813 154.796 319.338 159.373 318.284C160.289 318.071 161.179 317.748 162.393 317.379C161.144 316.254 160.065 316.531 159.054 316.591C155.264 316.804 151.535 316.563 147.791 315.817C142.525 314.767 138.64 311.888 135.62 307.569C131.624 301.851 130.01 295.346 129.133 288.584C128.715 285.379 128.196 282.182 128.807 278.913C129.367 275.91 130.354 273.206 132.788 271.183C135.829 268.652 138.742 265.951 141.879 263.548C147.397 259.321 153.806 257.352 160.651 256.635C162.027 256.489 163.472 256.567 165.015 255.793C163.869 254.622 162.648 254.615 161.438 254.644Z" fill="white"/>
<path d="M177.587 281.671C175.834 274.015 169.731 269.614 162.07 269.77C159.926 269.813 157.776 270.228 155.651 270.601C153.135 271.037 151.219 272.56 149.569 274.398C146.602 277.706 144.342 281.493 142.308 285.426C141.602 286.785 141.457 288.123 142.025 289.582C142.351 290.412 142.461 291.324 142.663 292.201C143.646 296.421 145.775 299.537 150.19 300.907C154.394 302.21 158.553 303.097 162.914 301.912C169.749 300.055 173.286 293.259 170.795 286.625C170.135 284.861 169.333 283.122 168.354 281.514C166.158 277.905 162.808 276.308 158.617 276.418C157.978 276.435 157.982 276.453 157.034 277.497C157.474 278.551 158.429 278.317 159.291 278.49C161.041 278.842 162.889 279.115 164.447 279.91C167.58 281.518 168.964 284.457 169.369 287.839C169.752 291.072 168.975 294.107 167.463 296.96C166.317 299.122 164.44 300.3 162.063 300.552C157.372 301.049 152.893 300.087 148.735 297.958C145.69 296.396 143.671 291.04 144.115 287.662C145.005 280.879 149.075 276.365 154.458 272.904C158.337 270.409 162.616 270.615 166.48 273.025C171.019 275.853 174.056 280.12 176.405 284.858C176.856 285.766 177.147 286.707 177.3 287.658C177.697 287.569 178.098 287.481 178.503 287.395C178.339 285.479 178.024 283.573 177.587 281.671Z" fill="white"/>
<path d="M171.491 252.021C170.292 251.127 169.029 250.325 167.531 249.299C167.003 251.411 168.276 251.972 169.125 252.607C172.339 255.01 174.855 257.995 177.016 261.32C178.485 261.64 179.596 261.881 180.465 261.948C180.26 261.672 180.057 261.395 179.855 261.114C177.435 257.735 174.845 254.527 171.491 252.021Z" fill="white"/>
<path d="M163.99 261.827C157.61 262.392 151.539 264.212 146.223 267.779C140.712 271.481 136.962 276.794 134.503 282.938C134.031 284.113 134.045 285.593 134.208 286.885C134.481 289.021 135.031 291.126 135.507 293.234C136.852 299.197 139.907 304.18 144.963 307.548C151.592 311.963 158.721 313.227 166.158 309.315C169.199 307.715 172.162 306.018 174.387 303.296C175.491 301.951 176.378 300.521 177.045 298.998C176.899 297.284 176.754 295.516 176.605 293.713C174.046 301.713 168.954 307.204 160.247 309.017C157.713 309.543 155.265 309.312 152.795 308.595C145.13 306.366 139.733 301.841 137.835 293.834C137.274 291.477 136.891 289.053 136.699 286.64C136.419 283.101 137.38 279.818 139.694 277.085C141.61 274.824 143.583 272.581 145.758 270.58C151.826 264.986 159.2 263.46 167.123 264.486C171.41 265.043 174.625 267.818 177.403 270.974C181.15 275.229 183.535 279.875 184.521 284.865C185.213 284.155 185.735 283.279 186.115 282.203C185.646 278.516 183.925 275.236 181.491 272.34C180.068 270.647 178.546 269.061 176.924 267.588C173.812 266.463 171.279 264.468 168.937 262.182C167.343 261.721 165.669 261.678 163.99 261.827Z" fill="white"/>
<path d="M160.945 292.006C159.118 292.656 157.099 292.777 155.168 293.142C154.249 293.316 153.337 293.508 152.422 293.692C152.411 294.008 152.401 294.321 152.39 294.636C153.096 294.864 153.856 295.378 154.505 295.265C156.967 294.849 159.508 294.512 161.808 293.607C164.636 292.496 165.122 289.763 163.028 287.488C160.495 284.738 157.205 283.311 153.483 283.116C151.439 283.009 150.484 284.408 150.85 286.569C151.024 286.58 151.244 286.661 151.364 286.583C155.225 284.184 158.447 286.019 161.513 288.22C163.397 289.575 163.181 291.211 160.945 292.006Z" fill="white"/>
<path d="M190.78 303.108C190.06 305.369 189.041 307.544 187.75 309.606C186.284 311.949 184.684 314.203 183.122 316.481C182.672 318.121 182.225 319.782 181.756 321.493C183.172 319.991 184.556 318.465 185.837 316.857C188.949 312.946 191.135 308.74 192.576 304.3C192.214 303.736 191.547 303.349 190.78 303.108Z" fill="white"/>
<path d="M200.688 327.636C197.753 330.745 194.524 333.542 191.071 336.097C191.224 336.888 191.345 337.676 191.43 338.457C195.092 335.515 198.729 332.519 202.189 329.35C201.674 328.786 201.174 328.214 200.688 327.636Z" fill="white"/>
<path d="M170.544 338.518C169.905 338.891 169.323 339.37 168.308 340.09C169.177 340.314 169.511 340.505 169.802 340.456C170.689 340.303 171.601 340.165 172.428 339.831C177.133 337.932 181.487 335.551 185.135 332.3C185.018 331.341 184.911 330.383 184.801 329.428C183.183 330.908 181.363 332.193 179.425 333.354C176.487 335.114 173.496 336.782 170.544 338.518Z" fill="white"/>
<path d="M190.042 253.94C190.918 255.392 191.731 256.915 192.483 258.508C195.294 264.471 197.646 270.586 199.215 277.017C201.014 284.392 200.325 291.626 198.739 298.937C198.196 301.425 197.497 303.849 196.688 306.231C197.135 307.668 197.689 309.024 198.335 310.312C200.038 306.007 200.971 301.482 201.66 296.886C201.99 294.667 202.231 292.389 202.096 290.163C201.748 284.325 201.472 278.455 200.595 272.684C199.68 266.664 197.04 261.177 193.864 255.988C193.324 255.105 192.771 254.231 192.203 253.373C191.66 253.72 191.121 253.972 190.592 253.948C190.4 253.937 190.219 253.933 190.042 253.94Z" fill="white"/>
<path d="M127.685 230.878C124.899 232.518 122.153 234.246 119.509 236.106C110.248 242.615 103.69 251.492 97.9666 261.06C94.9398 266.118 94.0065 271.797 93.0946 277.525C91.991 284.45 92.4062 291.346 92.8533 298.263C93.3678 306.252 96.6288 313.212 101.043 319.718C105.791 326.71 111.617 332.711 118.264 337.875C120.357 339.501 122.916 340.552 125.322 341.741C126.688 342.415 128.196 342.798 129.605 343.391C130.914 343.945 132.241 344.385 133.582 344.722C133.905 344.172 134.235 343.654 134.555 343.16C134.512 343.721 134.455 344.307 134.391 344.917C137.049 345.503 139.771 345.691 142.539 345.549C146.942 345.318 151.339 344.938 155.735 344.551C156.722 344.463 157.683 344.065 159.085 343.696C157.417 342.369 156.044 342.788 154.76 342.83C150.711 342.961 146.666 343.153 142.62 343.309C133.462 343.654 125.495 340.459 118.42 334.898C115.457 332.566 112.717 329.94 109.943 327.37C107.012 324.651 104.652 321.478 102.803 317.929C102.594 317.532 102.384 317.13 102.14 316.754C94.3152 304.847 93.0733 291.637 95.1243 278.047C96.7388 267.318 100.766 257.408 107.679 248.837C110.436 245.419 113.842 242.807 117.504 240.472C122.139 237.522 126.769 234.569 131.393 231.606C131.758 231.372 132.06 231.034 132.784 230.403C130.648 229.725 129.062 230.069 127.685 230.878Z" fill="white"/>
<path d="M92.7933 366.283C87.8148 363.195 82.7618 360.203 78.926 355.664C75.7891 351.959 72.773 348.15 69.7887 344.317C69.111 343.448 68.4722 342.557 67.8726 341.652C68.1422 343.487 68.49 345.3 68.9548 347.089C70.8816 349.709 72.9788 352.193 75.3314 354.489C78.9366 358.014 82.5809 361.506 86.3635 364.839C88.3755 366.613 90.6359 368.147 92.9246 369.559C96.5192 371.77 100.202 373.85 103.907 375.873C104.769 376.345 105.635 376.81 106.508 377.261C106.568 376.622 106.607 376.004 106.618 375.415C105.334 374.716 104.084 373.921 102.874 373.016C99.6454 370.595 96.2282 368.413 92.7933 366.283Z" fill="white"/>
<path d="M96.1333 386.851C96.1936 387.642 96.261 388.43 96.3462 389.218C98.2375 389.967 100.139 390.694 102.052 391.386C102.435 390.794 102.801 390.134 103.152 389.42C103.11 389.406 103.063 389.395 103.021 389.381C100.654 388.696 98.3617 387.851 96.1333 386.851Z" fill="white"/>
<path d="M95.9302 377.537C95.9267 378.502 95.909 379.464 95.9019 380.43C98.1871 381.853 100.54 383.166 102.995 384.188C103.627 384.451 104.262 384.71 104.897 384.962C105.124 384.249 105.33 383.521 105.515 382.793C104.858 382.488 104.212 382.158 103.577 381.789C101.054 380.327 98.4071 379.067 95.9302 377.537Z" fill="white"/>
<path d="M74.2776 361.314C73.9689 362.159 73.6708 362.926 73.4614 363.657C74.7247 364.928 76.0376 366.141 77.4179 367.256C82.1658 371.089 87.1691 374.631 92.2363 378.042C92.7437 378.382 93.2511 378.723 93.7656 379.057C93.9005 378.219 94.0389 377.378 94.1808 376.54C94.234 376.544 94.2802 376.548 94.3334 376.548C90.3059 374.056 86.2571 371.579 82.4674 368.764C79.4689 366.532 76.7757 364.012 74.2776 361.314Z" fill="white"/>
<path d="M77.84 384.494C76.889 383.781 75.9593 383.05 75.0474 382.297C75.3951 384.856 76.0622 387.319 79.0181 388.022C81.1223 388.519 82.4104 389.417 83.1804 390.624C85.8027 391.972 88.4286 393.307 91.0863 394.578C91.2389 393.807 91.388 393.034 91.5299 392.26C91.0118 391.997 90.4973 391.724 89.9863 391.447C85.9021 389.215 81.6475 387.348 77.8364 384.494H77.84Z" fill="white"/>
<path d="M76.8497 372.845C75.7319 371.752 74.6035 370.673 73.4751 369.591C73.6135 370.943 73.7767 372.295 73.9506 373.651C76.9419 376.522 80.0539 379.273 83.1446 382.038C85.8592 384.469 89.0279 386.215 92.3599 387.61C92.4948 386.808 92.6296 386.006 92.7609 385.204C91.1819 384.366 89.6347 383.45 88.1195 382.467C83.9324 379.745 80.3875 376.302 76.8497 372.845Z" fill="white"/>
<path d="M88.5924 398.992C88.7379 398.907 88.8763 398.804 89.0111 398.684C87.3966 397.981 85.7998 397.239 84.2243 396.451C84.1781 399.901 85.5691 400.795 88.5924 398.992Z" fill="white"/>
<path d="M110.259 377.119C110.128 377.711 109.982 378.297 109.83 378.883C112.736 380.221 115.731 381.328 118.864 381.977C122.544 382.741 126.273 383.259 130.01 383.734C130.414 383.5 130.815 383.259 131.213 383.014C131.919 382.577 132.44 382.109 132.788 381.598C128.622 381.218 124.46 380.647 120.298 379.883C116.838 379.248 113.463 378.407 110.259 377.119Z" fill="white"/>
<path d="M144.03 361.684C152.486 361.07 160.907 360.065 169.097 357.811C174.441 356.342 179.714 354.603 184.958 352.8C185.686 351.604 186.278 350.362 186.69 349.07C183.266 350.834 179.657 352.3 175.91 353.528C164.352 357.318 152.401 358.851 140.258 358.94C138.168 358.958 136.103 358.862 134.07 358.546C134.187 359.37 134.329 360.193 134.478 361.013C137.611 361.602 140.783 361.921 144.03 361.684Z" fill="white"/>
<path d="M171.172 364.228C172.197 365.041 172.857 365.57 173.297 365.918C174.6 364.537 175.916 363.227 177.201 361.936C177.126 361.96 177.048 361.989 176.974 362.017C175.04 362.731 173.124 363.558 171.172 364.228Z" fill="white"/>
<path d="M108.647 392.274C108.977 392.998 109.332 393.555 109.726 393.939C110.386 394.141 111.046 394.34 111.706 394.531H111.71C112.249 394.425 112.852 394.144 113.527 393.69C114.002 393.371 114.485 393.055 114.964 392.739C112.668 392.114 110.379 391.479 108.09 390.833C108.243 391.305 108.427 391.784 108.647 392.274Z" fill="white"/>
<path d="M108.215 383.862C107.985 384.611 107.814 385.332 107.708 386.031C111.704 387.486 115.777 388.7 119.929 389.594C121.1 388.87 122.278 388.157 123.456 387.447C123.506 387.419 123.552 387.39 123.602 387.362C121.714 386.989 119.83 386.609 117.945 386.215C114.674 385.53 111.366 384.941 108.212 383.862H108.215Z" fill="white"/>
<path d="M109.404 370.354C109.695 369.531 109.986 368.711 110.277 367.888C107.176 366.283 104.088 364.651 101.008 363C97.2079 360.96 93.2834 359.05 90.1891 355.938C86.5661 352.303 82.8261 348.758 79.4905 344.871C74.0117 338.497 70.1368 331.136 68.2065 322.951C65.7509 312.52 63.6786 302.011 63.0648 291.247C62.898 288.287 62.7348 285.33 62.6531 282.377C62.4367 282.636 62.2167 282.892 61.9967 283.147C60.8328 284.496 59.9741 285.99 59.4312 287.552C59.4382 287.687 59.4453 287.818 59.456 287.953C59.7008 291.463 60.0805 294.956 60.5986 298.427C60.5986 298.427 60.5998 298.429 60.6021 298.434C60.6767 298.561 60.7547 298.679 60.8363 298.803C61.9647 300.535 63.3486 302.366 63.6645 304.308C64.729 310.863 65.3535 317.489 66.1697 324.087C66.2264 324.542 66.2797 324.999 66.3293 325.457C67.1916 328.261 68.1426 331.04 68.9729 333.851C69.1752 334.532 69.5478 335.175 69.9026 335.8C72.9401 341.138 76.2508 346.312 80.5089 350.745C82.7977 353.127 85.381 355.316 88.1275 357.144C93.4395 360.686 98.9538 363.92 104.401 367.26C105.022 367.639 105.639 368.03 106.253 368.417C106.313 367.969 106.37 367.526 106.391 367.093C106.785 367.125 107.183 367.153 107.577 367.185C107.626 367.905 107.679 368.622 107.729 369.343C108.286 369.687 108.843 370.028 109.404 370.354Z" fill="white"/>
<path d="M144.657 375.355C144.384 376.235 144.153 377.013 143.969 377.712C151.211 377.499 158.234 376.132 165.217 374.557C165.568 373.577 165.934 372.597 166.31 371.618C165.898 371.735 165.487 371.849 165.075 371.962C158.326 373.833 151.52 375.014 144.657 375.355Z" fill="white"/>
<path d="M220.562 289.72C222.102 280.858 221.457 272.137 219.15 263.531C218.266 260.241 216.968 257.043 215.637 253.895C213.987 249.994 212.113 246.193 210.321 242.353C210.144 241.969 209.864 241.632 209.395 240.908C209.094 241.664 208.746 242.108 208.796 242.502C208.92 243.478 209.101 244.482 209.484 245.38C211.099 249.192 212.887 252.929 214.423 256.77C215.353 259.094 215.988 261.547 216.673 263.964C218.476 270.32 219.505 276.79 219.242 283.424C219.225 283.942 219.161 284.46 219.122 284.957C216.879 285.092 216.79 285.092 216.443 283.3C215.79 279.946 215.325 276.553 214.597 273.213C213.795 269.529 213.001 265.82 211.805 262.257C210.808 259.289 209.321 256.475 207.905 253.664C204.697 247.29 200.496 241.54 196.344 235.769C192.352 230.229 187.647 225.452 181.512 222.257C177.445 220.142 173.428 217.917 169.291 215.954C161.928 212.458 154.433 212.745 147.006 215.755C143.508 217.175 140.062 218.765 136.702 220.486C133.799 221.973 130.95 222.704 127.628 222.087C123.714 221.363 119.616 225.37 119.655 229.54C120.524 229.963 120.95 229.363 121.373 228.777C122.004 227.908 122.586 226.995 123.264 226.161C124.233 224.972 125.471 224.309 127.057 224.589C130.953 225.278 134.321 223.932 137.532 221.931C143.004 218.524 149.111 216.973 155.384 216.096C161.676 215.212 167.499 217.065 173.109 219.698C183.229 224.447 191.408 231.556 197.387 240.926C203.899 251.126 209.339 261.912 212.426 273.706C213.15 276.471 213.295 279.388 213.781 282.224C214.186 284.613 214.445 287.069 215.215 289.344C216.883 294.256 216.556 299.079 215.176 303.931C213.394 310.188 209.977 315.569 206.262 320.822C206.897 321.461 207.543 322.092 208.199 322.717C210.439 319.512 212.223 315.966 214.001 312.46C217.628 305.298 219.2 297.55 220.562 289.72Z" fill="white"/>
<path d="M194.922 355.256C192.648 356.175 190.359 357.059 188.06 357.925C187.691 358.791 187.297 359.653 186.892 360.516C186.906 360.495 186.921 360.48 186.924 360.47H186.928C186.885 360.835 186.832 361.208 186.771 361.581C188.649 360.757 190.519 359.905 192.41 359.132C193.325 358.755 194.191 358.241 195.121 357.914C198.205 356.832 201.107 355.48 203.861 353.904C204.102 352.551 204.329 351.196 204.542 349.84C203.879 350.312 203.204 350.766 202.519 351.199C200.096 352.729 197.573 354.188 194.922 355.256Z" fill="white"/>
<path d="M55.1624 253.099C55.0346 249.139 54.8749 245.185 55.7585 241.288C55.8579 240.862 56.2872 240.514 56.9969 239.531C57.3021 241.181 57.5895 242.172 57.6569 243.176C58.0082 248.486 58.505 253.77 59.8711 258.931C60.7157 262.121 60.7547 265.312 60.2615 268.57C59.9386 270.703 59.6937 272.84 59.5269 274.984C60.5312 275.151 61.5567 275.356 62.6283 275.576C62.7099 272.269 62.9512 268.964 63.4515 265.66C63.6609 264.272 63.4799 262.789 63.2741 261.38C62.3693 255.059 60.7725 248.816 60.9676 242.374C61.1344 236.901 61.3508 231.425 61.805 225.969C62.3267 219.709 64.0583 213.686 67.2377 208.287C69.5265 204.398 71.5101 200.391 73.5682 196.398C76.0379 191.606 78.7595 186.932 81.6338 182.371C84.3484 178.059 87.4568 173.999 90.2956 169.765C95.1995 162.45 100.448 155.437 106.728 149.222C111.079 144.92 115.372 140.551 119.492 136.03C127.246 127.533 136.078 120.548 146.73 116.055C148.682 115.231 150.633 114.412 152.585 113.599C151.84 113.318 151.095 113.038 150.346 112.765C146.301 114.596 142.259 116.431 138.217 118.262C133.665 120.321 129.651 123.21 125.904 126.496C123.129 128.928 120.362 131.384 117.455 133.655C111.459 138.344 106.466 143.98 101.665 149.825C98.3576 153.847 95.2386 158.081 91.5127 161.68C87.4178 165.633 84.4832 170.279 81.6054 175.053C79.2421 178.964 77.1947 183.145 74.324 186.648C71.0275 190.669 68.2632 194.836 66.7374 199.801C66.6593 200.06 66.5813 200.344 66.418 200.543C66.1164 200.895 65.7509 201.193 65.0306 201.881C65.1228 200.926 65.0164 200.412 65.2258 200.117C67.1845 197.32 67.4826 193.764 69.6613 190.992C71.283 188.927 71.9962 186.176 73.4049 183.915C77.7234 176.994 82.0951 170.105 86.6158 163.319C90.2388 157.875 93.8795 152.416 97.946 147.305C101.179 143.242 105.195 139.817 108.627 135.895C116.064 127.394 125.056 120.786 134.474 114.781C137.107 113.105 139.782 111.501 142.49 109.94C141.564 109.62 140.62 109.315 139.669 109.063C138.792 109.578 137.916 110.089 137.039 110.6C126.334 116.825 116.299 123.948 107.08 132.236C101.573 137.187 96.8637 142.844 92.2579 148.597C89.9656 151.465 87.8791 154.5 85.5868 157.367C84.3945 158.862 83.8587 160.927 81.5131 161.584C83.5074 158.134 85.2958 154.542 87.5455 151.27C90.5368 146.915 93.8298 142.759 97.105 138.61C100.103 134.816 103.141 131.039 106.366 127.444C109.003 124.505 111.938 121.836 114.759 119.065C115.72 118.12 116.661 117.134 117.739 116.335C121.281 113.716 125.014 111.334 128.427 108.562C129.123 107.998 129.832 107.459 130.553 106.951C130.013 106.255 129.758 105.322 129.69 104.193C125.486 106.55 121.334 108.992 117.796 112.293C111.235 118.419 104.234 124.101 98.6451 131.242C95.9411 134.695 92.6801 137.701 89.7775 141.002C88.2268 142.762 86.8961 144.714 85.4697 146.578C85.31 146.471 85.1538 146.365 84.9977 146.255C85.5832 145.311 86.1545 144.356 86.7613 143.423C89.3836 139.38 91.5624 134.944 94.7311 131.384C102.736 122.387 110.823 113.407 120.308 105.886C123.42 103.42 126.603 101.063 129.907 98.8803C130.035 97.7339 130.233 96.6017 130.556 95.5192C130.606 95.3559 130.652 95.1962 130.695 95.033C127.604 96.6656 124.581 98.426 121.65 100.307C117.193 103.164 113.073 106.543 108.797 109.68C108.045 110.231 107.254 110.724 105.976 111.583C106.335 110.685 106.363 110.39 106.526 110.238C109.702 107.338 112.722 104.232 116.118 101.617C121.245 97.6665 126.454 93.8191 131.727 90.0641C131.919 88.6728 132.022 87.2851 132.047 85.9045C130.684 86.6533 129.332 87.4235 127.987 88.2114C121.667 91.9168 116.121 96.6443 110.532 101.315C105.774 105.294 101.101 109.372 96.3705 113.389C95.6927 113.964 94.9263 114.433 94.1989 114.951C95.3166 112.179 96.6153 109.773 98.8864 107.984C104.543 103.54 109.954 98.7667 115.756 94.529C121.05 90.6568 126.49 86.9657 132.015 83.4307C131.961 82.2275 131.851 81.0279 131.688 79.8318C126.17 82.9196 120.592 85.9151 114.911 89.0242C114.624 88.0872 115.372 87.711 115.99 87.2035C120.17 83.7821 124.254 80.2435 128.527 76.9499C129.272 76.3749 130.049 75.839 130.847 75.3314C130.539 74.0324 130.177 72.737 129.765 71.4451C126.632 73.5249 123.616 75.7893 120.528 77.9401C118.736 79.1859 117.076 80.6197 115.355 81.972C115.195 81.8265 115.035 81.6845 114.876 81.539C115.291 80.9214 115.624 80.2222 116.135 79.6969C118.449 77.3083 120.709 74.8559 123.172 72.6341C124.946 71.0334 126.791 69.5534 128.711 68.1798C128.239 66.2633 128.37 64.4603 129.655 62.7389C125.908 64.762 122.416 67.1577 119.875 70.8737C119.02 72.1301 117.863 72.5453 115.809 72.595C120.56 67.076 125.571 62.4692 131.365 59.0017C131.511 57.6388 131.209 56.2333 130.585 54.7994C128.825 50.7462 127.348 46.5298 125.184 42.7073C124.063 40.7304 121.682 39.4847 119.929 37.8485C118.637 36.6418 117.565 35.1618 116.153 34.1396C115.369 33.5753 113.431 33.2062 113.133 33.5966C111.306 36.0136 109.088 38.3134 110.997 41.9549C113.258 46.2636 110.997 50.2068 105.937 50.4091C99.408 50.6753 92.9995 50.2103 87.5703 45.4722C82.0738 40.6737 76.3892 36.2478 76.2934 28.0173C76.2082 20.6243 71.9146 16.8551 65.0448 15.4141C61.1167 19.4566 61.2302 20.4965 65.6871 23.8221C67.4542 25.1424 69.1291 26.6402 70.6088 28.2764C71.1446 28.8691 71.2936 30.1894 71.0417 30.995C70.8678 31.5381 69.6116 32.1663 68.9552 32.0598C64.108 31.2577 59.204 30.5833 54.4846 29.2701C50.3223 28.1131 48.3493 24.8904 46.8448 20.6775C45.8122 17.7885 42.5157 15.4886 39.826 13.4692C36.9482 11.3113 33.5487 9.86318 30.458 7.97147C27.5022 6.16138 26.3028 3.45691 26.9344 0H26.1502C23.9537 4.62459 19.3337 8.54644 21.5905 14.9492C24.8054 11.3858 30.1068 12.5606 32.2252 16.7734C33.5949 19.4957 33.7333 21.1318 30.2522 22.7503C27.1722 24.1806 24.745 27.13 22.2115 29.5967C20.4479 31.3109 19.3514 34.2709 17.3288 35.0624C10.2745 37.8201 6.5486 42.8351 5.09728 50.0009C4.60759 52.4215 3.11724 54.8314 3.30531 57.149C3.61048 60.8934 4.76373 64.6094 5.95955 68.2082C6.17601 68.8613 8.74508 69.564 9.45123 69.0884C13.6668 66.2597 16.6475 67.9917 19.6246 71.0973C21.6969 73.2587 24.1241 75.0795 26.2212 77.2232C27.1828 78.2027 28.1303 79.5017 28.3964 80.7972C30.6639 91.8281 42.0792 95.395 50.1058 92.4172C51.6033 91.86 54.1652 91.7535 55.0595 92.6373C56.163 93.7233 56.0069 96.0693 56.4469 97.8546C56.9437 99.8599 56.8692 102.607 58.1643 103.686C61.0315 106.074 64.5977 107.622 68.2313 109.716C67.8374 116.442 65.57 118.298 58.4269 117.78C49.8468 117.159 41.2382 116.914 32.6439 116.53C30.0145 116.417 28.7512 117.606 29.2729 120.328C30.3871 126.117 28.0557 131.004 25.288 135.806C20.5614 144.001 20.0824 144.693 13.649 137.755C13.4716 137.563 13.2552 137.197 13.1061 137.222C11.4526 137.499 9.69962 137.598 8.20217 138.262C7.457 138.592 6.53795 140.292 6.80408 140.846C8.34411 144.097 6.84666 146.482 4.80276 148.587C-0.541207 154.099 -1.37509 159.948 2.04916 166.95C3.57499 170.07 5.21438 172.217 8.36185 173.74C14.7739 176.842 21.3527 179.837 27.1509 183.894C32.3955 187.567 37.7927 189.399 43.9315 188.888C47.0648 188.629 48.0371 190.403 49.1868 192.504C50.301 194.549 50.9965 196.224 48.7432 198.297C46.0925 200.742 46.3622 205.682 48.7326 208.199C51.6742 211.322 50.1306 220.113 45.9967 221.025C39.9147 222.364 38.435 226.569 38.1511 231.57C37.9133 235.772 37.0014 241.025 39.0311 244.017C39.9643 245.391 41.0715 246.643 42.2992 247.84C42.3525 247.126 42.4057 246.416 42.4554 245.707C42.7108 245.703 42.9663 245.696 43.2218 245.689C43.2218 246.651 43.2183 247.612 43.2147 248.571V248.698C44.5773 249.944 46.0641 251.14 47.6006 252.365C47.7425 247.314 49.1832 242.498 50.2016 237.593C50.2797 237.21 50.922 236.944 51.3016 236.621C51.5926 237.096 52.1426 237.579 52.1249 238.04C52.0575 239.829 51.7949 241.611 51.6245 243.396C51.252 247.311 51.0142 251.218 51.0497 255.126C51.6849 255.648 52.3165 256.184 52.9481 256.737C52.4939 257.813 51.9226 259.169 51.2945 260.663C51.4471 262.53 51.6742 264.397 51.9936 266.263C52.4123 268.716 52.3023 271.289 52.1923 273.798C52.1852 273.926 52.1817 274.05 52.1781 274.178C53.1539 274.395 54.3178 274.519 55.6627 274.565C55.6307 273.34 55.6024 272.116 55.574 270.892C55.4356 264.961 55.3611 259.027 55.1624 253.099ZM129.847 53.905C129.914 54.0399 129.981 54.1748 130.049 54.3096C129.58 54.5545 129.112 54.7959 128.644 55.0408C128.573 54.9023 128.502 54.7604 128.434 54.622C128.906 54.3842 129.375 54.1428 129.847 53.905ZM97.7012 102.742C97.8112 102.916 97.9247 103.093 98.0347 103.267C97.0447 104.009 96.0547 104.751 94.7418 105.737C95.2764 103.835 96.2629 102.836 97.7012 102.742ZM96.3883 121.07C96.5195 121.194 96.6508 121.318 96.7857 121.442C95.1463 123.167 93.5034 124.889 91.864 126.614C91.7433 126.5 91.6227 126.386 91.502 126.269C93.1308 124.534 94.7595 122.802 96.3918 121.066L96.3883 121.07ZM84.2525 147.66C84.3803 147.742 84.5116 147.824 84.6393 147.905C84.4051 148.299 84.1745 148.693 83.9403 149.083C83.7771 148.981 83.6174 148.874 83.4541 148.771C83.7203 148.399 83.9864 148.029 84.2525 147.657V147.66ZM74.6788 171.894C74.7569 172.04 74.8314 172.189 74.9095 172.334C74.5298 172.597 74.1501 172.856 73.7704 173.119C73.6888 173.005 73.6072 172.895 73.5291 172.781C73.9124 172.487 74.2991 172.189 74.6824 171.894H74.6788ZM69.6436 179.465C69.7962 179.571 69.9487 179.677 70.1013 179.78C69.7323 180.327 69.3597 180.874 68.9907 181.417C68.8594 181.303 68.7316 181.193 68.6003 181.079C68.9481 180.54 69.2958 180 69.6436 179.461V179.465ZM55.872 227.687C56.3617 219.663 59.7328 212.479 62.5289 205.132C62.6638 204.777 63.3841 204.65 64.2677 204.185C63.9448 205.178 63.7993 205.594 63.6715 206.016C62.3905 210.311 61.0315 214.58 59.8605 218.903C59.0905 221.76 58.6079 224.692 57.9692 227.584C57.7243 228.688 57.5895 229.895 55.9714 230.42C55.9288 229.405 55.8188 228.539 55.872 227.68V227.687ZM46.6141 228.844C46.6283 228.337 46.639 227.829 46.6532 227.318C46.7525 227.318 46.8483 227.318 46.9477 227.318C47.0009 227.812 47.0506 228.308 47.1038 228.802C46.9406 228.816 46.7809 228.83 46.6177 228.841L46.6141 228.844ZM52.3413 232.493C52.1391 232.443 51.9368 232.397 51.7381 232.347C51.4649 226.988 53.1397 217.625 54.8998 214.648C54.0481 220.585 53.1965 226.541 52.3449 232.493H52.3413Z" fill="white"/>
<path d="M200.868 347.689C201.986 348.74 202.862 347.998 203.551 347.405C204.062 346.965 204.576 346.529 205.094 346.092C205.265 344.889 205.421 343.682 205.566 342.479C204.857 343.125 204.133 343.764 203.402 344.392C202.355 345.29 201.138 346.145 200.868 347.689Z" fill="white"/>
<path d="M228.629 122.05C230.882 121.762 231.212 120.531 229.974 118.632C229.353 117.684 228.604 116.904 227.774 116.25C226.901 116.293 226.024 116.368 225.158 116.467C225.336 116.57 225.51 116.68 225.684 116.79C226.958 117.599 228.033 118.483 227.745 120.286C226.83 121.006 225.801 121.024 224.722 120.694C221.975 119.853 219.194 119.108 216.468 118.21C215.102 118.483 213.74 118.717 212.377 118.912C215.833 119.924 219.268 121.006 222.763 121.858C224.63 122.316 226.706 122.298 228.629 122.05Z" fill="white"/>
<path d="M146.904 122.593C139.154 125.964 132.086 130.404 125.787 136.03C117.59 143.348 109.801 151.075 103.198 159.898C97.7119 167.231 92.1799 174.542 86.9991 182.091C81.201 190.538 75.6973 199.191 70.2434 207.873C68.9233 209.97 68.1711 212.469 67.4046 214.864C63.4481 227.262 63.5581 239.861 65.932 252.493C66.5068 255.549 67.6352 258.551 68.8737 261.423C69.924 263.854 71.8153 265.813 74.3631 266.768C75.9564 267.36 76.4141 268.464 76.3964 269.873C76.3467 273.827 76.3822 277.795 76.0451 281.731C75.3531 289.862 75.5909 297.972 77.1132 305.947C78.277 312.041 80.3458 317.933 82.8687 323.651C86.4775 331.831 92.2189 338.319 98.6203 344.364C102.336 347.874 106.402 350.72 110.745 353.034C111.192 352.172 111.806 351.295 112.576 350.401C105.455 346.458 99.22 341.254 93.8796 334.834C90.7747 331.1 87.7159 327.246 85.2817 323.072C83.3123 319.7 82.1626 315.814 80.91 312.07C78.2629 304.169 77.7696 295.999 78.4935 287.765C78.9903 282.093 79.1038 276.439 78.639 270.771C78.4829 268.855 78.5183 266.991 80.6048 265.313C79.15 265.085 78.1493 264.805 77.1486 264.794C73.4902 264.766 71.5208 262.683 70.6195 259.424C70.0482 257.352 69.853 255.176 69.3172 253.089C66.7765 243.237 67.0817 233.278 68.3911 223.336C68.8169 220.085 70.0766 216.916 71.1837 213.789C73.2737 207.883 77.067 202.914 80.2606 197.605C85.0404 189.647 91.0586 182.613 96.4841 175.138C101.236 168.59 105.902 161.978 110.742 155.497C114.07 151.036 117.597 146.724 121.114 142.408C122.129 141.162 123.328 140.023 124.602 139.043C133.633 132.097 143.068 125.833 153.784 121.72C156.478 120.687 159.114 119.516 161.758 118.359C162.265 118.135 162.787 117.922 163.298 117.688C162.184 117.258 161.069 116.829 159.955 116.399C159.111 116.815 158.273 117.244 157.436 117.681C154.008 119.477 150.456 121.045 146.904 122.593Z" fill="white"/>
<path d="M224.814 305.585C226.031 301.209 226.627 296.57 226.854 292.02C227.205 284.851 227.12 277.653 227.017 270.47C226.89 261.586 224.569 253.189 220.726 245.224C218.796 241.221 216.109 237.682 212.838 234.676C211.844 233.768 210.34 232.965 209.045 232.923C205.304 232.792 202.643 230.989 200.191 228.412C195.717 223.713 190.77 219.521 185.483 215.759C178.964 211.12 171.839 207.756 163.979 206.077C162.844 205.835 161.659 205.64 160.509 205.683C152.315 205.992 144.434 207.521 137.337 211.926C135.503 213.065 133.658 214.187 131.844 215.361C131.362 215.674 130.979 216.149 130.51 216.586C131.525 217.715 132.487 217.257 133.345 216.834C135.201 215.922 137.036 214.96 138.838 213.945C146.155 209.814 154.015 207.976 162.393 208.334C166.825 208.526 170.764 210.3 174.66 212.224C183.847 216.763 192.317 222.29 199.258 229.945C199.68 230.41 200.188 230.836 200.489 231.372C201.976 234.016 203.857 235.471 207.217 234.981C208.576 234.783 210.237 235.918 211.596 236.72C212.572 237.295 213.423 238.225 214.076 239.173C219.214 246.584 223.313 254.434 224.143 263.627C224.494 267.485 225.222 271.343 225.179 275.194C225.112 281.291 224.58 287.389 224.164 293.479C224.015 295.719 223.653 297.94 223.37 300.169C222.507 306.923 219.97 313.099 216.216 318.675C214.633 321.024 213.008 323.345 211.333 325.638C211.983 326.195 213.147 326.266 214.271 326.274C214.399 326.107 214.523 325.936 214.644 325.77C219.108 319.601 222.77 312.925 224.814 305.585Z" fill="white"/>
<path d="M186.196 365.989C186.178 366.472 186.196 366.951 186.26 367.423C186.31 367.813 186.412 368.218 186.554 368.619C190.784 367.199 194.964 365.62 199.08 363.902C199.684 363.65 200.276 363.391 200.865 363.118C201.529 362.025 202.089 360.864 202.537 359.633C198.694 361.826 194.641 363.647 190.273 364.907C188.925 365.297 187.559 365.641 186.196 365.989Z" fill="white"/>
<path d="M336.157 422.73C332.892 409.601 331.352 396.345 333.272 382.798C333.68 379.905 332.839 376.846 332.672 373.857C331.852 358.887 331.207 343.902 327.303 329.294C326.778 327.328 327.506 325.024 326.966 323.069C325.806 318.856 324.976 314.245 322.616 310.735C316.232 301.245 315.122 290.633 314.692 279.79C314.589 277.188 315.632 274.558 315.92 271.918C316.108 270.157 316.371 268.166 315.774 266.598C312.361 257.625 310.157 248.436 309.71 238.829C309.589 236.234 308.429 234.79 305.385 235.34C303.979 235.595 302.4 234.886 299.955 234.442C298.948 235.315 296.783 236.681 295.318 238.584C293.724 240.657 292.287 240.994 290.861 240.355C290.737 240.72 290.506 241.072 290.108 241.398C289.874 240.965 289.612 240.238 289.342 239.343C289.083 239.123 288.824 238.878 288.561 238.616C287.476 237.526 286.478 236.348 284.388 235.262C284.388 238.197 284.314 241.136 284.41 244.071C284.498 246.772 285.432 249.65 284.761 252.113C284.158 254.321 282.27 256.77 280.265 257.895C278.093 259.116 276.262 260.752 274.861 262.647C275.272 264.287 275.592 265.948 275.407 267.687C275.113 267.428 274.939 267.141 274.843 266.832C274.552 265.884 274.261 264.933 273.967 263.985C271.646 267.85 270.986 272.549 272.59 276.99C275.744 285.721 274.612 288.656 266.302 293.305C259.847 296.918 257.626 296.677 255.178 290.796C254.954 292.127 254.73 293.458 254.514 294.789C254.273 296.286 254.18 297.816 253.829 299.286C253.148 302.157 252.428 305.028 251.544 307.843C251.161 309.071 250.721 310.281 250.256 311.484C259.56 321.99 267.838 332.712 270.734 346.742C271.337 349.656 272.203 352.555 273.303 355.32C277.575 366.053 282.352 376.651 280.946 388.682C280.918 388.917 281.081 389.172 281.17 389.474C282.132 389.3 283.097 389.122 284.197 388.924C284.381 389.612 284.644 390.109 284.605 390.581C284.555 391.202 284.268 391.802 284.076 392.43C279.577 390.283 277.515 390.468 277.366 393.456C277.079 399.266 277.465 405.136 278.015 410.943C278.203 412.898 279.8 413.64 282.153 412.497C286.085 410.588 286.823 407.33 287.227 403.529C287.458 401.332 288.348 399.206 288.945 397.044C289.676 397.232 290.403 397.424 291.134 397.612C289.928 402.404 289.771 407.883 287.216 411.798C284.644 415.745 285.645 418.18 287.674 421.026C290.456 424.92 291.51 429.108 291.489 433.871C291.478 436.17 292.408 438.69 293.561 440.745C299.161 450.715 304.976 460.564 310.718 470.459H313.071C311.782 466.782 309.778 463.19 309.348 459.418C308.117 448.507 303.124 438.243 304.086 426.967C304.639 420.462 309.149 417.299 313.961 414.261C314.373 414.002 314.958 413.928 315.462 413.928C318.177 413.928 327.048 420.245 328.144 422.843C329.195 425.335 330.33 427.787 331.395 430.183C337.487 428.565 337.526 428.238 336.157 422.73ZM254.56 315.445C254.383 315.317 254.205 315.189 254.031 315.065C254.518 314.277 255.007 313.489 255.493 312.701C255.699 312.84 255.901 312.978 256.107 313.117C255.593 313.894 255.075 314.671 254.56 315.448V315.445ZM259.233 305.145C259.081 305.127 258.932 305.11 258.783 305.092C258.857 304.702 258.932 304.315 259.006 303.924C259.091 303.938 259.177 303.953 259.265 303.967L259.237 305.145H259.233Z" fill="white"/>
<path d="M143.75 382.145C144.229 383.28 145.371 384.083 147.365 385.094C147.365 385.094 147.368 385.094 147.372 385.094C147.372 385.094 147.376 385.098 147.38 385.094H147.383C152.01 385.034 156.634 384.661 161.247 384.2C161.978 383.291 162.595 382.201 163.085 380.945C156.637 381.811 150.193 382.212 143.75 382.145Z" fill="white"/>
<path d="M168.05 367.132C168.337 366.401 168.621 365.662 168.901 364.921C168.546 365.016 168.188 365.102 167.826 365.176C163.788 366.014 159.633 366.433 155.509 366.681C148.82 367.086 142.114 367.231 135.457 366.564C135.595 367.476 135.73 368.388 135.972 369.272C137.565 369.385 139.162 369.46 140.766 369.513C150.002 369.819 159.09 368.906 168.05 367.132Z" fill="white"/>
<path d="M279.825 201.065C279.307 197.648 278.548 194.283 277.345 190.996C275.436 185.793 273.672 180.526 272.097 175.213C270.429 169.577 268.261 164.154 265.422 159.047C262.633 154.021 259.439 149.219 256.466 144.293C253.222 138.909 249.035 134.327 244.341 130.224C242.318 128.46 240.012 127.012 237.772 125.518C237.027 125.017 236.112 124.364 234.998 125.386C235.253 125.784 235.413 126.213 235.718 126.465C237.237 127.732 238.88 128.861 240.331 130.199C251.221 140.229 259.737 151.973 265.12 165.797C268.094 173.431 270.553 181.265 273.182 189.027C273.615 190.297 273.715 191.671 274.023 192.984C274.648 195.642 275.01 198.357 275.404 201.065C275.961 201.126 276.525 201.211 277.093 201.332C278.164 201.559 279.083 201.456 279.825 201.065Z" fill="white"/>
<path d="M244.007 304.406C245.292 300.396 246.424 296.318 247.329 292.208C248.691 286.011 248.329 279.701 247.935 273.436C247.928 273.34 247.925 273.248 247.918 273.152C247.148 272.29 246.3 271.435 245.53 270.49C245.072 270.938 244.682 271.388 244.352 271.836C244.405 272.648 244.479 273.461 244.611 274.26C245.48 279.544 245.597 284.762 244.398 290.057C243.007 296.194 242.23 302.451 239.643 308.296C236.847 314.628 233.532 320.612 229.334 326.049C231.932 325.62 234.072 324.161 235.023 319.977C235.118 319.544 235.679 319.171 236.098 318.866C236.754 318.383 237.411 317.904 238.071 317.421C238.887 316.016 239.682 314.593 240.455 313.159C241.946 310.401 243.049 307.398 244.007 304.406Z" fill="white"/>
</svg>
