<svg width="210" height="95" viewBox="0 0 210 95" fill="none" xmlns="http://www.w3.org/2000/svg">
<path d="M31.2287 49.8161C29.6451 49.9687 28.204 50.5239 27.0136 51.5662C26.2544 52.2311 25.5861 53.0177 24.9666 53.8193C24.2854 54.7019 24.0684 55.788 23.8679 56.869C23.6 58.3147 23.6788 59.7274 24.1694 61.1137C24.2668 61.3873 24.3606 61.6681 24.5046 61.9175C25.2022 63.126 26.1076 64.1691 27.1741 65.0596C27.5007 65.3318 27.9261 65.5023 28.3279 65.6635C29.3192 66.0611 30.3342 66.2889 31.4143 66.0367C31.8547 65.9336 32.3139 65.9128 32.7629 65.8426C33.3753 65.7466 33.9046 65.4708 34.3337 65.0273C35.2562 64.0738 36.1508 63.0988 36.8986 61.9941C37.1077 61.6846 37.2846 61.3673 37.4042 61.0313C37.2373 61.0169 37.0705 61.0062 36.9064 60.9962C36.6923 61.6008 36.4008 62.1775 36.0068 62.6998C35.3694 63.5465 34.618 64.2873 33.7678 64.9199C33.5243 65.1011 33.2407 65.2666 32.9499 65.3411C31.9249 65.604 30.8756 65.7566 29.8199 65.6083C28.7204 65.4536 27.7385 65.0237 26.8911 64.2715C25.2316 62.7972 24.3721 60.9675 24.3456 58.7503C24.3384 58.1148 24.3542 57.4787 24.375 56.8432C24.4101 55.7321 24.7789 54.7456 25.526 53.9132C26.2293 53.1287 26.9277 52.3392 27.6547 51.577C27.8466 51.3757 28.1231 51.2345 28.3852 51.1242C28.9382 50.8928 29.5026 50.6872 30.0713 50.4959C30.4144 50.3806 30.7732 50.3133 31.1242 50.223C31.3269 50.1714 31.5625 50.1693 31.6528 49.8462C31.4945 49.834 31.3598 49.8032 31.2287 49.8161Z" fill="white"/>
<path d="M22.4905 51.5749C21.1511 53.045 20.485 54.7729 20.3941 56.7681C20.321 58.3721 20.538 59.9045 20.9792 61.4454C21.4684 63.1555 22.3852 64.5875 23.5119 65.9114C24.0584 66.554 24.7603 67.014 25.4959 67.4223C25.8132 67.5978 26.109 67.812 26.4148 68.0083C26.6075 68.1315 26.7866 68.3021 27.0767 68.2025C26.9606 67.7848 26.5832 67.668 26.2974 67.4868C24.3349 66.2367 22.7469 64.6534 21.8495 62.472C21.4906 61.5987 21.1347 60.7068 20.9413 59.7884C20.6827 58.5619 20.6813 57.3061 20.8381 56.0452C20.9971 54.7715 21.5222 53.6847 22.2921 52.6932C22.8264 52.0055 23.3507 51.307 23.9273 50.6558C24.9114 49.5432 26.1813 48.8354 27.5171 48.2315C28.2785 47.8876 29.0334 47.528 29.7905 47.1727C29.8521 47.1433 29.903 47.091 29.9581 47.0494C29.9474 47 29.9366 46.9513 29.9259 46.9019C29.7239 46.9327 29.514 46.9391 29.3207 46.9971C27.3395 47.5932 25.5618 48.561 24.0369 49.963C23.4897 50.4659 22.9919 51.0247 22.4905 51.5749Z" fill="white"/>
<path d="M42.35 57.3283C42.2038 56.1757 42.1315 55.0108 41.7712 53.8925C41.4181 52.7964 40.9175 51.7748 40.2714 50.8242C39.4098 49.5576 38.455 48.3727 37.2961 47.359C36.1229 46.3331 34.8136 45.5236 33.3983 44.8917C32.9743 44.7019 32.4922 44.6417 32.0353 44.5299C31.9952 44.5206 31.9407 44.5708 31.7703 44.651C31.9773 44.785 32.099 44.8831 32.2358 44.949C32.9872 45.3108 33.7349 45.6819 34.4992 46.0164C35.8185 46.5939 36.9136 47.4729 37.9536 48.4486C39.1985 49.6163 40.0565 51.0427 40.7764 52.56C41.0077 53.0479 41.1359 53.5873 41.2885 54.1096C41.7805 55.7917 42.1057 57.5039 42.062 59.264C42.0341 60.3952 41.9073 61.5099 41.2971 62.5165C41.0707 62.889 40.8752 63.2816 40.6811 63.6742C40.7721 63.796 40.8673 63.9149 40.9655 64.0317C41.7383 62.9363 42.3593 61.7757 42.461 60.3716C42.5348 59.3493 42.4789 58.3392 42.35 57.3283Z" fill="white"/>
<path d="M28.7462 45.525C28.9024 45.6274 28.9546 45.6862 29.0148 45.6941C29.1015 45.707 29.1989 45.6991 29.2834 45.6726C30.1859 45.3968 30.8849 45.7263 31.4543 46.4105C31.7029 46.7078 32.0316 46.8417 32.3805 46.9521C32.6748 47.0459 32.9757 47.1218 33.2672 47.2229C34.8214 47.7637 36.1314 48.5811 37.1779 49.6944C37.2954 49.6744 37.4135 49.6543 37.536 49.6342C37.4902 49.7532 37.4472 49.8556 37.4035 49.943C37.685 50.2647 37.9457 50.61 38.1849 50.9789C38.3239 50.9367 38.4621 50.8951 38.5996 50.8536C37.8855 49.8176 37.0547 48.8856 36.0083 48.1427C35.1896 47.561 34.3372 47.0595 33.3538 46.7866C32.5617 46.5674 31.8189 46.2013 31.1922 45.6611C30.4394 45.0142 29.6666 45.1503 28.7462 45.525Z" fill="white"/>
<path d="M34.4611 48.8854C32.9327 47.9698 31.3139 47.8323 29.6422 48.414C27.9956 48.9864 26.4528 49.7651 25.2316 51.041C24.2847 52.0304 23.5255 53.1623 22.9825 54.4296C22.9038 54.613 22.8107 54.7906 22.7233 54.9712C21.9712 56.51 21.9626 58.1248 22.2362 59.7689C22.5413 61.6057 23.4202 63.1467 24.6607 64.5071C25.2853 65.1927 25.9056 65.8747 26.692 66.3913C27.8989 67.1843 29.196 67.7001 30.6407 67.8326C31.3211 67.895 31.9844 67.8348 32.6304 67.6091C32.9563 67.4945 33.2829 67.382 33.6067 67.2602C34.3988 66.9608 35.1179 66.5446 35.7024 65.9206C36.0111 65.5918 36.3298 65.2701 36.6407 64.942C36.5762 64.8231 36.5146 64.7092 36.4537 64.5981C35.7289 65.5266 34.8228 66.2473 33.7549 66.7752C32.263 67.5138 30.6743 67.6464 29.1466 67.0797C27.4713 66.4586 25.9793 65.4786 24.7725 64.1052C23.7081 62.8952 23.0255 61.5212 22.7899 59.9294C22.7003 59.3183 22.6388 58.7029 22.5721 58.0889C22.4726 57.1634 22.6473 56.2879 23.0026 55.429C23.4667 54.3092 24.13 53.3134 24.8613 52.3628C25.324 51.7617 25.7709 51.0991 26.369 50.6606C27.679 49.6999 29.1258 48.962 30.7596 48.6905C31.589 48.5523 32.4091 48.5272 33.2328 48.8123C34.7913 49.3525 35.9244 50.4385 36.9386 51.6629C37.0224 51.7646 37.1041 51.8699 37.18 51.9802C37.2101 51.852 37.2423 51.7073 37.2781 51.5447C36.7703 50.8075 36.135 50.1685 35.4266 49.5896C35.1179 49.3382 34.8014 49.0888 34.4611 48.8854Z" fill="white"/>
<path d="M41.6215 67.8163C41.6093 67.6458 41.5535 67.4588 41.4711 67.2876C41.3644 67.423 41.2562 67.557 41.1473 67.6909C40.4153 68.5922 39.5644 69.3229 38.6254 69.9189C38.5918 70.174 38.5452 70.4268 38.485 70.6776C38.778 70.4963 39.0545 70.2857 39.3166 70.0522C40.1188 69.3379 40.8952 68.5993 41.6215 67.8163Z" fill="white"/>
<path d="M39.3266 57.928C39.2958 56.7539 39.126 55.6177 38.6068 54.5409C38.3561 54.0215 38.2315 53.4427 38.0144 52.9047C37.8669 52.5407 37.6921 52.1976 37.493 51.873C37.4644 51.9862 37.45 52.1123 37.4486 52.2506C37.4479 52.3158 37.4479 52.3817 37.4486 52.4476C37.5596 52.689 37.6327 52.9498 37.6463 53.2306C37.652 53.3589 37.6678 53.5107 37.6019 53.606C37.7122 53.9907 37.8067 54.3747 37.8791 54.7601C38.4406 55.1584 38.7142 55.7316 38.7486 56.4458C38.798 57.4853 38.8159 58.5312 38.7751 59.5714C38.9097 59.7907 39.0458 60.0092 39.1669 60.2298C39.3001 59.4862 39.3474 58.7168 39.3266 57.928Z" fill="white"/>
<path d="M38.0438 66.3708C38.2258 66.1473 38.3941 65.9066 38.5474 65.6479C38.816 65.1938 39.0358 64.7109 39.2636 64.2316C39.1669 64.0289 39.0788 63.8204 39 63.6069C38.7938 64.0848 38.5796 64.5597 38.369 65.0369C38.1978 65.4244 37.9758 65.7654 37.7151 66.0699C37.849 66.1695 37.9557 66.2669 38.0438 66.3708Z" fill="white"/>
<path d="M36.7896 40.564C37.9743 40.9365 39.0036 41.5526 39.8452 42.4761C40.0185 42.6659 40.2305 42.8206 40.4611 43.0248C40.5858 42.7053 40.4182 42.5692 40.31 42.4152C39.4806 41.2338 38.331 40.5167 36.968 40.1084C36.7789 40.0518 36.5905 39.9472 36.3885 40.1571C36.4022 40.4393 36.5998 40.5038 36.7896 40.564Z" fill="white"/>
<path d="M54.2876 37.964C54.0262 37.0041 53.7927 36.0298 53.436 35.1049C53.0055 33.9895 52.4884 32.9048 51.9541 31.8338C50.7988 29.5148 48.847 28.004 46.6617 26.7539C46.0343 26.3949 45.3517 26.1335 44.725 25.7745C43.5668 25.1133 42.3284 24.7243 41.007 24.6197C39.283 24.4829 37.5597 24.5739 35.8364 24.6842C33.1777 24.854 30.7424 25.6764 28.5371 27.1593C27.5716 27.8084 26.6369 28.5047 25.7101 29.2082C25.2774 29.5356 24.8914 29.9253 24.4967 30.3007C24.4294 30.3645 24.4244 30.4956 24.39 30.5952C24.4244 30.621 24.4588 30.6468 24.4932 30.6725C24.6651 30.5558 24.8506 30.4555 25.0067 30.3201C25.2531 30.1059 25.4773 29.8659 25.7144 29.6409C26.8475 28.5649 28.1969 27.8019 29.5413 27.0411C30.1709 26.6851 30.8484 26.4086 31.5195 26.1342C32.0066 25.935 32.5259 25.8175 33.0179 25.6284C33.8767 25.2981 34.762 25.1355 35.6795 25.1054C36.9509 25.0632 38.2215 24.9435 39.4907 24.955C41.2211 24.9707 42.8871 25.3734 44.4206 26.1786C45.6382 26.8176 46.8437 27.4831 47.9732 28.2869C49.145 29.1208 50.1714 30.0772 50.9449 31.2872C51.3066 31.8517 51.601 32.4585 51.9405 33.0374C52.6403 34.228 53.0414 35.529 53.3644 36.8579C53.6222 37.9175 53.8027 38.9992 54.1086 40.0444C54.1709 40.2579 54.2303 40.4714 54.2876 40.6856C54.5197 40.629 54.7546 40.5896 54.9931 40.5746C54.7611 39.7034 54.5247 38.8337 54.2876 37.964Z" fill="white"/>
<path d="M51.7828 39.6284C51.7019 39.2007 51.6088 38.7687 51.457 38.3626C50.9291 36.9491 50.3289 35.57 49.6083 34.239C48.0634 31.3848 45.9583 29.1346 42.9164 27.8645C41.5649 27.3007 40.1818 26.8859 38.6848 27.012C36.7681 27.1739 34.9109 27.5736 33.1267 28.2972C32.7722 28.4405 32.4198 28.5909 32.0574 28.7091C31.0561 29.0372 30.1822 29.5767 29.3707 30.2393C28.9489 30.5832 28.5077 30.9077 28.0521 31.2058C26.1756 32.4337 24.4329 33.8292 22.7662 35.3272C21.4075 36.5494 20.2944 37.98 19.1821 39.4142C18.1772 40.7095 17.1931 42.0233 16.6552 43.5958C16.3737 44.419 16.128 45.2593 15.9382 46.1082C15.8007 46.7279 15.8158 47.3734 15.9776 47.9995C16.1338 48.6013 16.3945 48.7152 16.9152 48.3857C17.4896 48.0224 17.9666 47.5446 18.3283 46.9708C18.9479 45.9879 19.5359 44.9849 20.1476 43.997C21.2628 42.196 22.6566 40.6027 24.0748 39.0532C25.2724 37.745 26.6526 36.5938 28.0228 35.4597C29.2261 34.4639 30.5182 33.5749 31.7917 32.6672C32.2629 32.3312 32.7758 32.0411 33.3008 31.7968C33.997 31.473 34.5442 31.6879 34.8837 32.3778C35.0191 32.6522 35.0986 32.9566 35.186 33.2525C35.2748 33.5498 35.4345 33.769 35.7353 33.8815C36.1601 34.0398 36.5683 34.2877 37.0059 34.3579C37.71 34.4704 38.3203 34.7469 38.9047 35.1266C39.8186 35.719 40.7813 36.2456 41.6479 36.8997C43.2029 38.0738 44.6834 39.3376 45.6589 41.0798C45.7664 41.2711 45.9454 41.423 46.0751 41.5734C46.3372 41.4674 46.3143 41.317 46.2477 41.1823C46.1431 40.9709 46.0257 40.7646 45.8939 40.5698C45.149 39.4629 44.2358 38.4972 43.3039 37.5523C43.0511 37.2958 42.7545 37.0745 42.4501 36.8803C41.2254 36.0973 39.9963 35.3214 38.7565 34.5628C38.2293 34.2397 37.6735 33.9739 37.0353 33.9152C36.6514 33.8801 36.2976 33.7418 36.0233 33.4366C35.4968 32.852 35.009 32.2474 34.7462 31.4887C34.6717 31.2738 34.5471 31.0768 34.4547 30.8913C33.8308 30.8948 33.381 31.1857 32.9505 31.483C31.9034 32.2066 30.8713 32.9523 29.8392 33.6967C28.8665 34.398 27.8337 35.0349 26.947 35.833C25.4758 37.1576 24.0977 38.5854 22.6874 39.9773C22.4554 40.2058 22.2369 40.4559 22.0528 40.7245C21.0558 42.1766 20.0595 43.6302 19.0869 45.0988C18.5432 45.9184 18.0153 46.7437 17.2697 47.4028C17.0592 47.5883 16.8421 47.7287 16.547 47.7344C16.3293 47.5052 16.3429 47.2294 16.3386 46.9593C16.315 45.5 16.7734 44.1575 17.4266 42.8902C18.1958 41.3986 19.195 40.0497 20.346 38.8311C21.5565 37.5502 22.8171 36.3165 24.0598 35.0671C25.3555 33.7626 26.7006 32.5153 28.2262 31.4751C29.8836 30.3454 31.5832 29.2937 33.4913 28.6332C34.2298 28.3774 34.9983 28.2055 35.7282 27.9275C37.5403 27.2383 39.3932 27.3831 41.2139 27.7405C42.8383 28.0593 44.2637 28.8997 45.5379 29.9628C46.9625 31.1513 48.087 32.5984 49.064 34.1645C49.4314 34.7526 49.6893 35.3859 49.8848 36.0579C50.1591 36.9992 50.4922 37.9256 50.8396 38.8433C51.1762 39.7352 51.4498 40.6407 51.6554 41.5663C51.8129 41.5398 51.9691 41.5032 52.1245 41.4588C52.0113 40.8484 51.8982 40.2381 51.7828 39.6284Z" fill="white"/>
<path d="M53.5965 40.9013C53.4418 40.2723 53.2799 39.6447 53.0987 39.0229C52.7484 37.8236 52.3394 36.6416 51.9928 35.4416C51.7471 34.5948 51.3668 33.8183 50.9112 33.0725C50.0038 31.5896 48.8621 30.2957 47.6566 29.0549C46.9404 28.3178 46.1589 27.6444 45.2343 27.2031C43.5704 26.4093 41.8414 25.8011 39.9749 25.685C37.8992 25.5561 35.8808 25.8068 33.9054 26.4738C32.47 26.9581 31.1134 27.6157 29.7296 28.2189C28.7248 28.6573 27.8753 29.2684 27.0781 30.0013C25.8325 31.1475 24.534 32.2279 23.0342 33.046C22.6245 33.2695 22.2384 33.5675 21.9046 33.8956C20.5975 35.1808 19.3125 36.4833 18.317 38.045C17.6537 39.0859 16.8952 40.066 16.2169 41.0976C15.3101 42.4759 14.884 44.0384 14.6147 45.6424C14.3933 46.9634 14.5309 48.2902 14.6562 49.6119C14.682 49.8827 14.702 50.1578 14.7658 50.42C14.846 50.7489 14.9742 50.8284 15.2815 50.698C15.6124 50.5576 15.9168 50.3541 16.2291 50.1722C16.6037 49.9544 16.9489 49.6506 17.3515 49.5238C18.3105 49.2208 18.9759 48.5882 19.5389 47.8052C20.5352 46.4197 21.52 45.0256 22.5271 43.6487C24.2246 41.3275 26.046 39.121 28.1761 37.1667C29.6996 35.7683 31.3999 34.6944 33.2758 33.867C33.4506 33.7896 33.6174 33.6958 33.9154 33.5453C33.6862 33.4536 33.5816 33.3712 33.4928 33.3848C33.2794 33.4178 33.0652 33.4794 32.8639 33.5589C30.5261 34.4852 28.4705 35.8098 26.8625 37.7799C26.1964 38.5966 25.488 39.3782 24.8069 40.1827C23.9853 41.1527 23.128 42.0962 22.3673 43.1121C21.3889 44.4181 20.5058 45.7957 19.5539 47.1217C19.0131 47.8747 18.4416 48.6104 17.6 49.0703C16.9948 49.402 16.3974 49.7502 15.7929 50.084C15.6389 50.1693 15.4699 50.2288 15.217 50.3405C15.1347 50.0253 15.0559 49.8039 15.0215 49.5761C14.9592 49.1628 14.9119 48.7465 14.8782 48.3296C14.75 46.7463 14.9255 45.2068 15.5888 43.7461C15.8968 43.0677 16.2291 42.4007 16.5371 41.7223C16.9375 40.8418 17.4195 40.0058 18.0283 39.2586C18.9229 38.1618 19.882 37.1187 20.7737 36.0205C21.3968 35.2546 22.0751 34.5547 22.8329 33.9257C23.827 33.1011 24.794 32.2429 25.8154 31.4549C26.98 30.5558 28.1267 29.6037 29.3987 28.8837C30.8155 28.0814 32.364 27.5133 33.856 26.8434C33.8724 26.8363 33.8896 26.8305 33.9068 26.8255C35.0578 26.4888 36.1988 26.1113 37.4221 26.1234C37.8576 26.1285 38.2924 26.0626 38.7286 26.0425C39.9906 25.9845 41.2283 26.1134 42.4416 26.4931C43.3162 26.7668 44.1284 27.1594 44.8976 27.6522C46.058 28.3966 47.1954 29.1653 48.1207 30.2105C49.6148 31.8962 50.6477 33.8498 51.4549 35.9302C51.7564 36.7089 51.9842 37.5163 52.232 38.3144C52.4318 38.9555 52.6474 39.5946 52.7907 40.2486C52.8566 40.5502 52.9139 40.854 52.9669 41.1585C53.012 41.1398 53.0571 41.1205 53.1023 41.1011C53.267 41.0302 53.4317 40.9629 53.5965 40.9013Z" fill="white"/>
<path d="M44.5739 40.9508C44.253 40.4193 43.907 39.9171 43.4358 39.4987C42.39 38.571 41.3787 37.5988 40.1654 36.886C39.6661 36.593 39.1304 36.3623 38.6082 36.1101C37.6872 35.666 36.7037 35.4016 35.7168 35.1674C35.34 35.0778 34.9002 35.0298 34.5392 35.1351C32.5767 35.709 30.6787 36.4418 29.0578 37.74C28.2004 38.427 27.5157 39.2788 26.8518 40.1449C26.5574 40.5282 26.2036 40.8248 25.7924 41.0698C25.5854 41.1937 25.4028 41.3592 25.1277 41.5677C25.5009 41.7181 25.7229 41.6185 25.9357 41.4924C26.6627 41.0612 27.293 40.5282 27.77 39.8154C28.7462 38.3575 30.1451 37.3818 31.6134 36.4898C32.8998 36.1753 34.1811 35.8394 35.4754 35.5643C35.7741 35.5005 36.1393 35.5886 36.4344 35.7061C37.377 36.0815 38.3626 36.3444 39.2536 36.8573C41.3787 38.0817 43.281 39.584 44.5467 41.6973C45.4785 43.2526 46.3065 44.8674 46.7276 46.6526C46.8544 46.4664 46.9454 46.2006 47.0005 45.9284C46.8859 45.4455 46.7491 44.9677 46.5865 44.4963C46.3487 43.8042 46.0078 43.1659 45.5924 42.562C45.2321 42.039 44.9019 41.4946 44.5739 40.9508Z" fill="white"/>
<path d="M50.4478 40.7514C50.3217 40.2234 50.1477 39.7054 49.9751 39.1896C49.8655 38.863 49.6721 38.5592 49.5976 38.2268C49.4221 37.4431 49.1392 36.7009 48.809 35.9744C47.4962 33.0838 45.53 30.8085 42.6493 29.3743C41.6888 28.8965 40.7004 28.6027 39.6239 28.5669C38.0646 28.5146 36.544 28.7267 35.0435 29.1329C33.1067 29.6565 31.3154 30.5062 29.7038 31.6811C28.3394 32.6754 27.0551 33.7808 25.7544 34.8597C24.9859 35.4973 24.1894 36.1199 23.5176 36.8528C22.3394 38.1372 21.2335 39.4891 20.1233 40.8352C19.1478 42.0173 18.3076 43.291 17.7232 44.7181C17.653 44.8879 17.4725 45.0598 17.6952 45.2797C17.9796 45.2761 18.0462 45.0311 18.155 44.8305C18.5719 44.0647 18.9666 43.2853 19.4128 42.5366C20.5573 40.6167 22.0779 39.0034 23.6415 37.4273C25.296 35.7595 27.0802 34.2372 28.8909 32.7457C29.297 32.4111 29.711 32.0694 30.1687 31.8172C31.7473 30.9504 33.3438 30.1122 35.0735 29.5763C35.5749 29.4201 36.0885 29.2661 36.6077 29.2095C37.9743 29.0612 39.3345 28.8227 40.7183 29.2002C42.6973 29.7397 44.4091 30.6566 45.765 32.2406C47.06 33.7529 47.8937 35.5331 48.8441 37.2482C48.8792 37.3112 48.9093 37.3815 48.9215 37.4517C49.122 38.5714 49.6306 39.588 49.9822 40.6568C50.0754 40.9405 50.1656 41.2242 50.248 41.5086C50.3747 41.5451 50.5001 41.5709 50.6254 41.5889C50.5717 41.3087 50.5137 41.0293 50.4478 40.7514Z" fill="white"/>
<path d="M37.91 33.1794C38.4837 33.4101 39.0674 33.6179 39.6332 33.8665C40.9196 34.4303 42.0936 35.1767 43.1421 36.1152C44.0081 36.8911 44.8776 37.6634 45.7335 38.45C46.121 38.806 46.4834 39.1907 46.8516 39.5683C47.1574 39.882 47.3222 40.2653 47.3071 40.7023C47.2906 41.2095 47.2649 41.7189 47.1975 42.2211C47.118 42.8142 47.1438 43.3823 47.3286 43.949C47.459 43.641 47.6294 43.3566 47.8235 43.0865C47.7877 42.8293 47.7591 42.5707 47.7304 42.3128C47.681 41.8629 47.6939 41.4051 47.6939 40.9509C47.6939 40.1199 47.3888 39.4264 46.7778 38.8683C46.3352 38.4643 45.8832 38.0696 45.437 37.6698C44.869 37.1604 44.296 36.6575 43.7373 36.1382C42.2984 34.8006 40.737 33.6652 38.8189 33.1099C38.4285 32.9968 38.0339 32.9 37.6048 32.7861C37.5977 33.0834 37.7689 33.1228 37.91 33.1794Z" fill="white"/>
<path d="M48.6049 38.957C48.4595 38.5286 48.2318 38.1288 48.0513 37.7119C47.8772 37.3107 47.5964 37.007 47.2168 36.8078C46.1074 36.2268 45.1454 35.4646 44.3397 34.5067C43.7566 33.814 43.0225 33.3211 42.2454 32.8741C41.3508 32.359 40.3509 32.1398 39.3882 31.8138C39.1941 31.7486 38.98 31.7422 38.7744 31.7085C38.7916 31.8654 38.841 31.9635 38.9155 31.99C39.2063 32.0946 39.5064 32.1713 39.8001 32.268C41.7003 32.892 43.3419 33.9186 44.71 35.3872C45.1046 35.8106 45.5387 36.2032 45.9885 36.5678C46.6839 37.1316 47.3142 37.7535 47.8822 38.4448C48.3822 39.0523 48.6164 39.7379 48.5297 40.5187C48.4688 41.0732 48.5089 41.6134 48.6013 42.1485C48.746 41.9881 48.8921 41.8276 49.0347 41.6657C48.9688 41.2437 48.9308 40.816 48.9365 40.3769C48.943 39.9041 48.7603 39.4176 48.6049 38.957Z" fill="white"/>
<path d="M17.8163 50.4946C17.6494 50.3119 17.5241 50.4129 17.4159 50.5018C17.277 50.6157 17.1538 50.7496 17.0241 50.875C16.6152 51.2726 16.1539 51.5749 15.5845 51.6924C15.4556 51.7196 15.3352 51.7898 15.1798 51.8522C15.3553 52.186 15.6139 52.1946 15.8538 52.1337C16.0937 52.0728 16.3344 51.9689 16.5414 51.8335C17.0707 51.4868 17.5148 51.052 17.8163 50.4946Z" fill="white"/>
<path d="M42.7303 31.3458C41.9446 30.9238 41.1574 30.4754 40.2413 30.4417C39.3174 30.4088 38.3906 30.4288 37.4652 30.451C37.0125 30.4625 36.5605 30.532 36.1086 30.5771C36.0191 30.5857 35.9188 30.5821 35.8443 30.6222C35.7762 30.6588 35.6788 30.777 35.6939 30.8071C35.7361 30.8873 35.8228 30.9647 35.9088 30.9955C35.9868 31.0241 36.0871 30.989 36.1773 30.9833C37.102 30.9238 38.026 30.8572 38.9514 30.8078C39.6511 30.7698 40.3323 30.8938 40.9719 31.1717C42.8542 31.992 44.594 33.0207 45.9169 34.6419C46.2034 34.993 46.5422 35.2846 47.0256 35.4443C46.8831 35.2065 46.7599 34.9529 46.5945 34.7322C45.543 33.3345 44.2788 32.1768 42.7303 31.3458Z" fill="white"/>
<path d="M25.6283 43.0049C27.083 42.3415 28.5599 41.7268 30.0197 41.0727C30.7137 40.7618 31.4027 40.4309 32.0667 40.0598C32.909 39.5891 33.3903 39.5597 34.0858 40.2396C35.1881 41.3178 36.448 42.1581 37.7559 42.9497C39.3252 43.8989 40.8701 44.8868 42.4308 45.8497C42.7531 46.0481 43.0976 46.21 43.4593 46.4035C43.7107 46.1241 43.6004 45.869 43.5259 45.6362C42.8398 43.4806 41.8206 41.5391 39.9354 40.1744C39.2893 39.7066 38.6347 39.2467 37.9528 38.8333C37.1513 38.3476 36.2525 38.2014 35.3271 38.2874C35.0083 38.3168 34.6516 38.3812 34.3952 38.5532C33.5314 39.1299 32.5358 39.3742 31.5961 39.7574C30.6707 40.1343 29.7324 40.4817 28.8242 40.8965C28.282 41.1437 27.7964 41.5105 27.2693 41.7942C26.7908 42.0528 26.3038 42.3071 25.7967 42.5012C24.9916 42.8093 24.3255 43.295 23.7847 43.9519C22.7591 45.1978 21.732 46.4436 20.7364 47.7137C20.1662 48.4402 19.6176 49.191 19.1356 49.9768C18.8462 50.4482 18.7123 51.0135 18.4909 51.5286C18.3133 51.9433 18.1514 52.3739 17.9093 52.75C17.3972 53.5445 17.163 54.412 17.1859 55.3376C17.2268 56.9567 17.1723 58.57 17.0441 60.1841C16.9517 61.3432 17.3421 62.4063 17.7919 63.448C18.0168 63.9666 18.2839 64.4566 18.675 64.8793C18.8698 65.0892 19.0102 65.3529 19.157 65.6029C19.8933 66.8544 20.7657 68.0078 21.9805 68.8116C23.1279 69.5703 24.3341 70.2537 25.5646 70.8713C25.869 71.0239 26.1885 71.1313 26.5172 71.2065C26.5065 70.9895 26.5222 70.7882 26.5573 70.6019C25.9464 70.4772 25.3461 70.2695 24.7624 70.0431C23.9688 69.7358 23.3894 69.1046 22.7333 68.5931C22.2469 68.2134 21.8036 67.7793 21.3294 67.3838C20.066 66.3286 19.1241 65.0204 18.3599 63.5805C17.769 62.4672 17.4896 61.2529 17.524 60.0021C17.5698 58.3336 17.7023 56.6665 17.8184 55.0009C17.847 54.5861 17.9366 54.1742 18.0247 53.7666C18.3169 52.419 19.0439 51.2864 19.8339 50.1925C20.5544 49.1938 21.318 48.226 22.0356 47.2259C22.489 46.5933 22.8686 45.9084 23.3278 45.2809C23.7346 44.7264 24.1815 44.1948 24.6585 43.6991C24.9307 43.4168 25.2717 43.1675 25.6283 43.0049ZM34.6216 38.8591C34.7562 38.8075 34.9002 38.7717 35.0434 38.7552C35.7002 38.6778 36.3635 38.6828 36.9687 38.9601C37.7086 39.2982 38.4198 39.6994 39.1368 40.0856C39.8022 40.4445 40.3279 40.966 40.8028 41.5456C41.5935 42.512 42.1371 43.6174 42.6192 44.7572C42.7008 44.9499 42.7238 45.1677 42.7739 45.374C42.7402 45.417 42.7073 45.46 42.6736 45.5029C42.496 45.4528 42.2876 45.4456 42.1457 45.3446C41.1695 44.6547 40.2076 43.9441 39.2399 43.2427C38.2572 42.5299 37.2932 41.7734 36.1285 41.3779C35.3006 41.0964 34.7498 40.5233 34.2921 39.8348C33.9841 39.3706 34.1051 39.0568 34.6216 38.8591Z" fill="white"/>
<path d="M30.7818 71.3051C31.3749 71.2535 31.9679 71.1239 32.5423 70.9648C33.9791 70.5672 35.426 70.1883 36.7661 69.5106C37.0977 69.3422 37.4372 69.1767 37.7538 68.9811C37.7351 68.8902 37.7108 68.7977 37.6821 68.7039C37.6578 68.6251 37.6356 68.5456 37.6148 68.4653C37.2395 68.6795 36.8506 68.8751 36.466 69.0707C34.4798 70.0822 32.3461 70.5937 30.1479 70.866C29.0943 70.9964 28.0536 70.8796 27.0229 70.6905C27.0079 70.8882 26.9964 71.0902 26.9929 71.2929C27.4505 71.3574 27.9197 71.3725 28.3845 71.371C29.1846 71.3689 29.9868 71.3746 30.7818 71.3051Z" fill="white"/>
<path d="M15.1754 65.7546C15.4405 66.5555 15.8609 67.3285 16.3336 68.032C17.3213 69.5042 18.4981 70.8159 20.018 71.7752C20.2787 71.9399 20.5409 72.1068 20.8159 72.2465C21.8165 72.7538 22.8049 73.2918 23.8327 73.7395C24.7259 74.1285 25.6577 74.3391 26.6075 74.4559C26.6082 74.2711 26.6139 74.0863 26.6204 73.9007C26.4886 73.8821 26.3575 73.8606 26.2264 73.8377C24.9673 73.617 23.784 73.2524 22.6746 72.7516C22.6688 72.8476 22.6638 72.9436 22.6581 73.0396C22.5213 72.8899 22.4138 72.7416 22.3351 72.594C20.6777 71.7923 19.1879 70.6805 17.8571 69.2799C17.2497 68.6402 16.8028 67.8894 16.4117 67.1071C15.3294 64.9429 14.5645 62.6798 14.298 60.2612C14.2185 59.5384 14.1032 58.8198 14.0058 58.0991C13.8783 57.1478 13.9306 56.2129 14.2594 55.3023C14.3496 55.0545 14.4169 54.8044 13.9671 54.6626C13.8948 54.8969 13.8146 55.0774 13.7845 55.2658C13.4536 57.319 13.5338 59.3686 13.9822 61.3896C14.3088 62.861 14.7013 64.3239 15.1754 65.7546Z" fill="white"/>
<path d="M48.1752 55.5721C48.2683 56.6496 48.269 57.7342 48.1437 58.8181C48.0814 59.3583 48.0556 59.9085 47.9245 60.4321C47.8249 60.8276 47.6065 61.2016 47.3966 61.559C47.2877 61.7439 47.0815 61.8714 46.9196 62.0247C46.8895 62.0025 46.8594 61.9803 46.8301 61.9581C46.9153 61.4996 46.9948 61.0389 47.0872 60.5819C47.3895 59.0911 47.3665 57.5859 47.3243 56.0765C47.2792 54.4438 46.9146 52.8713 46.53 51.2981C46.3488 50.5566 46.1726 49.813 46.0315 49.0629C45.6432 46.9926 44.8181 45.064 44.1227 43.0939C43.7309 41.9849 42.9351 41.1417 42.1429 40.3143C41.0041 39.1251 39.6705 38.1809 38.2466 37.3678C37.955 37.2016 37.6026 37.1163 37.2674 37.0597C36.5533 36.9394 35.8328 36.8455 35.1115 36.7739C34.5622 36.7187 34.0243 36.8226 33.5136 37.0397C32.6262 37.4172 31.7387 37.7933 30.8549 38.1773C30.2976 38.4194 29.8113 38.7676 29.4045 39.2204C29.3171 39.3185 29.2576 39.4417 29.1853 39.5535C29.2111 39.5857 29.2362 39.6187 29.2619 39.6509C29.499 39.5377 29.7411 39.4346 29.9717 39.3106C30.8205 38.8557 31.6714 38.4044 32.5108 37.9309C34.1904 36.9831 35.9087 37.0504 37.6693 37.6758C39.4477 38.3077 40.8952 39.3973 42.1172 40.8108C42.4144 41.1546 42.698 41.5107 42.9874 41.8603C43.3778 42.331 43.627 42.8704 43.7946 43.455C44.556 46.1114 45.3453 48.7606 46.078 51.4249C46.6646 53.5569 46.9676 55.7405 46.863 57.952C46.8129 59.0158 46.5751 60.0725 46.3953 61.1278C46.2764 61.8255 46.1253 62.5183 45.9613 63.2068C45.7263 64.1911 45.081 64.9497 44.5073 65.7421C44.493 65.7614 44.4793 65.7808 44.4643 65.8001C44.5495 65.7958 44.6341 65.7929 44.7193 65.7937C44.874 65.7944 45.0323 65.8037 45.1913 65.8137C45.6117 65.1933 45.9992 64.55 46.3616 63.8916C46.757 63.1738 47.2254 62.5147 47.6724 61.8341C48.5505 60.4981 48.8857 59.008 48.7296 57.409C48.625 57.2492 48.5319 57.0873 48.4868 56.9125C48.3714 56.4683 48.2719 56.0206 48.1752 55.5721Z" fill="white"/>
<path d="M24.6257 71.5947C23.9839 71.3597 23.3715 71.0825 22.7878 70.7637C22.7742 71.0044 22.7606 71.2358 22.7477 71.46C23.58 71.8669 24.4595 72.185 25.3756 72.4365C25.7996 72.5532 26.2243 72.6693 26.6519 72.7667C26.6519 72.607 26.6484 72.4472 26.6398 72.2889C26.3762 72.2258 26.1162 72.1413 25.8605 72.0281C25.463 71.8519 25.0354 71.7444 24.6257 71.5947Z" fill="white"/>
<path d="M26.7988 76.1747C26.7895 76.1546 26.7809 76.1338 26.7708 76.1131C26.7107 75.9841 26.6734 75.843 26.6505 75.6954C26.4084 75.6696 26.1663 75.6381 25.9242 75.6008C25.1865 75.4869 24.4466 75.3651 23.7741 75.0292C23.3744 74.8293 22.9754 74.6273 22.5779 74.4224C22.5443 74.6065 22.512 74.7906 22.4798 74.9747C22.5106 74.9898 22.5414 75.0055 22.5722 75.0206C23.9266 75.689 25.3412 76.0357 26.7988 76.1747Z" fill="white"/>
<path d="M52.482 26.3934C52.8294 26.7451 53.1223 27.1255 53.3694 27.5546C53.9503 28.5626 54.5412 29.5649 55.1536 30.5535C55.703 31.4418 56.1105 32.3882 56.4407 33.3754C56.9056 34.763 57.2243 36.1879 57.5531 37.61C57.8639 37.6193 58.2192 37.5591 58.5665 37.4509C58.5143 37.2317 58.4648 37.0118 58.4211 36.7911C58.1318 35.3318 57.7515 33.9005 57.1663 32.5286C56.7745 31.6094 56.3877 30.691 56.3118 29.6745C56.2438 28.7603 55.8341 27.978 55.309 27.2466C55.0354 26.8655 54.7196 26.4994 54.524 26.0796C54.1946 25.3689 53.7132 24.78 53.1947 24.2241C52.8967 24.2621 52.5995 24.2893 52.3037 24.3058C52.4097 24.434 52.5171 24.5608 52.6281 24.684C53.8321 26.0165 54.807 27.4973 55.592 29.1092C55.7023 29.3363 55.8298 29.5598 55.6786 29.9388C55.5175 29.7998 55.39 29.7282 55.3176 29.62C55.0763 29.2604 54.8306 28.9 54.6293 28.5175C54.0105 27.3419 53.1796 26.3153 52.3316 25.3102C52.0379 24.962 51.7242 24.6346 51.3962 24.3208C51.0553 24.313 50.715 24.29 50.3748 24.2506C50.4894 24.3473 50.6033 24.4448 50.7165 24.5436C51.3554 25.1024 51.8832 25.7859 52.482 26.3934Z" fill="white"/>
<path d="M57.3231 30.6109C57.631 31.5222 57.8495 32.4657 58.0636 33.4049C58.3602 34.708 58.5815 36.0298 58.9253 37.3214C59.2003 37.2082 59.4575 37.0678 59.668 36.9124C59.5398 36.5298 59.5119 36.1458 59.5527 35.7382C59.7397 36.0118 59.8844 36.3049 60.0032 36.6079C60.0319 36.5742 60.0584 36.5406 60.0813 36.5062C60.11 36.4632 60.158 36.4145 60.1558 36.3715C60.024 34.2438 61.9736 32.7709 61.9436 30.674C61.9364 30.184 62.0159 29.6875 61.9615 29.2047C61.8834 28.5119 62.0875 28.2998 62.74 28.5592C63.0788 28.6939 63.3868 28.9081 63.7077 29.0879C64.28 29.4088 65.0213 29.31 65.345 28.8257C65.7268 28.2547 65.2691 27.9309 64.9475 27.5426C64.6746 27.2131 64.5529 26.7503 64.2578 26.4515C63.7893 25.9759 63.24 25.5775 62.7078 25.1685C62.5689 25.061 62.3504 25.0617 62.1978 24.965C61.266 24.374 60.3098 24.033 59.3364 23.8611C59.532 24.23 59.7275 24.5982 59.923 24.9672C59.4374 24.7214 59.3959 24.24 59.2039 23.8388C58.9038 23.7908 58.6037 23.7579 58.3007 23.7393C58.4211 23.9298 58.4791 24.1376 58.4268 24.3668C58.3766 24.5853 58.1704 24.6512 58.02 24.485C57.8889 24.341 57.7936 24.1605 57.6976 23.9879C57.6475 23.8976 57.5974 23.808 57.5465 23.7178C57.2407 23.7185 56.9334 23.7307 56.6254 23.7529C56.7035 23.8919 56.7766 24.0323 56.8417 24.177C57.0752 24.6957 57.3589 25.1728 57.7156 25.6148C58.5937 26.7016 59.1839 27.9474 59.6537 29.2527C59.7676 29.57 59.8378 29.9046 59.6423 30.237C59.2541 29.3207 58.8795 28.3987 58.4726 27.491C58.2979 27.1006 58.0923 26.713 57.8366 26.372C57.2221 25.5503 56.5825 24.7437 56.1907 23.7887C55.902 23.8166 55.6127 23.8517 55.3233 23.8911C55.6463 24.4077 55.9436 24.9421 56.2129 25.4959C56.5216 26.1313 56.8804 26.7453 57.2586 27.342C57.7972 28.1924 58.2843 29.0585 58.4898 30.0579C58.522 30.2169 58.5679 30.3795 58.6395 30.5243C59.0442 31.3409 59.0442 32.2508 59.2419 33.1147C59.2598 33.1943 59.2053 33.2895 59.1846 33.3784C59.1445 33.382 59.1036 33.3855 59.0628 33.3891C59.0027 33.1935 58.9239 33.0016 58.8838 32.8017C58.6266 31.5215 58.3666 30.2413 57.7406 29.0757C57.2629 28.1867 56.7751 27.3026 56.2823 26.4215C55.993 25.9042 55.7122 25.3791 55.3777 24.8919C55.1679 24.5846 54.9544 24.2801 54.7352 23.9785C54.4437 24.0237 54.1508 24.0731 53.8586 24.1247C53.8564 24.1254 53.8543 24.1254 53.8521 24.1261C54.4273 24.8826 54.968 25.6642 55.4322 26.5046C56.1634 27.8292 56.8403 29.1789 57.3238 30.6109H57.3231ZM61.3498 25.7946C61.6836 26.5497 61.945 27.3248 61.9514 28.1788C61.6735 27.4101 61.2954 26.6586 61.3498 25.7946ZM60.6006 27.0175C60.698 27.3578 60.8319 27.7138 60.6335 28.2046C60.3571 27.4201 60.2604 26.7245 60.1959 26.0131C60.5519 26.2681 60.5018 26.6729 60.5999 27.0175H60.6006ZM59.479 26.9996C58.984 26.4451 58.8085 25.7416 58.4325 25.1563C58.3638 25.0496 58.3716 24.8948 58.3408 24.7437C58.6596 24.7164 58.7828 24.8748 58.8773 25.0868C59.0771 25.5331 59.2884 25.9737 59.4847 26.4207C59.5592 26.5912 59.6738 26.7732 59.479 26.9996Z" fill="white"/>
<path d="M50.9478 59.8221C51.1827 59.2576 51.2457 58.668 51.2751 58.0719C51.0581 57.4393 50.8747 56.7917 50.6376 56.1685C50.6247 56.579 50.6047 56.9887 50.5782 57.3971C50.4593 59.2318 50.061 61.0228 49.5446 62.7837C49.5196 62.8711 49.4916 62.9585 49.4615 63.0459C49.7015 62.8718 49.945 62.6948 50.1936 62.5136C50.2007 62.5215 50.2079 62.5293 50.215 62.5372C50.4127 61.8617 50.619 61.1882 50.8124 60.5113C50.8769 60.287 50.8597 60.0334 50.9478 59.8221Z" fill="white"/>
<path d="M53.2978 29.9118C54.1932 31.4728 54.7962 33.1449 55.3836 34.8241C55.7417 35.8485 55.948 36.926 56.2208 37.9805C56.415 38.7299 56.6076 39.4792 56.8003 40.2286C56.8289 40.1648 56.8511 40.0946 56.8683 40.0187C56.9987 39.4334 57.0875 38.8388 57.1742 38.2456C57.177 38.2277 57.1792 38.2091 57.1806 38.1912C57.1706 38.1546 57.1606 38.1188 57.1505 38.0823C56.9127 37.229 56.6807 36.3722 56.4092 35.529C56.2051 34.8929 55.9193 34.2818 55.7109 33.6471C55.0992 31.7866 54.1659 30.0851 53.1324 28.4381C52.3452 27.183 51.2666 26.165 50.2567 25.0947C49.9336 24.7523 49.6142 24.4048 49.2833 24.0703C48.8435 23.9757 48.403 23.8525 47.9596 23.6999C47.8758 23.6712 47.7899 23.6447 47.7025 23.6211C48.3063 24.1269 48.8929 24.6549 49.4681 25.1936C50.9579 26.5898 52.2722 28.1229 53.2978 29.9118Z" fill="white"/>
<path d="M32.586 51.3993C31.4422 51.4244 30.3513 51.6687 29.34 52.2174C28.9726 52.4166 28.6173 52.6387 28.2484 52.8343C27.265 53.3544 26.5932 54.1861 26.0166 55.0981C25.5976 55.7615 25.4787 56.5216 25.4787 57.2953C25.4787 59.5333 26.1971 61.5041 27.7034 63.1719C28.1653 63.6841 28.7255 64.0186 29.4166 64.1619C30.3341 64.3518 31.2452 64.4578 32.1692 64.245C32.354 64.202 32.5337 64.1369 32.7787 64.0623C32.5266 63.8352 32.3088 63.8911 32.1047 63.9033C31.3398 63.9463 30.587 63.8976 29.8313 63.7471C28.7684 63.5351 27.9841 62.9541 27.3746 62.0822C26.5681 60.9281 26.2422 59.615 26.0653 58.2502C25.9808 57.6033 25.8762 56.9578 25.9994 56.298C26.1126 55.692 26.3117 55.1461 26.803 54.7377C27.4169 54.2269 28.0049 53.6818 28.6381 53.1968C29.7518 52.3435 31.0454 51.9459 32.427 51.8012C32.7049 51.7718 32.9964 51.7876 33.308 51.6314C33.0767 51.395 32.8303 51.3936 32.586 51.3993Z" fill="white"/>
<path d="M35.8457 56.8545C35.4919 55.3093 34.2599 54.421 32.7136 54.4525C32.281 54.4611 31.8469 54.5449 31.4179 54.6201C30.9101 54.7082 30.5233 55.0156 30.1902 55.3867C29.5914 56.0543 29.1352 56.8187 28.7248 57.6125C28.5822 57.8869 28.5529 58.157 28.6675 58.4514C28.7334 58.619 28.7556 58.8031 28.7964 58.9801C28.9948 59.8319 29.4246 60.4609 30.3156 60.7374C31.1643 61.0003 32.0038 61.1794 32.884 60.9402C34.2635 60.5655 34.9776 59.1936 34.4748 57.8546C34.3416 57.4986 34.1797 57.1476 33.982 56.823C33.5387 56.0944 32.8625 55.7721 32.0167 55.7943C31.8877 55.7979 31.8884 55.8014 31.6972 56.0121C31.786 56.2248 31.9787 56.1776 32.1527 56.2127C32.5059 56.2836 32.879 56.3387 33.1935 56.4992C33.8259 56.8237 34.1052 57.4169 34.1869 58.0996C34.2642 58.7523 34.1074 59.3648 33.8023 59.9408C33.5709 60.3771 33.192 60.6149 32.7121 60.6658C31.7653 60.7661 30.8613 60.5719 30.0219 60.1421C29.4074 59.8269 28.9998 58.7458 29.0894 58.0638C29.2691 56.6948 30.0907 55.7835 31.1772 55.085C31.9601 54.5814 32.8239 54.623 33.6039 55.1094C34.5199 55.6804 35.1331 56.5415 35.6072 57.4979C35.6982 57.6813 35.7569 57.8711 35.7877 58.0631C35.8679 58.0452 35.9489 58.0273 36.0305 58.0101C35.9976 57.6232 35.9338 57.2385 35.8457 56.8545Z" fill="white"/>
<path d="M34.6152 50.8698C34.3731 50.6893 34.1181 50.5274 33.8158 50.3203C33.7091 50.7466 33.9663 50.8598 34.1374 50.988C34.7864 51.473 35.2942 52.0755 35.7304 52.7468C36.0269 52.8112 36.2511 52.8599 36.4266 52.8736C36.385 52.8177 36.3442 52.7618 36.3034 52.7052C35.8149 52.0232 35.292 51.3756 34.6152 50.8698Z" fill="white"/>
<path d="M33.1011 52.8495C31.8132 52.9634 30.5877 53.3309 29.5148 54.0509C28.4025 54.7981 27.6454 55.8705 27.149 57.1106C27.0538 57.3477 27.0566 57.6465 27.0896 57.9072C27.1447 58.3385 27.2558 58.7633 27.3517 59.1889C27.6232 60.3924 28.2399 61.3982 29.2605 62.0781C30.5985 62.9693 32.0374 63.2243 33.5387 62.4349C34.1525 62.1118 34.7506 61.7693 35.1997 61.2199C35.4224 60.9483 35.6015 60.6596 35.7361 60.3523C35.7068 60.0063 35.6774 59.6495 35.6473 59.2856C35.1309 60.9003 34.1031 62.0086 32.3454 62.3747C31.834 62.4807 31.3398 62.4342 30.8413 62.2894C29.2942 61.8395 28.2048 60.9261 27.8216 59.31C27.7084 58.8343 27.6311 58.345 27.5924 57.8578C27.5358 57.1436 27.7299 56.4809 28.1969 55.9293C28.5837 55.4729 28.9819 55.0202 29.421 54.6161C30.6458 53.4871 32.1341 53.179 33.7335 53.3861C34.5987 53.4985 35.2476 54.0588 35.8085 54.6956C36.5648 55.5546 37.0461 56.4924 37.2453 57.4996C37.3849 57.3563 37.4902 57.1794 37.5669 56.9623C37.4723 56.218 37.1249 55.556 36.6336 54.9715C36.3464 54.6297 36.0391 54.3095 35.7118 54.0122C35.0836 53.7851 34.5722 53.3825 34.0995 52.9211C33.7779 52.828 33.4398 52.8194 33.1011 52.8495Z" fill="white"/>
<path d="M32.4864 58.9407C32.1175 59.0718 31.71 59.0962 31.3203 59.17C31.1348 59.2051 30.9508 59.2438 30.766 59.281C30.7638 59.3448 30.7617 59.4078 30.7595 59.4716C30.9021 59.5174 31.0553 59.6213 31.1864 59.5984C31.6835 59.5146 32.1963 59.4465 32.6604 59.2638C33.2313 59.0396 33.3294 58.488 32.9068 58.0288C32.3954 57.4736 31.7315 57.1856 30.9801 57.1462C30.5676 57.1247 30.3749 57.4069 30.4487 57.8432C30.4838 57.8454 30.5282 57.8618 30.5525 57.8461C31.3318 57.3618 31.9822 57.7322 32.601 58.1763C32.9813 58.45 32.9376 58.7803 32.4864 58.9407Z" fill="white"/>
<path d="M38.5087 61.1816C38.3633 61.638 38.1577 62.0771 37.897 62.4934C37.6012 62.9662 37.2782 63.4211 36.963 63.881C36.872 64.212 36.7818 64.5473 36.6873 64.8926C36.973 64.5895 37.2524 64.2815 37.5109 63.957C38.1391 63.1675 38.5803 62.3186 38.8711 61.4223C38.798 61.3084 38.6634 61.2304 38.5087 61.1816Z" fill="white"/>
<path d="M40.5085 66.1328C39.9162 66.7604 39.2644 67.3249 38.5675 67.8407C38.5983 68.0005 38.6227 68.1595 38.6398 68.3171C39.379 67.7232 40.1132 67.1186 40.8115 66.4788C40.7077 66.3649 40.6067 66.2496 40.5085 66.1328Z" fill="white"/>
<path d="M34.424 68.3293C34.295 68.4045 34.1776 68.5013 33.9727 68.6467C34.1482 68.6918 34.2155 68.7305 34.2743 68.7205C34.4533 68.6897 34.6374 68.6617 34.8043 68.5944C35.754 68.2111 36.6329 67.7304 37.3692 67.0742C37.3455 66.8808 37.324 66.6873 37.3018 66.4946C36.9752 66.7934 36.6078 67.0527 36.2167 67.287C35.6237 67.6423 35.0199 67.979 34.424 68.3293Z" fill="white"/>
<path d="M38.3597 51.2577C38.5366 51.5507 38.7006 51.858 38.8525 52.1797C39.4197 53.3832 39.8946 54.6176 40.2112 55.9157C40.5743 57.4044 40.4354 58.8644 40.1152 60.3402C40.0056 60.8424 39.8645 61.3317 39.7012 61.8124C39.7915 62.1025 39.9032 62.3762 40.0336 62.6362C40.3774 61.7672 40.5657 60.8538 40.7047 59.9261C40.7713 59.4783 40.82 59.0184 40.7928 58.5692C40.7226 57.3908 40.6667 56.2058 40.4898 55.041C40.305 53.826 39.7721 52.7184 39.1311 51.6711C39.0222 51.4927 38.9105 51.3164 38.7959 51.1431C38.6863 51.2133 38.5774 51.2641 38.4707 51.2591C38.432 51.257 38.3955 51.2563 38.3597 51.2577Z" fill="white"/>
<path d="M25.7731 46.6024C25.2109 46.9334 24.6565 47.2823 24.1229 47.6577C22.2535 48.9716 20.9299 50.7633 19.7745 52.6947C19.1636 53.7155 18.9752 54.8618 18.7911 56.018C18.5684 57.4157 18.6522 58.8077 18.7424 60.2039C18.8463 61.8165 19.5045 63.2214 20.3955 64.5346C21.3539 65.9459 22.53 67.1573 23.8715 68.1996C24.2941 68.5277 24.8105 68.7398 25.2961 68.9798C25.5719 69.1159 25.8763 69.1933 26.1606 69.3129C26.4249 69.4247 26.6928 69.5135 26.9635 69.5816C27.0287 69.4705 27.0953 69.3659 27.1598 69.2664C27.1512 69.3795 27.1397 69.4977 27.1268 69.621C27.6633 69.7392 28.2127 69.7771 28.7713 69.7485C29.6602 69.7019 30.5476 69.6253 31.4351 69.5472C31.6342 69.5293 31.8283 69.449 32.1112 69.3745C31.7746 69.1066 31.4974 69.1911 31.2381 69.1997C30.4209 69.2262 29.6043 69.2649 28.7878 69.2964C26.9392 69.3659 25.3312 68.7212 23.903 67.5986C23.3049 67.1279 22.752 66.5978 22.1919 66.0791C21.6003 65.5303 21.124 64.8899 20.7508 64.1735C20.7085 64.0933 20.6663 64.0123 20.6169 63.9364C19.0375 61.5329 18.7868 58.8664 19.2008 56.1233C19.5267 53.9577 20.3397 51.9575 21.7349 50.2274C22.2914 49.5375 22.979 49.0102 23.7182 48.5389C24.6536 47.9435 25.5883 47.3475 26.5216 46.7493C26.5954 46.702 26.6563 46.634 26.8024 46.5064C26.3712 46.3696 26.051 46.4391 25.7731 46.6024Z" fill="white"/>
<path d="M18.7303 73.9337C17.7254 73.3104 16.7054 72.7065 15.9312 71.7902C15.298 71.0423 14.6892 70.2736 14.0868 69.4999C13.95 69.3244 13.8211 69.1446 13.7001 68.9619C13.7545 69.3323 13.8247 69.6984 13.9185 70.0594C14.3075 70.5881 14.7308 71.0896 15.2056 71.5531C15.9333 72.2645 16.6689 72.9694 17.4324 73.6421C17.8386 74.0003 18.2948 74.3098 18.7568 74.5949C19.4823 75.0413 20.2258 75.4611 20.9736 75.8694C21.1476 75.9647 21.3224 76.0585 21.4986 76.1495C21.5108 76.0206 21.5186 75.8959 21.5208 75.777C21.2615 75.6359 21.0094 75.4754 20.7651 75.2927C20.1134 74.8041 19.4236 74.3635 18.7303 73.9337Z" fill="white"/>
<path d="M19.4042 78.085C19.4164 78.2447 19.43 78.4038 19.4472 78.5628C19.829 78.714 20.2129 78.8608 20.5989 79.0005C20.6763 78.8809 20.7501 78.7476 20.821 78.6036C20.8124 78.6008 20.8031 78.5986 20.7945 78.5958C20.3167 78.4575 19.854 78.287 19.4042 78.085Z" fill="white"/>
<path d="M19.3633 76.2051C19.3626 76.3999 19.359 76.5941 19.3576 76.7889C19.8189 77.0762 20.2937 77.3413 20.7894 77.5476C20.9169 77.6006 21.0451 77.6529 21.1733 77.7038C21.2191 77.5598 21.2607 77.4129 21.2979 77.2661C21.1654 77.2045 21.0351 77.1378 20.9068 77.0633C20.3976 76.7682 19.8633 76.5138 19.3633 76.2051Z" fill="white"/>
<path d="M14.9929 72.9307C14.9305 73.1012 14.8704 73.2559 14.8281 73.4035C15.0831 73.66 15.3481 73.905 15.6267 74.1299C16.5851 74.9036 17.595 75.6186 18.6178 76.307C18.7202 76.3758 18.8226 76.4446 18.9265 76.5119C18.9537 76.3429 18.9816 76.1731 19.0103 76.004C19.021 76.0047 19.0304 76.0054 19.0411 76.0054C18.2282 75.5025 17.4109 75.0025 16.646 74.4344C16.0407 73.9838 15.4971 73.4751 14.9929 72.9307Z" fill="white"/>
<path d="M15.7119 77.6095C15.52 77.4655 15.3323 77.3179 15.1483 77.166C15.2184 77.6825 15.3531 78.1797 15.9497 78.3216C16.3745 78.4219 16.6345 78.6031 16.7899 78.8467C17.3192 79.1189 17.8492 79.3883 18.3857 79.6447C18.4165 79.4893 18.4466 79.3331 18.4752 79.1769C18.3707 79.1239 18.2668 79.0688 18.1637 79.0129C17.3393 78.5623 16.4805 78.1854 15.7112 77.6095H15.7119Z" fill="white"/>
<path d="M15.5121 75.258C15.2865 75.0374 15.0587 74.8196 14.8309 74.6011C14.8589 74.874 14.8918 75.147 14.9269 75.4206C15.5307 76.0002 16.1589 76.5554 16.7827 77.1135C17.3306 77.6042 17.9702 77.9567 18.6428 78.2382C18.67 78.0763 18.6972 77.9144 18.7237 77.7525C18.405 77.5834 18.0927 77.3986 17.7869 77.2002C16.9417 76.6507 16.2262 75.9558 15.5121 75.258Z" fill="white"/>
<path d="M17.8823 80.5359C17.9117 80.5187 17.9396 80.4979 17.9668 80.4736C17.6409 80.3317 17.3186 80.182 17.0006 80.0229C16.9913 80.7193 17.272 80.8998 17.8823 80.5359Z" fill="white"/>
<path d="M22.2555 76.1206C22.229 76.2402 22.1997 76.3584 22.1689 76.4767C22.7555 76.7467 23.36 76.9702 23.9925 77.1013C24.7352 77.2554 25.488 77.36 26.2422 77.456C26.3238 77.4087 26.4048 77.36 26.485 77.3105C26.6275 77.2224 26.7328 77.1279 26.803 77.0247C25.9621 76.948 25.122 76.8327 24.2818 76.6787C23.5835 76.5504 22.9023 76.3807 22.2555 76.1206Z" fill="white"/>
<path d="M29.0722 73.0051C30.779 72.8811 32.4786 72.6784 34.1317 72.2235C35.2104 71.9269 36.2747 71.5758 37.3334 71.2119C37.4802 70.9705 37.5998 70.7198 37.6829 70.459C36.9917 70.815 36.2633 71.1109 35.5069 71.3588C33.1741 72.1239 30.7618 72.4334 28.3108 72.4513C27.8889 72.4549 27.4721 72.4355 27.0616 72.3718C27.0853 72.538 27.1139 72.7042 27.144 72.8697C27.7765 72.9886 28.4168 73.0531 29.0722 73.0051Z" fill="white"/>
<path d="M34.5507 73.5189C34.7577 73.683 34.8909 73.7897 34.9797 73.8599C35.2426 73.5813 35.5083 73.3169 35.7676 73.0562C35.7525 73.0612 35.7368 73.0669 35.7217 73.0726C35.3314 73.2166 34.9446 73.3835 34.5507 73.5189Z" fill="white"/>
<path d="M21.9304 79.1795C21.9971 79.3257 22.0687 79.4381 22.1482 79.5155C22.2814 79.5564 22.4146 79.5965 22.5478 79.6352H22.5486C22.6574 79.6137 22.7792 79.5571 22.9153 79.4654C23.0113 79.4009 23.1087 79.3371 23.2054 79.2734C22.742 79.1473 22.28 79.0191 21.818 78.8887C21.8488 78.984 21.886 79.0807 21.9304 79.1795Z" fill="white"/>
<path d="M21.843 77.4819C21.7965 77.6331 21.7621 77.7785 21.7406 77.9197C22.5471 78.2134 23.3693 78.4584 24.2074 78.6389C24.4437 78.4928 24.6815 78.3488 24.9193 78.2055C24.9293 78.1998 24.9386 78.194 24.9487 78.1883C24.5676 78.1131 24.1873 78.0364 23.807 77.9569C23.1466 77.8186 22.4791 77.6997 21.8423 77.4819H21.843Z" fill="white"/>
<path d="M22.083 74.7556C22.1417 74.5894 22.2005 74.4239 22.2592 74.2577C21.6332 73.9339 21.0101 73.6043 20.3884 73.2712C19.6213 72.8593 18.8291 72.4739 18.2045 71.8456C17.4732 71.112 16.7183 70.3963 16.045 69.6119C14.9392 68.3252 14.157 66.8394 13.7674 65.1874C13.2717 63.0819 12.8534 60.9607 12.7295 58.7878C12.6959 58.1904 12.6629 57.5936 12.6464 56.9976C12.6028 57.0499 12.5583 57.1014 12.5139 57.153C12.279 57.4253 12.1057 57.7269 11.9961 58.0421C11.9975 58.0693 11.999 58.0958 12.0011 58.123C12.0505 58.8315 12.1272 59.5365 12.2317 60.2371C12.2317 60.2371 12.232 60.2376 12.2325 60.2385C12.2475 60.2643 12.2633 60.288 12.2797 60.313C12.5075 60.6626 12.7868 61.0323 12.8506 61.4242C13.0655 62.7474 13.1915 64.0849 13.3562 65.4166C13.3677 65.5083 13.3785 65.6008 13.3885 65.6932C13.5625 66.2591 13.7545 66.8201 13.9221 67.3875C13.9629 67.525 14.0381 67.6547 14.1097 67.7808C14.7229 68.8582 15.3911 69.9027 16.2506 70.7975C16.7126 71.2782 17.234 71.7202 17.7884 72.0892C18.8606 72.8041 19.9737 73.4568 21.0731 74.1309C21.1984 74.2076 21.3231 74.2864 21.447 74.3644C21.4592 74.2742 21.4706 74.1846 21.4749 74.0972C21.5544 74.1037 21.6346 74.1094 21.7141 74.1159C21.7242 74.2613 21.7349 74.406 21.7449 74.5514C21.8574 74.6209 21.9698 74.6897 22.083 74.7556Z" fill="white"/>
<path d="M29.1989 75.7646C29.1437 75.9423 29.0972 76.0992 29.0599 76.2403C30.5218 76.1973 31.9393 75.9215 33.3488 75.6034C33.4197 75.4057 33.4935 75.208 33.5694 75.0103C33.4863 75.0339 33.4033 75.0568 33.3202 75.0797C31.9579 75.4573 30.5841 75.6958 29.1989 75.7646Z" fill="white"/>
<path d="M44.5201 58.4797C44.8309 56.6909 44.7006 54.9307 44.235 53.1934C44.0567 52.5293 43.7945 51.8839 43.5259 51.2484C43.1929 50.4611 42.8147 49.6938 42.453 48.9187C42.4172 48.8413 42.3606 48.7733 42.2661 48.6271C42.2052 48.7797 42.135 48.8693 42.145 48.9488C42.1701 49.1458 42.2066 49.3485 42.284 49.5298C42.6099 50.2992 42.9709 51.0536 43.281 51.8287C43.4686 52.2979 43.5969 52.793 43.7351 53.2808C44.0989 54.5639 44.3067 55.8699 44.2536 57.2088C44.2501 57.3134 44.2372 57.418 44.2293 57.5183C43.7766 57.5456 43.7587 57.5456 43.6885 57.1838C43.5567 56.5068 43.4629 55.8219 43.3161 55.1478C43.1542 54.4042 42.9938 53.6555 42.7524 52.9363C42.5511 52.3373 42.251 51.7692 41.9652 51.2019C41.3178 49.9152 40.4697 48.7546 39.6317 47.5898C38.8259 46.4715 37.8762 45.5072 36.6378 44.8625C35.817 44.4355 35.0062 43.9863 34.171 43.5902C32.6848 42.8845 31.1721 42.9425 29.673 43.55C28.9668 43.8366 28.2713 44.1575 27.593 44.505C27.0071 44.8052 26.432 44.9527 25.7616 44.8281C24.9715 44.6819 24.1443 45.4907 24.1522 46.3325C24.3276 46.4178 24.4136 46.2967 24.4988 46.1785C24.6263 46.003 24.7438 45.8189 24.8806 45.6505C25.0761 45.4105 25.3261 45.2765 25.6462 45.3331C26.4327 45.4721 27.1124 45.2006 27.7606 44.7966C28.8651 44.1088 30.0977 43.7958 31.3641 43.6188C32.634 43.4404 33.8093 43.8144 34.9417 44.3459C36.9845 45.3045 38.6354 46.7394 39.8423 48.6307C41.1566 50.6896 42.2546 52.8668 42.8777 55.2474C43.0239 55.8054 43.0532 56.3943 43.1513 56.9667C43.233 57.4488 43.2853 57.9446 43.4407 58.4038C43.7773 59.3953 43.7115 60.3689 43.4328 61.3482C43.0733 62.6112 42.3835 63.6972 41.6336 64.7575C41.7618 64.8865 41.8922 65.014 42.0247 65.1401C42.4766 64.4932 42.8369 63.7775 43.1958 63.0697C43.9278 61.624 44.2451 60.0601 44.5201 58.4797Z" fill="white"/>
<path d="M39.3446 71.708C38.8855 71.8935 38.4235 72.0719 37.9594 72.2467C37.8849 72.4215 37.8054 72.5956 37.7238 72.7697C37.7266 72.7654 37.7295 72.7625 37.7302 72.7604H37.7309C37.7223 72.8341 37.7116 72.9094 37.6994 72.9846C38.0783 72.8184 38.4558 72.6464 38.8375 72.4903C39.0223 72.4143 39.1971 72.3105 39.3847 72.2445C40.0072 72.026 40.593 71.7531 41.1488 71.435C41.1976 71.1621 41.2434 70.8884 41.2864 70.6147C41.1524 70.71 41.0163 70.8017 40.8781 70.8891C40.3889 71.1979 39.8797 71.4923 39.3446 71.708Z" fill="white"/>
<path d="M11.1344 51.0877C11.1086 50.2882 11.0764 49.4901 11.2547 48.7035C11.2748 48.6175 11.3615 48.5473 11.5047 48.3489C11.5663 48.682 11.6243 48.8819 11.6379 49.0846C11.7089 50.1563 11.8091 51.2231 12.0849 52.2647C12.2553 52.9087 12.2632 53.5528 12.1637 54.2104C12.0985 54.641 12.0491 55.0723 12.0154 55.505C12.2181 55.5386 12.4251 55.5802 12.6414 55.6246C12.6579 54.9569 12.7066 54.29 12.8076 53.623C12.8498 53.3429 12.8133 53.0434 12.7718 52.759C12.5891 51.4831 12.2668 50.223 12.3062 48.9227C12.3399 47.818 12.3836 46.7126 12.4752 45.6115C12.5805 44.3478 12.9301 43.1321 13.5718 42.0424C14.0338 41.2573 14.4342 40.4485 14.8496 39.6425C15.3481 38.6754 15.8975 37.7319 16.4776 36.8113C17.0256 35.9409 17.653 35.1213 18.226 34.2667C19.2158 32.7902 20.2752 31.3746 21.5429 30.1202C22.4211 29.2519 23.2877 28.37 24.1193 27.4573C25.6843 25.7423 27.467 24.3324 29.6172 23.4254C30.0111 23.2592 30.4051 23.0938 30.799 22.9297C30.6486 22.8731 30.4982 22.8165 30.3471 22.7613C29.5305 23.131 28.7147 23.5014 27.8989 23.871C26.98 24.2866 26.1699 24.8697 25.4135 25.5331C24.8534 26.0238 24.2948 26.5196 23.7082 26.9781C22.4977 27.9244 21.4899 29.0621 20.5209 30.242C19.8533 31.0536 19.2237 31.9083 18.4717 32.6347C17.6451 33.4328 17.0528 34.3706 16.4719 35.3341C15.9949 36.1236 15.5816 36.9675 15.0022 37.6746C14.3368 38.4862 13.7788 39.3273 13.4708 40.3295C13.4551 40.3818 13.4393 40.4391 13.4064 40.4793C13.3455 40.5502 13.2717 40.6104 13.1263 40.7493C13.1449 40.5566 13.1234 40.4528 13.1657 40.3933C13.5611 39.8288 13.6212 39.1109 14.061 38.5514C14.3883 38.1345 14.5323 37.5793 14.8167 37.1229C15.6883 35.726 16.5707 34.3354 17.4832 32.9657C18.2145 31.8667 18.9494 30.7649 19.7702 29.7333C20.4227 28.913 21.2335 28.2217 21.9261 27.4301C23.4274 25.7143 25.2424 24.3804 27.1433 23.1683C27.6747 22.8301 28.2148 22.5063 28.7613 22.1911C28.5743 22.1266 28.3838 22.065 28.1919 22.0141C28.015 22.118 27.838 22.2212 27.6611 22.3243C25.5002 23.5809 23.4747 25.0187 21.6138 26.6915C20.5022 27.6909 19.5518 28.8328 18.6221 29.9941C18.1594 30.5729 17.7382 31.1855 17.2755 31.7643C17.0349 32.0659 16.9267 32.4828 16.4533 32.6154C16.8558 31.919 17.2168 31.194 17.6709 30.5335C18.2747 29.6545 18.9394 28.8156 19.6005 27.9781C20.2057 27.2123 20.8188 26.4501 21.4699 25.7244C22.0021 25.1312 22.5944 24.5925 23.1638 24.033C23.3579 23.8424 23.5477 23.6432 23.7655 23.482C24.4803 22.9533 25.2338 22.4726 25.9228 21.9131C26.0632 21.7992 26.2064 21.6903 26.3518 21.5879C26.243 21.4475 26.1914 21.2591 26.1778 21.0313C25.329 21.5069 24.491 21.9998 23.7769 22.6661C22.4526 23.9026 21.0394 25.0495 19.9113 26.4909C19.3655 27.188 18.7073 27.7947 18.1214 28.461C17.8084 28.8163 17.5398 29.2103 17.2519 29.5865C17.2197 29.565 17.1881 29.5435 17.1566 29.5213C17.2748 29.3307 17.3901 29.138 17.5126 28.9496C18.0419 28.1336 18.4817 27.2381 19.1213 26.5196C20.7372 24.7035 22.3695 22.891 24.284 21.373C24.9122 20.8751 25.5546 20.3994 26.2215 19.9588C26.2473 19.7274 26.2874 19.4989 26.3525 19.2804C26.3626 19.2474 26.3719 19.2152 26.3805 19.1822C25.7566 19.5118 25.1464 19.8671 24.5548 20.2468C23.6552 20.8235 22.8236 21.5055 21.9605 22.1388C21.8087 22.2498 21.6489 22.3494 21.3911 22.5228C21.4634 22.3415 21.4692 22.2821 21.5021 22.2513C22.1432 21.666 22.7527 21.0391 23.4381 20.5111C24.4731 19.7138 25.5246 18.9372 26.5889 18.1793C26.6276 17.8984 26.6484 17.6183 26.6534 17.3397C26.3783 17.4908 26.1054 17.6463 25.834 17.8053C24.5583 18.5532 23.4388 19.5075 22.3108 20.4503C21.3503 21.2533 20.407 22.0765 19.4522 22.8874C19.3154 23.0035 19.1607 23.0981 19.0139 23.2026C19.2395 22.6431 19.5016 22.1574 19.96 21.7964C21.1017 20.8994 22.194 19.9359 23.3651 19.0805C24.4337 18.2989 25.5317 17.5539 26.6469 16.8403C26.6362 16.5975 26.614 16.3553 26.581 16.1139C25.4673 16.7372 24.3413 17.3418 23.1946 17.9694C23.1366 17.7802 23.2877 17.7043 23.4123 17.6019C24.2561 16.9113 25.0805 16.197 25.9428 15.5322C26.0933 15.4161 26.2501 15.308 26.4113 15.2055C26.349 14.9433 26.2759 14.6818 26.1928 14.4211C25.5604 14.8409 24.9516 15.2979 24.3284 15.7321C23.9667 15.9835 23.6315 16.2729 23.2841 16.5459C23.2519 16.5165 23.2197 16.4879 23.1874 16.4585C23.2712 16.3338 23.3386 16.1927 23.4417 16.0867C23.9087 15.6045 24.365 15.1095 24.862 14.6611C25.2202 14.338 25.5926 14.0392 25.9801 13.762C25.8848 13.3751 25.9113 13.0112 26.1706 12.6637C25.4143 13.0721 24.7095 13.5557 24.1966 14.3057C24.024 14.5593 23.7905 14.6431 23.3758 14.6532C24.3349 13.5392 25.3462 12.6093 26.5158 11.9094C26.5452 11.6343 26.4843 11.3506 26.3583 11.0612C26.003 10.243 25.7051 9.39196 25.2681 8.6204C25.0418 8.22137 24.5612 7.96991 24.2074 7.63965C23.9467 7.39608 23.7304 7.09734 23.4453 6.89102C23.287 6.77711 22.8959 6.70261 22.8358 6.78141C22.4669 7.26927 22.0192 7.7335 22.4046 8.46852C22.8608 9.33823 22.4046 10.1341 21.3832 10.175C20.0653 10.2287 18.7718 10.1349 17.6759 9.17847C16.5664 8.2099 15.419 7.31656 15.3997 5.65523C15.3825 4.16298 14.5158 3.40217 13.1292 3.11131C12.3363 3.92729 12.3592 4.13719 13.2588 4.80845C13.6155 5.07495 13.9536 5.37727 14.2522 5.70753C14.3604 5.82717 14.3905 6.09367 14.3396 6.25629C14.3045 6.3659 14.051 6.4927 13.9185 6.47121C12.9401 6.3093 11.9502 6.17319 10.9976 5.90812C10.1575 5.67458 9.75922 5.02409 9.45553 4.17373C9.24711 3.59058 8.58171 3.12635 8.0388 2.71872C7.45792 2.28316 6.77175 1.99087 6.1479 1.60903C5.55127 1.24366 5.30917 0.69777 5.43667 0H5.27838C4.83502 0.933465 3.90246 1.72508 4.358 3.01746C5.00692 2.2982 6.07699 2.53533 6.50459 3.38569C6.78106 3.93517 6.809 4.26542 6.10636 4.5921C5.48466 4.88081 4.99474 5.47613 4.48334 5.97403C4.12737 6.32005 3.90604 6.91752 3.49778 7.07728C2.07388 7.63392 1.32182 8.64619 1.02888 10.0926C0.930034 10.5812 0.62921 11.0676 0.667171 11.5354C0.728769 12.2912 0.961549 13.0413 1.20292 13.7677C1.24662 13.8995 1.76518 14.0414 1.90771 13.9454C2.75862 13.3744 3.36026 13.724 3.9612 14.3509C4.37948 14.7871 4.8694 15.1547 5.2927 15.5874C5.4868 15.7851 5.67804 16.0473 5.73176 16.3088C6.18944 18.5353 8.49361 19.2553 10.1138 18.6542C10.416 18.5418 10.9332 18.5203 11.1136 18.6987C11.3364 18.9179 11.3049 19.3914 11.3937 19.7518C11.494 20.1565 11.4789 20.711 11.7404 20.9288C12.3191 21.4109 13.0389 21.7233 13.7724 22.146C13.6929 23.5035 13.2352 23.8782 11.7934 23.7736C10.0615 23.6482 8.32386 23.5988 6.58911 23.5214C6.05837 23.4985 5.80339 23.7385 5.90867 24.288C6.13358 25.4564 5.663 26.4429 5.10433 27.4122C4.15029 29.0664 4.05359 29.206 2.75503 27.8055C2.71922 27.7668 2.67553 27.693 2.64545 27.698C2.31168 27.7539 1.95785 27.774 1.65559 27.9079C1.50518 27.9746 1.31967 28.3177 1.37339 28.4295C1.68424 29.0857 1.38199 29.5671 0.969428 29.9919C-0.109242 31.1045 -0.27756 32.2851 0.413619 33.6986C0.721606 34.3283 1.05251 34.7617 1.68782 35.069C2.98208 35.6952 4.31001 36.2998 5.48036 37.1186C6.53897 37.8601 7.62839 38.2298 8.86749 38.1266C9.49994 38.0743 9.69619 38.4325 9.92826 38.8566C10.1532 39.2693 10.2935 39.6074 9.83873 40.0258C9.30369 40.5194 9.35812 41.5166 9.83658 42.0245C10.4303 42.655 10.1188 44.4295 9.28435 44.6136C8.0567 44.8837 7.75803 45.7326 7.70073 46.742C7.65274 47.5902 7.46866 48.6505 7.87836 49.2544C8.06673 49.5317 8.2902 49.7845 8.53802 50.026C8.54876 49.882 8.55951 49.7387 8.56954 49.5954C8.62111 49.5947 8.67268 49.5933 8.72425 49.5918C8.72425 49.786 8.72353 49.9801 8.72281 50.1735V50.1993C8.99785 50.4508 9.29796 50.6922 9.60809 50.9394C9.63674 49.9199 9.92754 48.9478 10.1331 47.9577C10.1489 47.8804 10.2785 47.8266 10.3551 47.7614C10.4139 47.8574 10.5249 47.9549 10.5213 48.048C10.5077 48.4091 10.4547 48.7687 10.4203 49.129C10.3451 49.9192 10.2971 50.708 10.3043 51.4967C10.4325 51.602 10.56 51.7102 10.6875 51.822C10.5958 52.039 10.4805 52.3127 10.3537 52.6143C10.3845 52.9911 10.4303 53.368 10.4948 53.7448C10.5793 54.2398 10.5571 54.7592 10.5349 55.2657C10.5335 55.2915 10.5328 55.3166 10.5321 55.3423C10.729 55.386 10.964 55.4111 11.2354 55.4204C11.229 55.1733 11.2232 54.9261 11.2175 54.679C11.1896 53.4819 11.1745 52.284 11.1344 51.0877ZM26.2093 10.8806C26.2229 10.9079 26.2365 10.9351 26.2501 10.9623C26.1556 11.0117 26.061 11.0604 25.9665 11.1099C25.9522 11.0819 25.9378 11.0533 25.9242 11.0253C26.0195 10.9773 26.114 10.9286 26.2093 10.8806ZM19.7208 20.7382C19.743 20.7733 19.7659 20.8092 19.7881 20.8443C19.5883 20.994 19.3885 21.1437 19.1235 21.3429C19.2314 20.9589 19.4305 20.7573 19.7208 20.7382ZM19.4558 24.4377C19.4823 24.4628 19.5088 24.4879 19.536 24.5129C19.2051 24.8611 18.8735 25.2086 18.5426 25.5567C18.5182 25.5338 18.4939 25.5109 18.4695 25.4872C18.7983 25.1369 19.127 24.7873 19.4565 24.437L19.4558 24.4377ZM17.0062 29.805C17.032 29.8214 17.0585 29.8379 17.0843 29.8544C17.037 29.9339 16.9905 30.0134 16.9432 30.0922C16.9102 30.0715 16.878 30.05 16.8451 30.0292C16.8988 29.954 16.9525 29.8795 17.0062 29.8042V29.805ZM15.0738 34.6965C15.0895 34.7259 15.1046 34.756 15.1203 34.7853C15.0437 34.8384 14.9671 34.8907 14.8904 34.9437C14.874 34.9207 14.8575 34.8985 14.8417 34.8756C14.9191 34.8162 14.9971 34.756 15.0745 34.6965H15.0738ZM14.0574 36.2246C14.0882 36.2461 14.119 36.2676 14.1498 36.2883C14.0753 36.3987 14.0001 36.509 13.9256 36.6186C13.8991 36.5957 13.8734 36.5735 13.8469 36.5505C13.917 36.4417 13.9872 36.3328 14.0574 36.2239V36.2246ZM11.2777 45.9583C11.3765 44.3385 12.0569 42.8885 12.6214 41.4056C12.6486 41.3339 12.794 41.3081 12.9723 41.2143C12.9071 41.4149 12.8778 41.4987 12.852 41.5839C12.5934 42.4508 12.3191 43.3126 12.0827 44.1852C11.9273 44.7619 11.8299 45.3536 11.701 45.9375C11.6516 46.1603 11.6243 46.4039 11.2977 46.5099C11.2891 46.305 11.2669 46.1302 11.2777 45.9568V45.9583ZM9.40898 46.1918C9.41184 46.0894 9.41399 45.9869 9.41686 45.8838C9.43691 45.8838 9.45625 45.8838 9.47631 45.8838C9.48705 45.9833 9.49708 46.0836 9.50782 46.1832C9.47487 46.1861 9.44264 46.1889 9.40969 46.1911L9.40898 46.1918ZM10.565 46.9283C10.5242 46.9182 10.4834 46.9089 10.4432 46.8989C10.3881 45.8171 10.7262 43.9273 11.0814 43.3262C10.9095 44.5248 10.7376 45.7269 10.5657 46.9283H10.565Z" fill="white"/>
<path d="M40.545 70.1806C40.7707 70.3926 40.9476 70.2429 41.0865 70.1233C41.1897 70.0344 41.2935 69.9463 41.3981 69.8582C41.4325 69.6153 41.464 69.3718 41.4934 69.1289C41.3501 69.2593 41.204 69.3882 41.0564 69.515C40.8452 69.6963 40.5995 69.8689 40.545 70.1806Z" fill="white"/>
<path d="M46.1482 24.6354C46.603 24.5774 46.6696 24.3288 46.4197 23.9455C46.2943 23.7543 46.1432 23.5967 45.9756 23.4648C45.7994 23.4734 45.6225 23.4885 45.4477 23.5085C45.4835 23.5293 45.5186 23.5515 45.5537 23.5737C45.8109 23.7371 46.0279 23.9155 45.9699 24.2794C45.7851 24.4248 45.5774 24.4284 45.3596 24.3618C44.8052 24.192 44.2437 24.0415 43.6936 23.8603C43.4179 23.9155 43.1428 23.9627 42.8678 24.0021C43.5654 24.2063 44.2588 24.4248 44.9643 24.5967C45.341 24.6892 45.76 24.6856 46.1482 24.6354Z" fill="white"/>
<path d="M29.6524 24.7452C28.0881 25.4258 26.6613 26.322 25.39 27.4575C23.7355 28.9347 22.1633 30.4943 20.8304 32.2753C19.723 33.7553 18.6064 35.2311 17.5607 36.7549C16.3903 38.4599 15.2794 40.2065 14.1786 41.9588C13.9121 42.3822 13.7603 42.8865 13.6056 43.3701C12.807 45.8725 12.8292 48.4157 13.3083 50.9653C13.4244 51.5822 13.6521 52.1882 13.9021 52.7678C14.1141 53.2585 14.4959 53.654 15.0101 53.8467C15.3317 53.9663 15.4241 54.1891 15.4205 54.4735C15.4105 55.2716 15.4177 56.0725 15.3496 56.867C15.21 58.5083 15.258 60.1452 15.5652 61.755C15.8002 62.985 16.2177 64.1743 16.727 65.3284C17.4554 66.9797 18.6143 68.2892 19.9064 69.5093C20.6563 70.2178 21.4771 70.7923 22.3538 71.2594C22.4441 71.0853 22.568 70.9084 22.7234 70.7278C21.2859 69.9319 20.0274 68.8817 18.9495 67.5857C18.3228 66.8321 17.7054 66.0541 17.214 65.2116C16.8165 64.531 16.5844 63.7466 16.3316 62.9908C15.7973 61.3961 15.6977 59.7469 15.8438 58.0849C15.9441 56.9401 15.967 55.7989 15.8732 54.6548C15.8417 54.2679 15.8489 53.8918 16.27 53.553C15.9763 53.5071 15.7744 53.4505 15.5724 53.4484C14.8339 53.4426 14.4364 53.0221 14.2545 52.3645C14.1392 51.9461 14.0998 51.5069 13.9916 51.0857C13.4788 49.097 13.5404 47.0868 13.8047 45.0801C13.8906 44.4239 14.1449 43.7842 14.3684 43.153C14.7902 41.9609 15.5559 40.958 16.2005 39.8863C17.1653 38.2801 18.3801 36.8602 19.4752 35.3515C20.4343 34.0297 21.3761 32.6951 22.3531 31.3869C23.0249 30.4864 23.7369 29.616 24.4467 28.7449C24.6515 28.4934 24.8936 28.2635 25.1508 28.0657C26.9736 26.6637 28.8781 25.3993 31.0412 24.569C31.5848 24.3605 32.117 24.1241 32.6506 23.8906C32.753 23.8454 32.8583 23.8025 32.9615 23.7552C32.7365 23.6685 32.5116 23.5818 32.2867 23.4951C32.1163 23.5789 31.9472 23.6656 31.7782 23.7537C31.0863 24.1162 30.3693 24.4329 29.6524 24.7452Z" fill="white"/>
<path d="M45.3783 61.6819C45.6239 60.7986 45.7443 59.8623 45.7901 58.9439C45.861 57.4967 45.8438 56.0439 45.8231 54.5939C45.7973 52.8008 45.3288 51.1058 44.5532 49.4982C44.1635 48.6901 43.6213 47.9758 42.9609 47.3691C42.7604 47.1857 42.4567 47.0237 42.1953 47.0152C41.4403 46.9886 40.9031 46.6247 40.4082 46.1046C39.505 45.1561 38.5066 44.31 37.4394 43.5507C36.1236 42.6143 34.6854 41.9352 33.0989 41.5963C32.8697 41.5476 32.6305 41.5082 32.3984 41.5168C30.7446 41.5791 29.1538 41.8879 27.7213 42.7769C27.351 43.0069 26.9786 43.2333 26.6126 43.4704C26.5152 43.5335 26.4378 43.6295 26.3433 43.7176C26.5481 43.9454 26.7422 43.853 26.9155 43.7677C27.2901 43.5836 27.6604 43.3895 28.0243 43.1846C29.5012 42.3507 31.0877 41.9796 32.7787 42.052C33.6733 42.0906 34.4684 42.4488 35.2548 42.8371C37.1092 43.7534 38.8189 44.8688 40.2199 46.4141C40.3051 46.5079 40.4075 46.5939 40.4684 46.7021C40.7685 47.2358 41.1481 47.5295 41.8264 47.4307C42.1007 47.3905 42.4359 47.6198 42.7102 47.7817C42.9072 47.8977 43.0791 48.0854 43.2109 48.2767C44.248 49.7726 45.0753 51.3572 45.2429 53.2127C45.3138 53.9914 45.4606 54.7701 45.452 55.5474C45.4384 56.7782 45.331 58.009 45.2472 59.2383C45.2171 59.6904 45.1441 60.1388 45.0868 60.5887C44.9127 61.952 44.4006 63.1985 43.6428 64.324C43.3234 64.7983 42.9953 65.2668 42.6572 65.7296C42.7883 65.842 43.0232 65.8564 43.2503 65.8578C43.2761 65.8241 43.3011 65.7898 43.3255 65.7561C44.2265 64.511 44.9657 63.1634 45.3783 61.6819Z" fill="white"/>
<path d="M37.5833 73.8744C37.5798 73.9718 37.5833 74.0685 37.5962 74.1638C37.6063 74.2426 37.627 74.3243 37.6557 74.4052C38.5095 74.1187 39.3532 73.7999 40.184 73.4531C40.3058 73.4023 40.4254 73.35 40.5443 73.2948C40.6783 73.0742 40.7914 72.8399 40.8817 72.5913C40.106 73.034 39.288 73.4016 38.4063 73.6559C38.1341 73.7347 37.8584 73.8042 37.5833 73.8744Z" fill="white"/>
<path d="M67.8527 85.3273C67.1938 82.6774 66.8829 80.0016 67.2704 77.2672C67.3528 76.6833 67.183 76.0658 67.1494 75.4625C66.9839 72.4408 66.8536 69.4162 66.0657 66.4675C65.9597 66.0706 66.1065 65.6056 65.9976 65.2109C65.7634 64.3606 65.5958 63.43 65.1195 62.7214C63.831 60.8058 63.6068 58.6638 63.5201 56.4752C63.4994 55.9501 63.7099 55.4192 63.768 54.8862C63.8059 54.5309 63.8589 54.129 63.7386 53.8123C63.0496 52.0013 62.6048 50.1465 62.5145 48.2072C62.4902 47.6836 62.256 47.392 61.6414 47.503C61.3578 47.5546 61.0391 47.4113 60.5456 47.3218C60.3421 47.498 59.9052 47.7738 59.6094 48.1578C59.2878 48.5762 58.9978 48.6442 58.7098 48.5153C58.6847 48.5891 58.6382 48.66 58.558 48.7259C58.5107 48.6385 58.4577 48.4917 58.4033 48.3111C58.351 48.2667 58.2987 48.2173 58.2457 48.1643C58.0265 47.9443 57.8253 47.7065 57.4034 47.4873C57.4034 48.0797 57.3883 48.6729 57.4077 49.2654C57.4256 49.8105 57.614 50.3915 57.4786 50.8887C57.3568 51.3343 56.9758 51.8286 56.5711 52.0557C56.1328 52.3022 55.7632 52.6324 55.4803 53.015C55.5633 53.346 55.6278 53.6812 55.5906 54.0323C55.5311 53.98 55.496 53.9219 55.4767 53.8596C55.4179 53.6683 55.3592 53.4763 55.2998 53.2851C54.8313 54.0652 54.6981 55.0137 55.0219 55.9099C55.6586 57.6723 55.4301 58.2647 53.7527 59.2032C52.4498 59.9325 52.0014 59.8838 51.5072 58.6967C51.4621 58.9654 51.417 59.234 51.3733 59.5027C51.3246 59.805 51.306 60.1138 51.2351 60.4103C51.0975 60.9899 50.9521 61.5695 50.7738 62.1376C50.6964 62.3854 50.6076 62.6297 50.5138 62.8726C52.3918 64.9931 54.0628 67.1574 54.6473 69.9893C54.769 70.5774 54.9438 71.1627 55.1658 71.7208C56.0282 73.8872 56.9923 76.0264 56.7086 78.4549C56.7029 78.5022 56.7358 78.5538 56.7537 78.6147C56.9478 78.5796 57.1427 78.5438 57.3647 78.5037C57.402 78.6426 57.455 78.7429 57.4471 78.8382C57.437 78.9636 57.379 79.0846 57.3404 79.2114C56.4322 78.778 56.016 78.8153 55.9859 79.4185C55.9279 80.5912 56.006 81.7761 56.117 82.9482C56.155 83.3429 56.4773 83.4926 56.9521 83.262C57.7458 82.8765 57.8947 82.2189 57.9764 81.4516C58.0229 81.0082 58.2027 80.579 58.323 80.1428C58.4706 80.1807 58.6174 80.2194 58.765 80.2574C58.5214 81.2245 58.4899 82.3306 57.9742 83.1208C57.455 83.9175 57.6569 84.4089 58.0666 84.9835C58.6282 85.7693 58.8409 86.6147 58.8366 87.5761C58.8344 88.0403 59.0221 88.549 59.2549 88.9637C60.3851 90.9761 61.5591 92.9641 62.7179 94.9614H63.1928C62.9328 94.2192 62.5281 93.4942 62.4415 92.7327C62.1929 90.5305 61.1852 88.4587 61.3793 86.1827C61.491 84.8695 62.4014 84.2312 63.3726 83.618C63.4557 83.5657 63.5739 83.5507 63.6756 83.5507C64.2235 83.5507 66.0141 84.8258 66.2354 85.3502C66.4474 85.8532 66.6766 86.3482 66.8915 86.8318C68.1213 86.5051 68.1292 86.4392 67.8527 85.3273ZM51.3826 63.6721C51.3468 63.6463 51.311 63.6205 51.2759 63.5954C51.374 63.4364 51.4729 63.2774 51.571 63.1183C51.6125 63.1463 51.6533 63.1742 51.6949 63.2021C51.591 63.359 51.4865 63.5159 51.3826 63.6728V63.6721ZM52.3259 61.5931C52.2951 61.5895 52.265 61.5859 52.2349 61.5824C52.25 61.5036 52.265 61.4255 52.2801 61.3467C52.2972 61.3495 52.3144 61.3524 52.3323 61.3553L52.3266 61.5931H52.3259Z" fill="white"/>
<path d="M29.0156 77.1352C29.1123 77.3645 29.343 77.5264 29.7455 77.7305C29.7455 77.7305 29.746 77.7305 29.7469 77.7305C29.7469 77.7305 29.7476 77.7313 29.7483 77.7305H29.7491C30.683 77.7184 31.6163 77.6431 32.5474 77.55C32.695 77.3666 32.8196 77.1467 32.9185 76.8931C31.617 77.0679 30.3163 77.1488 29.0156 77.1352Z" fill="white"/>
<path d="M33.9205 74.105C33.9785 73.9574 34.0358 73.8084 34.0924 73.6587C34.0207 73.678 33.9484 73.6952 33.8753 73.7103C33.0603 73.8793 32.2215 73.9639 31.3893 74.014C30.0391 74.0957 28.6854 74.1251 27.3417 73.9904C27.3697 74.1745 27.3969 74.3586 27.4456 74.537C27.7672 74.5599 28.0895 74.575 28.4132 74.5857C30.2776 74.6473 32.1119 74.4632 33.9205 74.105Z" fill="white"/>
<path d="M56.4823 40.5844C56.3777 39.8945 56.2244 39.2154 55.9816 38.552C55.5963 37.5018 55.2403 36.4386 54.9223 35.3662C54.5856 34.2286 54.148 33.1339 53.575 32.103C53.012 31.0886 52.3674 30.1193 51.7672 29.1249C51.1125 28.0382 50.2674 27.1133 49.3198 26.2852C48.9115 25.9291 48.446 25.6368 47.994 25.3352C47.8436 25.2342 47.6588 25.1024 47.4339 25.3087C47.4855 25.3889 47.5177 25.4756 47.5793 25.5265C47.8859 25.7822 48.2175 26.0101 48.5104 26.2801C50.7086 28.3047 52.4276 30.6752 53.5141 33.4656C54.1143 35.0066 54.6107 36.5876 55.1414 38.1544C55.2288 38.4109 55.2489 38.6881 55.3112 38.9532C55.4373 39.4898 55.5103 40.0378 55.5898 40.5844C55.7023 40.5966 55.8161 40.6138 55.9307 40.6382C56.1471 40.684 56.3326 40.6632 56.4823 40.5844Z" fill="white"/>
<path d="M49.2524 61.444C49.5117 60.6345 49.7402 59.8114 49.9228 58.9818C50.1978 57.7309 50.1248 56.4572 50.0453 55.1928C50.0439 55.1734 50.0431 55.1548 50.0417 55.1354C49.8863 54.9614 49.7151 54.7887 49.5597 54.5981C49.4673 54.6884 49.3885 54.7794 49.3219 54.8697C49.3326 55.0337 49.3477 55.1978 49.3742 55.359C49.5496 56.4257 49.5733 57.4788 49.3312 58.5476C49.0504 59.7863 48.8936 61.0493 48.3714 62.2292C47.807 63.5073 47.138 64.7151 46.2907 65.8126C46.815 65.7259 47.2469 65.4315 47.4389 64.5869C47.4582 64.4995 47.5714 64.4242 47.6559 64.3626C47.7884 64.2652 47.9209 64.1685 48.0541 64.0711C48.2188 63.7874 48.3793 63.5001 48.5354 63.2107C48.8363 62.654 49.059 62.048 49.2524 61.444Z" fill="white"/>
<path d="M101.32 84.711H96.96L98.24 77.351C98.08 77.2176 97.9067 77.151 97.72 77.151H97.44C97.1733 77.151 96.92 77.2576 96.68 77.471C96.4667 77.6576 96.3333 77.8976 96.28 78.191L95.8 80.871H91.88L92.2 79.231C92.12 78.7776 91.92 78.4176 91.6 78.151C91.28 77.8576 90.9067 77.6976 90.48 77.671C89.2533 77.671 88.4533 78.231 88.08 79.351C88.08 79.7243 88.1867 80.031 88.4 80.271C88.64 80.511 88.9333 80.631 89.28 80.631H90.56L89.84 84.711H88.32C86.96 84.6843 85.8667 84.151 85.04 83.111C84.4 82.2843 84.08 81.3376 84.08 80.271C84.08 79.9776 84.1067 79.6843 84.16 79.391C84.4267 77.5776 85.16 76.151 86.36 75.111C87.4533 74.151 88.7333 73.6443 90.2 73.591C91.64 73.591 92.84 73.9776 93.8 74.751C94.7867 73.6843 96.0267 73.1243 97.52 73.071C98.0267 73.071 98.44 73.111 98.76 73.191C98.5733 72.551 98.16 72.0443 97.52 71.671L91.32 68.071L92 64.391L99.96 61.071H87.36L88.08 57.031H106.2L101.32 84.711ZM99.76 68.471L99.8 68.311H99.84L100.48 64.871L96.16 66.431L99.76 68.471ZM108.913 78.711H104.553L108.353 57.031H112.713L108.913 78.711ZM121.517 78.871C118.877 78.871 116.65 77.871 114.837 75.871C113.45 74.191 112.757 72.3243 112.757 70.271C112.757 69.8176 112.797 69.351 112.877 68.871L113.877 63.191H118.277C117.504 67.6176 117.117 69.9643 117.117 70.231C117.117 71.271 117.464 72.2043 118.157 73.031C119.09 74.0443 120.197 74.551 121.477 74.551C123.317 74.551 124.677 73.591 125.557 71.671H119.557L121.597 61.071H114.237L114.877 57.071H132.557L131.877 61.071H126.037L124.837 67.311H128.837L130.477 69.271L130.037 71.551C129.69 73.4176 128.877 75.0043 127.597 76.311C126.317 77.6176 124.744 78.4443 122.877 78.791C122.397 78.8443 121.944 78.871 121.517 78.871ZM157.534 78.751H153.134L154.894 68.631C154.868 68.3376 154.748 68.0976 154.534 67.911C154.348 67.7243 154.121 67.631 153.854 67.631H153.574C153.254 67.631 152.961 67.7376 152.694 67.951C152.454 68.1643 152.308 68.431 152.254 68.751L151.774 71.591H147.334L147.654 69.791C147.548 69.3376 147.308 68.9643 146.934 68.671C146.588 68.351 146.174 68.191 145.694 68.191H145.334C144.774 68.191 144.268 68.3776 143.814 68.751C143.388 69.1243 143.108 69.6043 142.974 70.191L142.774 71.511C142.774 71.8576 142.894 72.1776 143.134 72.471C143.374 72.7376 143.708 72.871 144.134 72.871H145.614L144.854 77.231H143.134C141.614 77.231 140.388 76.6576 139.454 75.511C138.681 74.6043 138.294 73.551 138.294 72.351L138.334 71.511L138.694 69.431C139.014 67.8043 139.788 66.471 141.014 65.431C142.268 64.391 143.708 63.871 145.334 63.871H145.694C147.108 63.871 148.361 64.271 149.454 65.071C150.574 63.871 151.948 63.271 153.574 63.271C154.428 63.271 155.161 63.391 155.774 63.631L156.214 61.071H140.094L140.814 57.031H161.374C160.868 59.7243 159.588 66.9643 157.534 78.751ZM164.109 78.711H159.749L163.549 57.031H167.909L164.109 78.711ZM182.952 78.711H178.632L180.032 70.711H179.992L180.112 69.511C180.299 68.4976 180.392 67.5776 180.392 66.751C180.392 66.0576 180.286 65.2576 180.072 64.351C179.859 63.4176 179.526 62.631 179.072 61.991C178.646 61.351 178.379 61.0043 178.272 60.951C177.579 60.2576 176.686 59.911 175.592 59.911C175.032 59.911 174.539 60.0176 174.112 60.231C175.312 60.6843 176.286 61.431 177.032 62.471C177.806 63.511 178.192 64.6976 178.192 66.031C178.192 67.7376 177.579 69.2043 176.352 70.431C175.152 71.631 173.699 72.231 171.992 72.231C171.646 72.231 171.312 72.2043 170.992 72.151L171.712 67.871L171.992 67.911C172.206 67.911 172.419 67.871 172.632 67.791C173.459 67.4443 173.872 66.8576 173.872 66.031C173.872 65.471 173.632 65.0043 173.152 64.631C172.832 64.3376 172.446 64.191 171.992 64.191C171.566 64.191 171.192 64.3243 170.872 64.591L169.112 62.511L169.872 58.071C170.699 57.191 171.726 56.4976 172.952 55.991C173.726 55.6976 174.566 55.551 175.472 55.551C176.032 55.551 176.619 55.6043 177.232 55.711C179.232 56.1376 180.859 57.151 182.112 58.751L182.392 57.031H186.752L182.952 78.711ZM191.42 80.991C190.22 80.5376 189.167 79.791 188.26 78.751C187.007 77.231 186.38 75.5243 186.38 73.631C186.38 73.2043 186.407 72.7776 186.46 72.351L188.9 57.031H193.3C191.567 67.8843 190.7 73.4176 190.7 73.631C190.7 74.4843 190.98 75.2576 191.54 75.951C191.754 76.1643 191.98 76.3643 192.22 76.551L191.42 80.991ZM204.469 78.751H200.069L200.109 78.271C200.109 77.2576 199.683 76.4443 198.829 75.831L192.629 71.751L193.389 67.511L200.069 61.071H194.509L195.189 57.031H208.269C206.989 64.2576 205.723 71.4976 204.469 78.751ZM201.189 72.231L202.549 64.471L197.549 69.831L201.189 72.231Z" fill="white"/>
</svg>
