<svg width="95" height="132" viewBox="0 0 95 132" fill="none" xmlns="http://www.w3.org/2000/svg">
<path d="M43.4096 69.2465C41.2083 69.4586 39.2051 70.2304 37.5504 71.6793C36.495 72.6034 35.5661 73.6968 34.7049 74.8111C33.7581 76.038 33.4564 77.5477 33.1776 79.0503C32.8053 81.0599 32.9148 83.0237 33.5968 84.9506C33.7322 85.331 33.8626 85.7213 34.0627 86.0679C35.0325 87.7478 36.2909 89.1978 37.7734 90.4356C38.2274 90.814 38.8188 91.051 39.3773 91.275C40.7553 91.8277 42.166 92.1444 43.6674 91.7939C44.2797 91.6505 44.9179 91.6216 45.5422 91.524C46.3934 91.3906 47.1292 91.0072 47.7256 90.3907C49.0079 89.0653 50.2514 87.71 51.2908 86.1744C51.5816 85.7442 51.8275 85.3031 51.9937 84.8361C51.7618 84.8161 51.5298 84.8012 51.3018 84.7873C51.0041 85.6277 50.5989 86.4294 50.0513 87.1553C49.1652 88.3324 48.1208 89.3621 46.939 90.2414C46.6005 90.4933 46.2062 90.7234 45.802 90.8269C44.3773 91.1924 42.9187 91.4045 41.4512 91.1984C39.9229 90.9833 38.5579 90.3858 37.3801 89.3402C35.0733 87.2908 33.8785 84.7474 33.8417 81.6654C33.8318 80.7821 33.8537 79.8978 33.8825 79.0145C33.9313 77.47 34.4441 76.0987 35.4825 74.9416C36.4602 73.8512 37.4309 72.7538 38.4414 71.6942C38.7083 71.4144 39.0926 71.2182 39.457 71.0649C40.2256 70.7432 41.0101 70.4574 41.8006 70.1915C42.2775 70.0312 42.7764 69.9376 43.2642 69.8121C43.546 69.7404 43.8735 69.7374 43.999 69.2883C43.7789 69.2714 43.5918 69.2286 43.4096 69.2465Z" fill="white"/>
<path d="M31.2636 71.691C29.4018 73.7345 28.4759 76.1364 28.3494 78.9098C28.2479 81.1394 28.5496 83.2695 29.1629 85.4115C29.8429 87.7885 31.1173 89.7791 32.6834 91.6194C33.443 92.5127 34.4187 93.152 35.4412 93.7196C35.8823 93.9636 36.2935 94.2613 36.7186 94.5342C36.9864 94.7055 37.2353 94.9425 37.6385 94.804C37.4772 94.2235 36.9525 94.0612 36.5553 93.8092C33.8273 92.0715 31.62 89.8708 30.3725 86.8385C29.8737 85.6246 29.3789 84.3848 29.1101 83.1081C28.7507 81.4033 28.7487 79.6576 28.9667 77.905C29.1878 76.1344 29.9175 74.6237 30.9878 73.2455C31.7306 72.2895 32.4593 71.3186 33.2608 70.4134C34.6288 68.8669 36.394 67.883 38.2508 67.0436C39.3092 66.5656 40.3585 66.0657 41.4109 65.5717C41.4965 65.5309 41.5672 65.4582 41.6439 65.4005C41.6289 65.3317 41.614 65.264 41.5991 65.1953C41.3183 65.2381 41.0266 65.2471 40.7578 65.3278C38.0039 66.1563 35.5328 67.5016 33.4131 69.4505C32.6525 70.1495 31.9605 70.9263 31.2636 71.691Z" fill="white"/>
<path d="M58.8683 79.6886C58.6652 78.0863 58.5647 76.4671 58.0639 74.9127C57.573 73.389 56.8771 71.969 55.9791 70.6475C54.7813 68.8869 53.4542 67.2399 51.8433 65.8308C50.2125 64.4047 48.3925 63.2795 46.4251 62.4012C45.8357 62.1373 45.1657 62.0536 44.5305 61.8983C44.4747 61.8853 44.3991 61.955 44.1621 62.0666C44.4498 62.2528 44.6191 62.3892 44.8093 62.4808C45.8537 62.9837 46.8931 63.4995 47.9554 63.9646C49.7893 64.7672 51.3116 65.9891 52.7572 67.3454C54.4876 68.9686 55.6804 70.9513 56.681 73.0604C57.0025 73.7386 57.1808 74.4884 57.3928 75.2144C58.0768 77.5526 58.5288 79.9326 58.4681 82.3793C58.4293 83.9517 58.253 85.5012 57.4048 86.9003C57.0902 87.4182 56.8184 87.9639 56.5485 88.5096C56.675 88.6789 56.8074 88.8442 56.9438 89.0065C58.0181 87.4839 58.8813 85.8707 59.0226 83.9189C59.1252 82.4978 59.0475 81.0937 58.8683 79.6886Z" fill="white"/>
<path d="M39.959 63.2814C40.176 63.4238 40.2487 63.5055 40.3323 63.5164C40.4528 63.5344 40.5882 63.5234 40.7057 63.4866C41.9602 63.1032 42.9319 63.5612 43.7234 64.5123C44.0689 64.9255 44.5259 65.1117 45.0107 65.2651C45.4199 65.3955 45.8381 65.5011 46.2433 65.6415C48.4038 66.3934 50.2248 67.5296 51.6794 69.0771C51.8426 69.0492 52.0069 69.0213 52.1772 68.9934C52.1134 69.1588 52.0537 69.3012 51.993 69.4226C52.3843 69.8698 52.7467 70.3498 53.0792 70.8626C53.2723 70.8038 53.4645 70.7461 53.6556 70.6883C52.663 69.2484 51.5081 67.9528 50.0535 66.9201C48.9155 66.1115 47.7308 65.4145 46.3638 65.0351C45.2626 64.7303 44.2302 64.2215 43.359 63.4706C42.3126 62.5714 41.2383 62.7606 39.959 63.2814Z" fill="white"/>
<path d="M47.9034 67.9527C45.7787 66.6801 43.5286 66.4889 41.2049 67.2975C38.916 68.0931 36.7714 69.1756 35.0739 70.9491C33.7577 72.3244 32.7023 73.8978 31.9477 75.6594C31.8381 75.9143 31.7087 76.1613 31.5872 76.4122C30.5418 78.5512 30.5299 80.7958 30.9102 83.0812C31.3344 85.6345 32.556 87.7765 34.2804 89.6676C35.1486 90.6206 36.0108 91.5686 37.1039 92.2866C38.7815 93.389 40.5846 94.106 42.5928 94.2902C43.5386 94.3768 44.4605 94.2932 45.3586 93.9795C45.8116 93.8202 46.2656 93.6638 46.7156 93.4945C47.8167 93.0783 48.8163 92.4997 49.6288 91.6323C50.0579 91.1753 50.5009 90.7281 50.933 90.272C50.8434 90.1067 50.7578 89.9484 50.6732 89.7941C49.6656 91.0846 48.4061 92.0864 46.9217 92.8203C44.8478 93.847 42.6396 94.0313 40.5159 93.2436C38.1872 92.3802 36.1133 91.0179 34.4357 89.1089C32.9562 87.427 32.0074 85.517 31.6798 83.3043C31.5554 82.4549 31.4698 81.5994 31.3772 80.746C31.2388 79.4594 31.4817 78.2425 31.9755 77.0485C32.6207 75.4921 33.5426 74.1079 34.5591 72.7864C35.2023 71.9509 35.8236 71.0298 36.6549 70.4204C38.4759 69.085 40.487 68.0593 42.758 67.6818C43.911 67.4897 45.0509 67.4548 46.1959 67.8511C48.3623 68.602 49.9374 70.1117 51.3472 71.8135C51.4637 71.9549 51.5772 72.1013 51.6827 72.2547C51.7245 72.0764 51.7693 71.8753 51.8191 71.6492C51.1132 70.6245 50.2301 69.7362 49.2454 68.9316C48.8163 68.5821 48.3763 68.2355 47.9034 67.9527Z" fill="white"/>
<path d="M57.8559 94.2674C57.839 94.0304 57.7613 93.7705 57.6468 93.5325C57.4985 93.7207 57.3481 93.9069 57.1968 94.0931C56.1793 95.3459 54.9965 96.3616 53.6912 97.1901C53.6444 97.5446 53.5797 97.8962 53.4961 98.2447C53.9033 97.9928 54.2876 97.7 54.652 97.3753C55.7671 96.3825 56.8463 95.3558 57.8559 94.2674Z" fill="white"/>
<path d="M54.6659 80.5221C54.6231 78.89 54.3872 77.3106 53.6653 75.8139C53.3169 75.0919 53.1436 74.2873 52.842 73.5394C52.6369 73.0336 52.3939 72.5566 52.1172 72.1055C52.0773 72.2628 52.0574 72.4381 52.0554 72.6303C52.0544 72.7209 52.0544 72.8125 52.0554 72.9041C52.2098 73.2397 52.3113 73.6022 52.3302 73.9926C52.3382 74.1708 52.3601 74.3819 52.2685 74.5144C52.4218 75.0491 52.5532 75.5829 52.6538 76.1186C53.4344 76.6723 53.8147 77.469 53.8625 78.4618C53.9312 79.9067 53.9561 81.3606 53.8993 82.8066C54.0865 83.1113 54.2757 83.415 54.4439 83.7217C54.6291 82.6881 54.6948 81.6185 54.6659 80.5221Z" fill="white"/>
<path d="M52.8828 92.2579C53.1357 91.9472 53.3696 91.6126 53.5827 91.2531C53.956 90.6218 54.2617 89.9506 54.5783 89.2844C54.4439 89.0026 54.3214 88.7128 54.2119 88.416C53.9252 89.0802 53.6275 89.7405 53.3348 90.4037C53.0968 90.9424 52.7882 91.4164 52.4258 91.8396C52.612 91.9781 52.7603 92.1135 52.8828 92.2579Z" fill="white"/>
<path d="M51.1396 56.3854C52.7863 56.9032 54.217 57.7596 55.3869 59.0432C55.6278 59.3071 55.9225 59.5222 56.2431 59.806C56.4163 59.3619 56.1834 59.1727 56.033 58.9586C54.8801 57.3165 53.2821 56.3196 51.3875 55.752C51.1246 55.6734 50.8628 55.528 50.582 55.8197C50.6009 56.2121 50.8757 56.3017 51.1396 56.3854Z" fill="white"/>
<path d="M75.4613 52.7714C75.0979 51.437 74.7733 50.0827 74.2775 48.7971C73.6791 47.2466 72.9603 45.7389 72.2176 44.2502C70.6116 41.0267 67.8986 38.9265 64.861 37.1888C63.9888 36.6899 63.04 36.3265 62.1688 35.8275C60.5589 34.9084 58.8375 34.3677 57.0006 34.2223C54.6042 34.0321 52.2087 34.1585 49.8133 34.3119C46.1175 34.5479 42.7324 35.6911 39.667 37.7525C38.3249 38.6547 37.0256 39.6226 35.7373 40.6005C35.1359 41.0556 34.5993 41.5973 34.0507 42.1191C33.9571 42.2078 33.9501 42.39 33.9023 42.5284C33.9501 42.5643 33.9979 42.6001 34.0457 42.636C34.2847 42.4737 34.5425 42.3342 34.7596 42.146C35.1021 41.8483 35.4137 41.5147 35.7432 41.202C37.3183 39.7063 39.194 38.6457 41.0628 37.5882C41.9379 37.0932 42.8798 36.7088 43.8127 36.3274C44.4897 36.0506 45.2115 35.8873 45.8955 35.6244C47.0893 35.1653 48.3198 34.9393 49.5952 34.8974C51.3624 34.8387 53.1286 34.6724 54.8929 34.6883C57.2983 34.7102 59.6141 35.2699 61.7457 36.3892C63.4382 37.2775 65.1139 38.2026 66.6839 39.3199C68.3128 40.479 69.7395 41.8084 70.8147 43.4904C71.3175 44.2751 71.7267 45.1186 72.1986 45.9232C73.1714 47.5782 73.7289 49.3866 74.1779 51.2339C74.5363 52.7067 74.7872 54.2104 75.2124 55.6633C75.299 55.96 75.3816 56.2568 75.4613 56.5546C75.7839 56.4759 76.1104 56.4211 76.4419 56.4002C76.1194 55.1893 75.7908 53.9804 75.4613 52.7714Z" fill="white"/>
<path d="M71.9809 55.0848C71.8684 54.4903 71.7389 53.8898 71.5279 53.3252C70.7941 51.3605 69.9598 49.4435 68.9582 47.5933C66.8106 43.6259 63.8845 40.4981 59.6562 38.7325C57.7774 37.9488 55.8549 37.3722 53.7741 37.5474C51.1098 37.7725 48.5282 38.3282 46.0481 39.3339C45.5553 39.5331 45.0654 39.7422 44.5617 39.9065C43.1698 40.3626 41.9551 41.1125 40.8271 42.0336C40.2407 42.5116 39.6274 42.9627 38.9942 43.377C36.3857 45.0838 33.9633 47.0237 31.6466 49.1059C29.7579 50.8048 28.2107 52.7934 26.6645 54.7871C25.2677 56.5875 23.8997 58.4139 23.152 60.5997C22.7607 61.7439 22.4192 62.912 22.1554 64.092C21.9642 64.9534 21.9851 65.8506 22.2101 66.721C22.4272 67.5575 22.7896 67.7158 23.5134 67.2577C24.3119 66.7529 24.9749 66.0887 25.4777 65.291C26.3389 63.9247 27.1563 62.5306 28.0066 61.1573C29.5568 58.6539 31.4942 56.4391 33.4655 54.2852C35.1302 52.4668 37.0488 50.8665 38.9534 49.2902C40.626 47.906 42.4221 46.6701 44.1923 45.4084C44.8474 44.9414 45.5603 44.5381 46.29 44.1985C47.2578 43.7484 48.0184 44.0472 48.4903 45.0061C48.6785 45.3875 48.789 45.8108 48.9105 46.222C49.034 46.6353 49.256 46.94 49.6741 47.0964C50.2645 47.3164 50.832 47.661 51.4404 47.7586C52.419 47.9149 53.2673 48.2993 54.0797 48.8271C55.3501 49.6506 56.6882 50.3826 57.8929 51.2918C60.0544 52.9239 62.1123 54.6805 63.4684 57.1024C63.6177 57.3682 63.8666 57.5794 64.0468 57.7885C64.4112 57.6411 64.3794 57.432 64.2868 57.2448C64.1414 56.951 63.9781 56.6642 63.7949 56.3933C62.7595 54.8548 61.4901 53.5124 60.1948 52.1989C59.8433 51.8424 59.4312 51.5347 59.008 51.2649C57.3055 50.1764 55.597 49.098 53.8736 48.0434C53.1409 47.5943 52.3683 47.2248 51.4812 47.1432C50.9475 47.0944 50.4557 46.9022 50.0744 46.478C49.3426 45.6654 48.6646 44.8249 48.2992 43.7703C48.1956 43.4716 48.0224 43.1977 47.894 42.9398C47.0268 42.9448 46.4016 43.3491 45.8032 43.7624C44.3476 44.7681 42.9129 45.8048 41.4782 46.8394C40.1262 47.8143 38.6905 48.6996 37.458 49.809C35.413 51.6502 33.4974 53.6349 31.537 55.5698C31.2145 55.8875 30.9108 56.235 30.6549 56.6084C29.269 58.627 27.8841 60.6475 26.5321 62.6889C25.7764 63.8281 25.0426 64.9753 24.0062 65.8915C23.7135 66.1494 23.4118 66.3446 23.0016 66.3525C22.699 66.0339 22.7179 65.6505 22.7119 65.2751C22.6791 63.2466 23.3162 61.3804 24.2242 59.6188C25.2935 57.5455 26.6824 55.6704 28.2824 53.9765C29.965 52.196 31.7172 50.4812 33.4446 48.7444C35.2457 46.9311 37.1155 45.1973 39.2361 43.7514C41.54 42.181 43.9026 40.7191 46.5549 39.801C47.5814 39.4455 48.6496 39.2065 49.6642 38.8201C52.1831 37.8621 54.7587 38.0633 57.2896 38.5602C59.5476 39.0033 61.5289 40.1714 63.3001 41.6492C65.2804 43.3013 66.8435 45.3128 68.2015 47.4897C68.7123 48.3073 69.0707 49.1876 69.3425 50.1217C69.7238 51.4302 70.1868 52.7178 70.6696 53.9934C71.1376 55.2332 71.5179 56.4919 71.8036 57.7785C72.0227 57.7417 72.2397 57.6909 72.4558 57.6292C72.2985 56.7807 72.1412 55.9323 71.9809 55.0848Z" fill="white"/>
<path d="M74.5016 56.8544C74.2865 55.98 74.0615 55.1077 73.8097 54.2433C73.3228 52.5763 72.7543 50.9332 72.2724 49.2652C71.9309 48.0881 71.4023 47.0087 70.769 45.972C69.5076 43.9107 67.9206 42.1122 66.245 40.3875C65.2494 39.3628 64.1631 38.4267 62.8778 37.8133C60.565 36.7099 58.1616 35.8644 55.567 35.7031C52.6817 35.5239 49.8761 35.8724 47.1302 36.7995C45.135 37.4727 43.2493 38.3869 41.3257 39.2253C39.9289 39.8348 38.7481 40.6842 37.64 41.7029C35.9086 43.2963 34.1036 44.798 32.0187 45.9352C31.4493 46.2459 30.9126 46.6601 30.4487 47.1162C28.6317 48.9027 26.8455 50.7131 25.4616 52.884C24.5397 54.3309 23.4853 55.6932 22.5425 57.1272C21.282 59.0432 20.6897 61.2151 20.3153 63.4447C20.0077 65.281 20.1988 67.1252 20.373 68.9625C20.4089 69.339 20.4368 69.7214 20.5254 70.0858C20.6369 70.5429 20.8151 70.6534 21.2422 70.4722C21.7022 70.277 22.1253 69.9942 22.5594 69.7413C23.0801 69.4385 23.56 69.0163 24.1195 68.84C25.4527 68.4188 26.3776 67.5395 27.1601 66.4511C28.545 64.5252 29.914 62.5873 31.3139 60.6733C33.6735 57.4469 36.2053 54.3797 39.1663 51.6631C41.2839 49.7193 43.6475 48.2266 46.255 47.0764C46.498 46.9688 46.7299 46.8384 47.1441 46.6293C46.8255 46.5018 46.6802 46.3873 46.5567 46.4062C46.26 46.452 45.9623 46.5377 45.6826 46.6482C42.4329 47.9358 39.5755 49.7771 37.3403 52.5156C36.4144 53.6508 35.4297 54.7372 34.4829 55.8555C33.3409 57.2039 32.1492 58.5154 31.0918 59.9275C29.7318 61.7428 28.5042 63.6578 27.1811 65.5011C26.4294 66.5477 25.6349 67.5704 24.465 68.2097C23.6237 68.6708 22.7934 69.1547 21.9531 69.6188C21.739 69.7373 21.5041 69.8199 21.1526 69.9753C21.0381 69.5371 20.9286 69.2294 20.8808 68.9127C20.7942 68.3382 20.7285 67.7596 20.6817 67.18C20.5035 64.9793 20.7474 62.8392 21.6693 60.8088C22.0974 59.8657 22.5594 58.9386 22.9875 57.9956C23.5441 56.7717 24.2141 55.6096 25.0604 54.5709C26.3039 53.0463 27.637 51.5964 28.8766 50.0698C29.7428 49.0053 30.6856 48.0324 31.739 47.1581C33.1209 46.0119 34.465 44.8189 35.8847 43.7235C37.5036 42.4737 39.0976 41.1503 40.8658 40.1495C42.8351 39.0341 44.9876 38.2445 47.0615 37.3134C47.0844 37.3034 47.1083 37.2954 47.1322 37.2885C48.7321 36.8204 50.3181 36.2956 52.0186 36.3126C52.624 36.3195 53.2283 36.2279 53.8346 36.2C55.5889 36.1194 57.3093 36.2986 58.9959 36.8264C60.2115 37.2068 61.3406 37.7525 62.4099 38.4376C64.0228 39.4723 65.6038 40.5408 66.8901 41.9937C68.967 44.3369 70.4027 47.0525 71.5247 49.9444C71.9439 51.0268 72.2605 52.1491 72.605 53.2584C72.8827 54.1497 73.1824 55.038 73.3815 55.9472C73.4731 56.3664 73.5528 56.7886 73.6265 57.2119C73.6892 57.186 73.7519 57.1591 73.8146 57.1322C74.0436 57.0336 74.2726 56.94 74.5016 56.8544Z" fill="white"/>
<path d="M61.9587 56.923C61.5126 56.1841 61.0317 55.486 60.3766 54.9045C58.923 53.6149 57.5172 52.2636 55.8307 51.2727C55.1367 50.8654 54.392 50.5448 53.6662 50.1942C52.3858 49.5768 51.0188 49.2094 49.6469 48.8837C49.1232 48.7593 48.5119 48.6925 48.0101 48.8389C45.2821 49.6366 42.6437 50.6553 40.3907 52.4597C39.1989 53.4147 38.2471 54.5988 37.3242 55.8027C36.915 56.3355 36.4231 56.7477 35.8517 57.0883C35.5639 57.2606 35.3101 57.4906 34.9277 57.7804C35.4464 57.9895 35.7551 57.8511 36.0508 57.6758C37.0613 57.0764 37.9375 56.3355 38.6006 55.3446C39.9576 53.3181 41.902 51.9618 43.943 50.722C45.7311 50.2849 47.5123 49.8178 49.3114 49.4354C49.7265 49.3468 50.2343 49.4693 50.6445 49.6326C51.9547 50.1544 53.3247 50.5199 54.5632 51.2329C57.5172 52.9347 60.1616 55.023 61.9208 57.9606C63.2161 60.1226 64.3671 62.3672 64.9525 64.8487C65.1287 64.5898 65.2551 64.2204 65.3318 63.842C65.1725 63.1708 64.9823 62.5066 64.7563 61.8513C64.4258 60.8894 63.9519 60.0021 63.3744 59.1626C62.8736 58.4357 62.4146 57.6788 61.9587 56.923Z" fill="white"/>
<path d="M70.1245 56.6463C69.9493 55.9124 69.7073 55.1924 69.4674 54.4754C69.3151 54.0213 69.0462 53.5991 68.9427 53.137C68.6988 52.0476 68.3055 51.0159 67.8465 50.0062C66.0216 45.988 63.2886 42.8253 59.2843 40.8317C57.9491 40.1674 56.5752 39.7592 55.0788 39.7094C52.9113 39.6367 50.7976 39.9314 48.7118 40.4961C46.0197 41.224 43.5296 42.4051 41.2895 44.0382C39.3929 45.4204 37.6077 46.957 35.7997 48.4567C34.7314 49.3429 33.6243 50.2083 32.6904 51.227C31.0526 53.0125 29.5154 54.8916 27.9722 56.7628C26.6162 58.4059 25.4483 60.1765 24.6359 62.1601C24.5383 62.3962 24.2874 62.6351 24.597 62.9409C24.9923 62.9359 25.0849 62.5953 25.2362 62.3165C25.8157 61.252 26.3643 60.1685 26.9845 59.1279C28.5755 56.4591 30.6892 54.2165 32.8626 52.0257C35.1625 49.7074 37.6426 47.5913 40.1595 45.518C40.724 45.0529 41.2995 44.5779 41.9357 44.2274C44.13 43.0225 46.3492 41.8574 48.7536 41.1125C49.4506 40.8954 50.1644 40.6813 50.8862 40.6026C52.7859 40.3965 54.6765 40.0649 56.6001 40.5897C59.351 41.3395 61.7305 42.6142 63.6152 44.8159C65.4152 46.9181 66.5741 49.3927 67.8953 51.7767C67.9441 51.8644 67.9859 51.9619 68.0028 52.0595C68.2816 53.616 68.9885 55.0291 69.4773 56.5148C69.6068 56.9092 69.7322 57.3035 69.8467 57.6989C70.0229 57.7497 70.1972 57.7855 70.3714 57.8104C70.2967 57.421 70.2161 57.0327 70.1245 56.6463Z" fill="white"/>
<path d="M52.6959 46.1204C53.4934 46.4411 54.3048 46.7299 55.0914 47.0754C56.8795 47.8591 58.5113 48.8968 59.9689 50.2013C61.1726 51.2798 62.3813 52.3533 63.571 53.4467C64.1096 53.9416 64.6134 54.4764 65.1252 55.0012C65.5503 55.4373 65.7793 55.9701 65.7584 56.5776C65.7355 57.2826 65.6996 57.9906 65.606 58.6887C65.4955 59.5132 65.5314 60.3029 65.7882 61.0906C65.9694 60.6624 66.2064 60.2671 66.4762 59.8916C66.4264 59.5341 66.3866 59.1746 66.3468 58.8162C66.2781 58.1908 66.296 57.5544 66.296 56.9231C66.296 55.7679 65.8719 54.804 65.0226 54.0282C64.4073 53.4666 63.7791 52.9179 63.1588 52.3622C62.3693 51.6542 61.5728 50.9551 60.7962 50.2332C58.796 48.374 56.6256 46.7956 53.9593 46.0238C53.4167 45.8665 52.8682 45.7321 52.2718 45.5737C52.2618 45.987 52.4998 46.0418 52.6959 46.1204Z" fill="white"/>
<path d="M67.5632 54.1516C67.3611 53.5561 67.0445 53.0005 66.7936 52.4209C66.5517 51.8632 66.1614 51.441 65.6337 51.1642C64.0915 50.3566 62.7544 49.297 61.6344 47.9656C60.8239 47.0026 59.8034 46.3175 58.7232 45.6961C57.4797 44.9801 56.0898 44.6754 54.7517 44.2223C54.4819 44.1317 54.1842 44.1227 53.8984 44.0759C53.9223 44.294 53.991 44.4304 54.0946 44.4673C54.4988 44.6127 54.916 44.7192 55.3242 44.8537C57.9655 45.721 60.2475 47.148 62.1491 49.1895C62.6977 49.778 63.301 50.3237 63.9263 50.8306C64.893 51.6143 65.7692 52.4787 66.5587 53.4396C67.2536 54.2841 67.5792 55.2371 67.4587 56.3225C67.3741 57.0933 67.4298 57.8441 67.5583 58.588C67.7594 58.365 67.9625 58.1419 68.1606 57.9168C68.069 57.3303 68.0162 56.7358 68.0242 56.1254C68.0332 55.4681 67.7793 54.792 67.5632 54.1516Z" fill="white"/>
<path d="M24.7645 70.1894C24.5325 69.9355 24.3583 70.0759 24.2079 70.1994C24.0148 70.3577 23.8435 70.5439 23.6633 70.7182C23.0948 71.2709 22.4536 71.6911 21.6621 71.8544C21.4829 71.8923 21.3157 71.9899 21.0996 72.0765C21.3435 72.5406 21.703 72.5525 22.0365 72.4679C22.37 72.3832 22.7045 72.2388 22.9923 72.0506C23.728 71.5686 24.3453 70.9642 24.7645 70.1894Z" fill="white"/>
<path d="M59.3964 43.5722C58.3042 42.9856 57.21 42.3622 55.9366 42.3154C54.6523 42.2696 53.3639 42.2975 52.0776 42.3284C51.4484 42.3443 50.8201 42.4409 50.1919 42.5036C50.0675 42.5156 49.9281 42.5106 49.8245 42.5664C49.7299 42.6172 49.5945 42.7815 49.6154 42.8233C49.6742 42.9348 49.7947 43.0424 49.9141 43.0852C50.0226 43.125 50.162 43.0762 50.2875 43.0683C51.5728 42.9856 52.8572 42.893 54.1435 42.8243C55.1162 42.7715 56.063 42.9438 56.9521 43.3302C59.5686 44.4704 61.9869 45.9004 63.8258 48.1539C64.2241 48.6419 64.695 49.0472 65.3671 49.2693C65.1689 48.9386 64.9977 48.5861 64.7677 48.2794C63.3061 46.3366 61.5489 44.7273 59.3964 43.5722Z" fill="white"/>
<path d="M35.6253 59.778C37.6473 58.8559 39.7003 58.0015 41.7294 57.0923C42.6941 56.6601 43.6519 56.2 44.5748 55.6842C45.7457 55.0299 46.4147 54.9891 47.3815 55.9341C48.9137 57.4329 50.665 58.601 52.483 59.7013C54.6644 61.0208 56.8119 62.394 58.9814 63.7324C59.4294 64.0083 59.9083 64.2333 60.4111 64.5022C60.7605 64.1138 60.6072 63.7593 60.5037 63.4357C59.5499 60.4392 58.1331 57.7406 55.5126 55.8435C54.6146 55.1933 53.7046 54.5539 52.7568 53.9793C51.6427 53.3042 50.3932 53.101 49.1069 53.2205C48.6638 53.2614 48.168 53.351 47.8116 53.59C46.6109 54.3916 45.227 54.7312 43.9207 55.264C42.6344 55.7878 41.3301 56.2707 40.0677 56.8473C39.314 57.1909 38.639 57.7007 37.9062 58.0951C37.2411 58.4546 36.5641 58.8081 35.8592 59.078C34.7402 59.5062 33.8142 60.1813 33.0625 61.0945C31.6368 62.8262 30.2091 64.558 28.8252 66.3235C28.0327 67.3333 27.2701 68.3769 26.6 69.4693C26.1978 70.1246 26.0116 70.9103 25.704 71.6263C25.457 72.2029 25.232 72.8014 24.8955 73.3242C24.1837 74.4285 23.8581 75.6345 23.8899 76.9211C23.9467 79.1716 23.871 81.4142 23.6928 83.6578C23.5644 85.269 24.107 86.7468 24.7322 88.1948C25.0449 88.9157 25.4162 89.5969 25.9598 90.1844C26.2306 90.4762 26.4258 90.8426 26.6299 91.1902C27.6534 92.9299 28.866 94.5331 30.5546 95.6505C32.1496 96.705 33.8262 97.655 35.5366 98.5134C35.9598 98.7256 36.4038 98.8749 36.8608 98.9795C36.8459 98.6778 36.8678 98.3979 36.9166 98.139C36.0673 97.9657 35.233 97.677 34.4216 97.3623C33.3184 96.9351 32.513 96.0577 31.601 95.3467C30.925 94.8189 30.3087 94.2155 29.6496 93.6658C27.8933 92.1989 26.5841 90.3806 25.5218 88.379C24.7004 86.8315 24.3121 85.1436 24.3599 83.4049C24.4236 81.0856 24.6078 78.7683 24.7691 76.453C24.8089 75.8764 24.9333 75.3039 25.0558 74.7372C25.462 72.8641 26.4726 71.2897 27.5707 69.7691C28.5723 68.3809 29.6336 67.0356 30.6312 65.6454C31.2615 64.7661 31.7891 63.8141 32.4273 62.9417C32.9928 62.171 33.6141 61.4321 34.2772 60.743C34.6555 60.3506 35.1294 60.0041 35.6253 59.778ZM48.1262 54.0152C48.3134 53.9435 48.5135 53.8937 48.7126 53.8708C49.6256 53.7633 50.5475 53.7702 51.3888 54.1556C52.4173 54.6256 53.4059 55.1833 54.4025 55.72C55.3275 56.2189 56.0582 56.9439 56.7183 57.7495C57.8175 59.0929 58.5732 60.6294 59.2432 62.2138C59.3567 62.4817 59.3886 62.7844 59.4583 63.0712C59.4115 63.1309 59.3657 63.1907 59.3189 63.2504C59.072 63.1807 58.7822 63.1708 58.5851 63.0304C57.2281 62.0714 55.891 61.0835 54.5459 60.1086C53.1799 59.1178 51.8398 58.0662 50.221 57.5165C49.07 57.1251 48.3044 56.3285 47.6682 55.3715C47.2401 54.7262 47.4083 54.29 48.1262 54.0152Z" fill="white"/>
<path d="M42.7883 99.1169C43.6127 99.0452 44.437 98.8649 45.2355 98.6439C47.2327 98.0912 49.2438 97.5644 51.1066 96.6223C51.5676 96.3883 52.0395 96.1583 52.4796 95.8864C52.4537 95.76 52.4199 95.6315 52.38 95.501C52.3462 95.3915 52.3153 95.281 52.2864 95.1694C51.7647 95.4672 51.2241 95.739 50.6895 96.0109C47.9286 97.417 44.9627 98.128 41.9072 98.5064C40.4426 98.6877 38.996 98.5253 37.5633 98.2625C37.5424 98.5373 37.5265 98.8181 37.5215 99.0999C38.1577 99.1896 38.8098 99.2105 39.456 99.2085C40.5681 99.2055 41.6832 99.2135 42.7883 99.1169Z" fill="white"/>
<path d="M21.0941 91.4014C21.4625 92.5148 22.0469 93.5893 22.704 94.5672C24.0769 96.6136 25.7127 98.4369 27.8254 99.7703C28.1878 99.9994 28.5522 100.231 28.9345 100.426C30.3254 101.131 31.6994 101.878 33.1281 102.501C34.3696 103.042 35.6649 103.334 36.9851 103.497C36.9861 103.24 36.994 102.983 37.003 102.725C36.8198 102.699 36.6376 102.669 36.4554 102.637C34.7051 102.331 33.0604 101.824 31.5182 101.128C31.5102 101.261 31.5032 101.395 31.4953 101.528C31.3051 101.32 31.1558 101.114 31.0462 100.909C28.7424 99.7942 26.6715 98.2487 24.8217 96.3019C23.9774 95.4126 23.3561 94.369 22.8125 93.2816C21.3081 90.2732 20.2448 87.1274 19.8745 83.7655C19.7639 82.7607 19.6036 81.7619 19.4682 80.7601C19.291 79.4377 19.3637 78.1381 19.8207 76.8724C19.9461 76.5279 20.0397 76.1803 19.4145 75.9832C19.3139 76.3088 19.2024 76.5597 19.1606 76.8216C18.7006 79.6757 18.8121 82.5247 19.4354 85.3339C19.8894 87.3793 20.435 89.4128 21.0941 91.4014Z" fill="white"/>
<path d="M66.9651 77.2478C67.0945 78.7455 67.0955 80.2532 66.9213 81.7599C66.8347 82.5107 66.7988 83.2755 66.6166 84.0034C66.4782 84.5531 66.1746 85.0729 65.8828 85.5699C65.7315 85.8268 65.4448 86.004 65.2198 86.2171C65.178 86.1863 65.1361 86.1554 65.0953 86.1245C65.2138 85.4872 65.3243 84.8469 65.4527 84.2116C65.8729 82.1393 65.841 80.047 65.7823 77.9489C65.7196 75.6794 65.2128 73.4935 64.6782 71.3067C64.4263 70.2761 64.1813 69.2424 63.9852 68.1998C63.4456 65.3218 62.2986 62.6411 61.3319 59.9026C60.7873 58.3611 59.6812 57.189 58.58 56.0388C56.997 54.3857 55.1432 53.0732 53.1639 51.943C52.7587 51.712 52.2688 51.5935 51.8029 51.5148C50.8102 51.3475 49.8087 51.217 48.8061 51.1175C48.0424 51.0408 47.2947 51.1852 46.5849 51.4869C45.3513 52.0117 44.1177 52.5345 42.8891 53.0683C42.1145 53.4049 41.4385 53.8888 40.873 54.5182C40.7516 54.6546 40.6689 54.8259 40.5684 54.9812C40.6042 55.0261 40.639 55.0719 40.6749 55.1167C41.0044 54.9593 41.341 54.8159 41.6615 54.6437C42.8413 54.0113 44.0241 53.3839 45.191 52.7257C47.5257 51.4082 49.9142 51.5018 52.3614 52.3712C54.8335 53.2495 56.8457 54.7642 58.5442 56.7289C58.9574 57.2069 59.3516 57.7018 59.7538 58.1878C60.2965 58.842 60.6429 59.5919 60.8759 60.4045C61.9342 64.097 63.0314 67.7795 64.0499 71.483C64.8653 74.4465 65.2865 77.4818 65.1411 80.5559C65.0714 82.0347 64.7409 83.5035 64.491 84.9704C64.3257 85.9403 64.1156 86.9033 63.8876 87.8602C63.5611 89.2285 62.664 90.2831 61.8665 91.3845C61.8466 91.4113 61.8277 91.4382 61.8068 91.4651C61.9253 91.4591 62.0428 91.4552 62.1612 91.4562C62.3763 91.4572 62.5963 91.4701 62.8174 91.484C63.4018 90.6217 63.9404 89.7274 64.4442 88.8123C64.9938 87.8144 65.6449 86.8983 66.2662 85.9523C67.4868 84.0951 67.9527 82.0237 67.7357 79.8011C67.5903 79.579 67.4609 79.354 67.3982 79.111C67.2379 78.4936 67.0995 77.8712 66.9651 77.2478Z" fill="white"/>
<path d="M34.2316 99.5194C33.3395 99.1928 32.4883 98.8074 31.6768 98.3643C31.6579 98.6989 31.639 99.0205 31.6211 99.3322C32.778 99.8978 34.0006 100.34 35.274 100.689C35.8634 100.852 36.4538 101.013 37.0482 101.149C37.0482 100.927 37.0432 100.704 37.0313 100.484C36.6649 100.397 36.3035 100.279 35.948 100.122C35.3955 99.8769 34.8011 99.7275 34.2316 99.5194Z" fill="white"/>
<path d="M37.2516 105.886C37.2387 105.858 37.2267 105.829 37.2128 105.8C37.1291 105.621 37.0774 105.425 37.0455 105.22C36.709 105.184 36.3725 105.14 36.036 105.088C35.0105 104.93 33.982 104.76 33.0471 104.293C32.4916 104.016 31.937 103.735 31.3844 103.45C31.3377 103.706 31.2928 103.962 31.248 104.218C31.2909 104.239 31.3337 104.261 31.3765 104.281C33.2592 105.211 35.2255 105.693 37.2516 105.886Z" fill="white"/>
<path d="M72.9525 36.688C73.4354 37.1769 73.8426 37.7057 74.1861 38.3022C74.9935 39.7033 75.8149 41.0964 76.6662 42.4707C77.4298 43.7055 77.9963 45.021 78.4553 46.3932C79.1014 48.3221 79.5445 50.3028 80.0015 52.2795C80.4336 52.2925 80.9274 52.2088 81.4103 52.0584C81.3376 51.7537 81.2689 51.448 81.2082 51.1413C80.8059 49.1128 80.2773 47.1232 79.4639 45.2162C78.9193 43.9385 78.3816 42.6619 78.2761 41.2488C78.1815 39.9781 77.612 38.8907 76.8822 37.874C76.5019 37.3442 76.0628 36.8353 75.791 36.2518C75.333 35.2639 74.664 34.4454 73.9432 33.6726C73.529 33.7254 73.1158 33.7632 72.7046 33.7861C72.852 33.9644 73.0013 34.1406 73.1556 34.3119C74.8293 36.1641 76.1843 38.2225 77.2755 40.4631C77.4288 40.7788 77.606 41.0895 77.396 41.6163C77.1719 41.4231 76.9947 41.3235 76.8942 41.1731C76.5586 40.6732 76.2172 40.1723 75.9374 39.6406C75.0772 38.0064 73.9223 36.5794 72.7435 35.1823C72.3353 34.6983 71.8992 34.2432 71.4432 33.807C70.9693 33.7961 70.4964 33.7642 70.0234 33.7095C70.1827 33.8439 70.341 33.9793 70.4983 34.1167C71.3864 34.8935 72.1202 35.8435 72.9525 36.688Z" fill="white"/>
<path d="M79.6822 42.5503C80.1103 43.817 80.4139 45.1285 80.7116 46.434C81.1238 48.2454 81.4315 50.0827 81.9094 51.8781C82.2917 51.7208 82.6491 51.5256 82.9418 51.3095C82.7636 50.7778 82.7248 50.244 82.7815 49.6774C83.0414 50.0578 83.2425 50.4651 83.4078 50.8863C83.4476 50.8395 83.4844 50.7927 83.5163 50.7449C83.5561 50.6851 83.6228 50.6174 83.6198 50.5577C83.4366 47.6001 86.1467 45.5527 86.1049 42.6379C86.0949 41.9568 86.2054 41.2667 86.1298 40.5955C86.0212 39.6325 86.305 39.3378 87.212 39.6983C87.6829 39.8855 88.111 40.1832 88.5571 40.4332C89.3526 40.8793 90.383 40.7419 90.833 40.0687C91.3637 39.275 90.7275 38.8249 90.2805 38.2852C89.9012 37.8271 89.7319 37.1838 89.3217 36.7686C88.6706 36.1073 87.9069 35.5537 87.1672 34.985C86.974 34.8357 86.6704 34.8367 86.4583 34.7022C85.163 33.8807 83.8339 33.4067 82.4808 33.1677C82.7526 33.6805 83.0244 34.1924 83.2962 34.7052C82.6212 34.3637 82.5635 33.6945 82.2967 33.1368C81.8795 33.0701 81.4623 33.0243 81.0412 32.9984C81.2084 33.2633 81.2891 33.5521 81.2164 33.8707C81.1467 34.1744 80.86 34.2661 80.6509 34.035C80.4687 33.8349 80.3363 33.5839 80.2029 33.3439C80.1332 33.2185 80.0635 33.094 79.9928 32.9685C79.5677 32.9695 79.1406 32.9864 78.7124 33.0173C78.821 33.2105 78.9225 33.4057 79.0131 33.6068C79.3377 34.3278 79.7319 34.991 80.2278 35.6054C81.4484 37.1161 82.2688 38.8478 82.9219 40.6622C83.0802 41.1034 83.1778 41.5684 82.906 42.0305C82.3663 40.7568 81.8456 39.4752 81.2801 38.2135C81.0372 37.6708 80.7515 37.132 80.396 36.658C79.5418 35.5158 78.6527 34.3945 78.1081 33.0671C77.7069 33.1059 77.3046 33.1547 76.9024 33.2095C77.3514 33.9275 77.7646 34.6704 78.139 35.4401C78.5681 36.3234 79.0669 37.1768 79.5926 38.0064C80.3413 39.1884 81.0183 40.3923 81.304 41.7815C81.3488 42.0026 81.4125 42.2286 81.5121 42.4298C82.0746 43.565 82.0746 44.8297 82.3494 46.0307C82.3743 46.1412 82.2986 46.2737 82.2698 46.3971C82.214 46.4021 82.1573 46.4071 82.1005 46.4121C82.0169 46.1402 81.9074 45.8733 81.8516 45.5955C81.4942 43.816 81.1328 42.0364 80.2626 40.4162C79.5985 39.1804 78.9205 37.9516 78.2355 36.7267C77.8333 36.0077 77.443 35.2778 76.9781 34.6007C76.6864 34.1734 76.3897 33.7502 76.085 33.331C75.6798 33.3937 75.2726 33.4624 74.8664 33.5341C74.8634 33.5351 74.8604 33.5351 74.8574 33.5361C75.6569 34.5877 76.4086 35.6741 77.0537 36.8422C78.0703 38.6835 79.0111 40.5596 79.6832 42.5503H79.6822ZM85.2795 35.8554C85.7435 36.905 86.1069 37.9825 86.1158 39.1695C85.7295 38.101 85.2038 37.0563 85.2795 35.8554ZM84.2381 37.5553C84.3735 38.0283 84.5597 38.5232 84.2839 39.2053C83.8996 38.1149 83.7652 37.148 83.6756 36.1591C84.1704 36.5136 84.1007 37.0763 84.2371 37.5553H84.2381ZM82.679 37.5304C81.991 36.7596 81.7471 35.7817 81.2244 34.9681C81.1288 34.8197 81.1398 34.6046 81.0969 34.3945C81.54 34.3567 81.7112 34.5768 81.8427 34.8715C82.1204 35.4919 82.4141 36.1043 82.6869 36.7257C82.7905 36.9627 82.9498 37.2157 82.679 37.5304Z" fill="white"/>
<path d="M70.8198 83.1551C71.1464 82.3704 71.234 81.5508 71.2748 80.7223C70.9731 79.843 70.7183 78.9428 70.3887 78.0764C70.3708 78.647 70.3429 79.2166 70.3061 79.7843C70.1408 82.3345 69.5872 84.8241 68.8694 87.2718C68.8345 87.3933 68.7957 87.5148 68.7539 87.6363C69.0874 87.3943 69.4259 87.1483 69.7714 86.8964C69.7814 86.9074 69.7913 86.9183 69.8013 86.9293C70.0761 85.9902 70.3628 85.0541 70.6316 84.1131C70.7212 83.8014 70.6973 83.4489 70.8198 83.1551Z" fill="white"/>
<path d="M74.0863 41.5785C75.3308 43.7484 76.1692 46.0727 76.9856 48.4069C77.4834 49.8309 77.7701 51.3286 78.1494 52.7945C78.4192 53.8361 78.6871 54.8777 78.9549 55.9193C78.9947 55.8307 79.0256 55.7331 79.0495 55.6276C79.2307 54.814 79.3541 53.9874 79.4746 53.1629C79.4786 53.138 79.4816 53.1121 79.4836 53.0872C79.4696 53.0364 79.4557 52.9867 79.4417 52.9359C79.1112 51.7498 78.7886 50.5588 78.4113 49.3868C78.1275 48.5025 77.7303 47.653 77.4406 46.7707C76.5903 44.1846 75.293 41.8195 73.8563 39.5301C72.7622 37.7854 71.2628 36.3704 69.859 34.8826C69.4099 34.4066 68.9659 33.9237 68.5059 33.4586C67.8946 33.3272 67.2823 33.1559 66.666 32.9438C66.5495 32.9039 66.4301 32.8671 66.3086 32.8342C67.1479 33.5373 67.9633 34.2712 68.7628 35.0201C70.8337 36.9609 72.6606 39.092 74.0863 41.5785Z" fill="white"/>
<path d="M45.2955 71.4472C43.7055 71.4821 42.1892 71.8217 40.7834 72.5845C40.2726 72.8613 39.7788 73.17 39.2661 73.4419C37.8991 74.1648 36.9652 75.321 36.1637 76.5886C35.5813 77.5108 35.416 78.5673 35.416 79.6428C35.416 82.7538 36.4146 85.4933 38.5084 87.8115C39.1506 88.5236 39.9291 88.9886 40.8899 89.1878C42.1653 89.4517 43.4317 89.599 44.716 89.3033C44.9729 89.2435 45.2228 89.1529 45.5633 89.0493C45.2129 88.7337 44.9102 88.8113 44.6264 88.8283C43.5631 88.888 42.5167 88.8203 41.4664 88.6112C39.9889 88.3164 38.8987 87.5088 38.0514 86.2969C36.9303 84.6926 36.4773 82.8673 36.2314 80.9703C36.1139 80.071 35.9686 79.1738 36.1398 78.2566C36.2971 77.4142 36.5739 76.6554 37.2569 76.0877C38.1101 75.3777 38.9275 74.6199 39.8077 73.9457C41.3558 72.7597 43.1539 72.207 45.0745 72.0059C45.4608 71.965 45.866 71.987 46.2991 71.7699C45.9775 71.4412 45.635 71.4393 45.2955 71.4472Z" fill="white"/>
<path d="M49.826 79.0303C49.3342 76.8823 47.6217 75.6475 45.4722 75.6913C44.8709 75.7033 44.2675 75.8198 43.6712 75.9243C42.9653 76.0468 42.4276 76.474 41.9647 76.9899C41.1323 77.918 40.4981 78.9805 39.9276 80.0839C39.7295 80.4653 39.6887 80.8407 39.848 81.25C39.9396 81.483 39.9705 81.7389 40.0272 81.9849C40.303 83.1689 40.9004 84.0433 42.1389 84.4276C43.3187 84.7931 44.4856 85.0421 45.7092 84.7095C47.6267 84.1887 48.6194 82.2817 47.9204 80.4205C47.7352 79.9255 47.5102 79.4376 47.2354 78.9865C46.6192 77.9737 45.6793 77.5256 44.5035 77.5565C44.3243 77.5615 44.3253 77.5664 44.0594 77.8592C44.1829 78.155 44.4507 78.0892 44.6926 78.138C45.1835 78.2366 45.7022 78.3133 46.1393 78.5364C47.0184 78.9875 47.4067 79.812 47.5202 80.761C47.6277 81.6682 47.4097 82.5197 46.9855 83.3203C46.664 83.9267 46.1373 84.2574 45.4702 84.3281C44.154 84.4675 42.8976 84.1976 41.7307 83.6001C40.8765 83.162 40.31 81.6593 40.4344 80.7112C40.6843 78.8082 41.8263 77.5415 43.3366 76.5706C44.4248 75.8706 45.6255 75.9283 46.7098 76.6045C47.9832 77.3981 48.8354 78.5951 49.4945 79.9245C49.6209 80.1795 49.7026 80.4434 49.7454 80.7102C49.8569 80.6853 49.9694 80.6605 50.0829 80.6366C50.0371 80.0988 49.9485 79.5641 49.826 79.0303Z" fill="white"/>
<path d="M48.1167 70.7113C47.7802 70.4604 47.4258 70.2353 47.0056 69.9475C46.8573 70.54 47.2147 70.6974 47.4527 70.8756C48.3547 71.5498 49.0606 72.3873 49.6669 73.3204C50.0791 73.41 50.3907 73.4777 50.6347 73.4966C50.5769 73.4189 50.5202 73.3413 50.4634 73.2626C49.7844 72.3146 49.0576 71.4144 48.1167 70.7113Z" fill="white"/>
<path d="M46.0121 73.4627C44.2219 73.621 42.5184 74.1319 41.027 75.1327C39.4808 76.1713 38.4285 77.6621 37.7385 79.3859C37.6061 79.7155 37.6101 80.1307 37.6559 80.4932C37.7325 81.0927 37.8868 81.6832 38.0203 82.2747C38.3976 83.9477 39.2548 85.3458 40.6736 86.2909C42.5334 87.5297 44.5336 87.8842 46.6204 86.7868C47.4736 86.3377 48.3049 85.8617 48.9292 85.0979C49.2388 84.7205 49.4877 84.3191 49.6749 83.8919C49.6341 83.411 49.5933 82.915 49.5515 82.4092C48.8336 84.6537 47.4049 86.1943 44.9617 86.7031C44.2508 86.8505 43.5638 86.7858 42.8709 86.5846C40.7204 85.9593 39.206 84.6896 38.6734 82.443C38.5161 81.7818 38.4085 81.1017 38.3548 80.4245C38.2761 79.4317 38.5459 78.5105 39.1951 77.7437C39.7327 77.1094 40.2863 76.48 40.8966 75.9184C42.5991 74.349 44.668 73.9208 46.8912 74.2086C48.0939 74.3649 48.9959 75.1437 49.7755 76.0289C50.8268 77.2229 51.4959 78.5265 51.7727 79.9266C51.9668 79.7274 52.1132 79.4815 52.2197 79.1797C52.0883 78.1451 51.6054 77.2249 50.9224 76.4123C50.5232 75.9373 50.0961 75.4922 49.6411 75.0789C48.7679 74.7633 48.057 74.2036 47.3999 73.5623C46.9529 73.4328 46.483 73.4209 46.0121 73.4627Z" fill="white"/>
<path d="M45.1567 81.9302C44.644 82.1124 44.0775 82.1463 43.5359 82.2489C43.278 82.2977 43.0221 82.3514 42.7653 82.4032C42.7623 82.4918 42.7593 82.5795 42.7563 82.6681C42.9544 82.7318 43.1675 82.8762 43.3497 82.8444C44.0406 82.7279 44.7535 82.6333 45.3987 82.3793C46.1922 82.0676 46.3286 81.3008 45.7412 80.6625C45.0303 79.8908 44.1074 79.4904 43.063 79.4357C42.4895 79.4058 42.2217 79.7982 42.3242 80.4046C42.373 80.4076 42.4347 80.4305 42.4686 80.4086C43.5518 79.7354 44.4558 80.2503 45.316 80.8677C45.8447 81.2481 45.784 81.7071 45.1567 81.9302Z" fill="white"/>
<path d="M53.5279 85.0452C53.3258 85.6795 53.0401 86.2899 52.6777 86.8685C52.2665 87.5258 51.8175 88.1581 51.3794 88.7974C51.253 89.2575 51.1275 89.7235 50.9961 90.2035C51.3933 89.7823 51.7816 89.3541 52.1411 88.903C53.0142 87.8056 53.6275 86.6255 54.0317 85.3798C53.9302 85.2214 53.743 85.1129 53.5279 85.0452Z" fill="white"/>
<path d="M56.3075 91.9272C55.4841 92.7996 54.5781 93.5843 53.6094 94.3013C53.6522 94.5233 53.686 94.7444 53.7099 94.9635C54.7374 94.138 55.7579 93.2975 56.7286 92.4082C56.5843 92.2499 56.4439 92.0896 56.3075 91.9272Z" fill="white"/>
<path d="M47.8499 94.9805C47.6707 95.085 47.5074 95.2195 47.2227 95.4216C47.4666 95.4844 47.5602 95.5381 47.6418 95.5242C47.8907 95.4814 48.1466 95.4425 48.3786 95.3489C49.6988 94.8162 50.9204 94.148 51.9439 93.2358C51.911 92.9669 51.8811 92.6981 51.8503 92.4302C51.3963 92.8454 50.8855 93.2059 50.3419 93.5316C49.5175 94.0255 48.6782 94.4935 47.8499 94.9805Z" fill="white"/>
<path d="M53.3223 71.2499C53.5682 71.6572 53.7962 72.0844 54.0072 72.5315C54.7958 74.2045 55.4559 75.9203 55.8959 77.7247C56.4007 79.794 56.2076 81.8235 55.7625 83.8749C55.6102 84.573 55.414 85.2531 55.187 85.9213C55.3125 86.3246 55.4678 86.705 55.649 87.0665C56.1269 85.8586 56.3888 84.5889 56.5819 83.2993C56.6745 82.6769 56.7422 82.0376 56.7044 81.4132C56.6068 79.7751 56.5291 78.128 56.2832 76.5088C56.0264 74.8199 55.2856 73.2804 54.3945 71.8245C54.2432 71.5765 54.0879 71.3316 53.9286 71.0906C53.7763 71.1882 53.6249 71.2589 53.4766 71.2519C53.4228 71.2489 53.372 71.2479 53.3223 71.2499Z" fill="white"/>
<path d="M35.8266 64.7791C35.045 65.2392 34.2744 65.7242 33.5327 66.246C30.9341 68.0723 29.0942 70.5629 27.4883 73.2476C26.6391 74.6666 26.3772 76.2599 26.1213 77.8672C25.8117 79.81 25.9282 81.7449 26.0536 83.6858C26.198 85.9274 27.113 87.8802 28.3515 89.7055C29.6836 91.6673 31.3184 93.3512 33.1832 94.8001C33.7706 95.2562 34.4885 95.551 35.1635 95.8846C35.5468 96.0738 35.97 96.1813 36.3652 96.3476C36.7326 96.503 37.105 96.6265 37.4813 96.7211C37.5719 96.5667 37.6645 96.4213 37.7541 96.2829C37.7421 96.4403 37.7262 96.6046 37.7083 96.7758C38.454 96.9402 39.2176 96.9929 39.9942 96.9531C41.2298 96.8884 42.4633 96.7818 43.6969 96.6733C43.9737 96.6484 44.2435 96.5368 44.6368 96.4333C44.1688 96.0608 43.7835 96.1784 43.4231 96.1903C42.2871 96.2271 41.1521 96.2809 40.0171 96.3247C37.4474 96.4213 35.2123 95.5251 33.227 93.9646C32.3957 93.3104 31.6271 92.5735 30.8485 91.8525C30.0261 91.0897 29.3641 90.1994 28.8453 89.2036C28.7866 89.0921 28.7279 88.9796 28.6592 88.874C26.4638 85.533 26.1154 81.8266 26.6908 78.0136C27.1438 75.0032 28.2739 72.2229 30.2133 69.818C30.9869 68.859 31.9427 68.1261 32.9702 67.4708C34.2704 66.6433 35.5697 65.8148 36.867 64.9833C36.9696 64.9176 37.0542 64.8229 37.2573 64.6457C36.6579 64.4555 36.2129 64.5521 35.8266 64.7791Z" fill="white"/>
<path d="M26.0352 102.771C24.6383 101.904 23.2206 101.065 22.1443 99.7911C21.2642 98.7515 20.4179 97.683 19.5806 96.6075C19.3904 96.3635 19.2112 96.1136 19.043 95.8596C19.1186 96.3745 19.2162 96.8833 19.3466 97.3852C19.8872 98.1201 20.4757 98.8172 21.1357 99.4615C22.1473 100.45 23.1698 101.43 24.2311 102.365C24.7956 102.863 25.4298 103.293 26.072 103.69C27.0806 104.31 28.114 104.894 29.1534 105.461C29.3954 105.594 29.6383 105.724 29.8832 105.851C29.9001 105.671 29.9111 105.498 29.9141 105.333C29.5537 105.137 29.2032 104.914 28.8637 104.66C27.9577 103.981 26.9989 103.368 26.0352 102.771Z" fill="white"/>
<path d="M26.9727 108.542C26.9896 108.764 27.0085 108.985 27.0324 109.206C27.5631 109.416 28.0967 109.62 28.6333 109.814C28.7409 109.648 28.8434 109.463 28.942 109.262C28.93 109.258 28.9171 109.256 28.9051 109.252C28.2411 109.059 27.5979 108.822 26.9727 108.542Z" fill="white"/>
<path d="M26.9162 105.928C26.9152 106.199 26.9102 106.469 26.9082 106.74C27.5494 107.139 28.2095 107.508 28.8984 107.795C29.0757 107.868 29.2539 107.941 29.4321 108.012C29.4958 107.812 29.5535 107.607 29.6053 107.403C29.4211 107.318 29.2399 107.225 29.0617 107.121C28.3538 106.711 27.6111 106.358 26.9162 105.928Z" fill="white"/>
<path d="M20.8403 101.376C20.7537 101.613 20.6701 101.829 20.6113 102.034C20.9658 102.39 21.3341 102.731 21.7214 103.043C23.0536 104.119 24.4574 105.113 25.8791 106.07C26.0215 106.165 26.1639 106.261 26.3082 106.355C26.3461 106.12 26.3849 105.884 26.4247 105.649C26.4397 105.65 26.4526 105.651 26.4675 105.651C25.3375 104.951 24.2015 104.256 23.1382 103.467C22.2969 102.84 21.5412 102.133 20.8403 101.376Z" fill="white"/>
<path d="M21.8402 107.88C21.5734 107.68 21.3125 107.475 21.0566 107.264C21.1542 107.982 21.3414 108.673 22.1707 108.87C22.7611 109.01 23.1225 109.262 23.3386 109.6C24.0743 109.979 24.8111 110.353 25.5568 110.709C25.5996 110.493 25.6414 110.276 25.6813 110.059C25.5359 109.985 25.3915 109.909 25.2482 109.831C24.1022 109.205 22.9085 108.681 21.8392 107.88H21.8402Z" fill="white"/>
<path d="M21.5621 104.612C21.2484 104.305 20.9318 104.002 20.6152 103.699C20.6541 104.078 20.6999 104.458 20.7486 104.838C21.5879 105.644 22.4611 106.415 23.3283 107.191C24.0899 107.873 24.979 108.363 25.9139 108.755C25.9517 108.529 25.9896 108.304 26.0264 108.079C25.5833 107.844 25.1493 107.587 24.7241 107.312C23.5493 106.548 22.5547 105.582 21.5621 104.612Z" fill="white"/>
<path d="M24.8568 111.948C24.8976 111.924 24.9364 111.895 24.9743 111.861C24.5212 111.664 24.0732 111.456 23.6312 111.235C23.6182 112.203 24.0085 112.454 24.8568 111.948Z" fill="white"/>
<path d="M30.9369 105.811C30.9 105.977 30.8592 106.141 30.8164 106.306C31.6318 106.681 32.4721 106.992 33.3512 107.174C34.3837 107.388 35.4301 107.534 36.4785 107.667C36.592 107.601 36.7045 107.534 36.816 107.465C37.0141 107.342 37.1605 107.211 37.258 107.068C36.0892 106.961 34.9213 106.801 33.7535 106.587C32.7827 106.408 31.8359 106.172 30.9369 105.811Z" fill="white"/>
<path d="M40.4119 101.48C42.7844 101.308 45.147 101.026 47.4449 100.394C48.9443 99.9814 50.4238 99.4934 51.8953 98.9875C52.0994 98.6519 52.2657 98.3034 52.3811 97.9409C51.4204 98.4358 50.4078 98.8471 49.3565 99.1917C46.1138 100.255 42.7605 100.685 39.3535 100.71C38.7671 100.715 38.1877 100.688 37.6172 100.6C37.65 100.831 37.6899 101.062 37.7317 101.292C38.6108 101.457 39.5009 101.547 40.4119 101.48Z" fill="white"/>
<path d="M48.0273 102.194C48.3151 102.422 48.5003 102.57 48.6237 102.668C48.9891 102.281 49.3585 101.913 49.7189 101.551C49.698 101.558 49.6761 101.566 49.6552 101.574C49.1126 101.774 48.5749 102.006 48.0273 102.194Z" fill="white"/>
<path d="M30.4844 110.063C30.577 110.266 30.6766 110.422 30.7871 110.53C30.9723 110.587 31.1575 110.643 31.3427 110.696H31.3437C31.495 110.666 31.6642 110.588 31.8534 110.46C31.9868 110.371 32.1222 110.282 32.2566 110.193C31.6125 110.018 30.9703 109.84 30.3281 109.659C30.3709 109.791 30.4227 109.926 30.4844 110.063Z" fill="white"/>
<path d="M30.3631 107.703C30.2984 107.913 30.2506 108.115 30.2207 108.311C31.3418 108.72 32.4847 109.06 33.6496 109.311C33.9782 109.108 34.3087 108.908 34.6392 108.709C34.6532 108.701 34.6661 108.693 34.6801 108.685C34.1504 108.58 33.6217 108.474 33.0931 108.363C32.1751 108.171 31.2472 108.006 30.3621 107.703H30.3631Z" fill="white"/>
<path d="M30.697 103.913C30.7787 103.682 30.8603 103.452 30.9419 103.221C30.0718 102.771 29.2056 102.313 28.3414 101.85C27.2751 101.277 26.1739 100.741 25.3058 99.8679C24.2892 98.8482 23.2399 97.8533 22.304 96.7629C20.7668 94.9744 19.6796 92.9091 19.1379 90.6127C18.449 87.686 17.8675 84.7374 17.6953 81.7171C17.6485 80.8866 17.6027 80.057 17.5798 79.2285C17.5191 79.3012 17.4573 79.3729 17.3956 79.4446C17.069 79.823 16.8281 80.2423 16.6758 80.6804C16.6778 80.7183 16.6798 80.7551 16.6828 80.793C16.7514 81.7778 16.858 82.7577 17.0033 83.7316C17.0033 83.7316 17.0037 83.7323 17.0043 83.7336C17.0252 83.7695 17.0471 83.8023 17.07 83.8372C17.3867 84.3231 17.7749 84.837 17.8635 85.3817C18.1622 87.221 18.3375 89.0802 18.5665 90.9314C18.5824 91.0589 18.5973 91.1873 18.6113 91.3158C18.8532 92.1025 19.12 92.8822 19.353 93.6709C19.4097 93.8621 19.5143 94.0423 19.6138 94.2176C20.4661 95.7153 21.395 97.1672 22.5897 98.411C23.2319 99.0792 23.9567 99.6936 24.7273 100.206C26.2177 101.2 27.7649 102.107 29.2932 103.045C29.4674 103.151 29.6407 103.261 29.8129 103.369C29.8298 103.244 29.8458 103.119 29.8517 102.998C29.9623 103.007 30.0738 103.015 30.1843 103.024C30.1982 103.226 30.2131 103.427 30.2271 103.629C30.3834 103.726 30.5397 103.821 30.697 103.913Z" fill="white"/>
<path d="M40.5877 105.316C40.511 105.563 40.4463 105.781 40.3945 105.977C42.4266 105.917 44.3969 105.534 46.3563 105.092C46.4548 104.817 46.5574 104.542 46.6629 104.267C46.5474 104.3 46.4319 104.332 46.3164 104.364C44.4228 104.889 42.5132 105.22 40.5877 105.316Z" fill="white"/>
<path d="M61.8846 81.2889C62.3167 78.8024 62.1355 76.3556 61.4884 73.9408C61.2405 73.0177 60.8761 72.1204 60.5027 71.2371C60.0398 70.1427 59.5141 69.0762 59.0113 67.9987C58.9615 67.8912 58.8828 67.7966 58.7514 67.5934C58.6668 67.8055 58.5692 67.93 58.5832 68.0405C58.618 68.3144 58.6688 68.5962 58.7763 68.8482C59.2293 69.9177 59.7311 70.9663 60.1622 72.0437C60.4231 72.696 60.6013 73.3841 60.7934 74.0623C61.2992 75.8458 61.5879 77.6612 61.5143 79.5224C61.5093 79.6677 61.4914 79.8131 61.4804 79.9526C60.8512 79.9904 60.8263 79.9904 60.7287 79.4875C60.5455 78.5465 60.4151 77.5944 60.211 76.6574C59.986 75.6237 59.763 74.5831 59.4274 73.5833C59.1477 72.7508 58.7305 71.9611 58.3333 71.1724C57.4332 69.3839 56.2544 67.7707 55.0896 66.1515C53.9695 64.597 52.6493 63.2566 50.9279 62.3604C49.7869 61.7669 48.6599 61.1425 47.499 60.5918C45.4331 59.6109 43.3304 59.6916 41.2465 60.536C40.2649 60.9344 39.2981 61.3805 38.3553 61.8635C37.5409 62.2807 36.7414 62.4859 35.8095 62.3126C34.7113 62.1094 33.5614 63.2337 33.5723 64.4038C33.8163 64.5223 33.9357 64.354 34.0542 64.1897C34.2314 63.9457 34.3947 63.6898 34.5849 63.4558C34.8567 63.1222 35.2042 62.936 35.6492 63.0146C36.7424 63.2078 37.6872 62.8304 38.5882 62.2688C40.1235 61.3128 41.8369 60.8776 43.5972 60.6316C45.3624 60.3837 46.9962 60.9035 48.5703 61.6424C51.4098 62.9748 53.7047 64.9694 55.3823 67.5984C57.2092 70.4604 58.7355 73.4867 59.6017 76.7958C59.8048 77.5715 59.8456 78.3901 59.982 79.1858C60.0955 79.856 60.1682 80.5451 60.3842 81.1834C60.8522 82.5616 60.7606 83.9149 60.3733 85.2762C59.8735 87.0318 58.9147 88.5415 57.8723 90.0153C58.0505 90.1946 58.2317 90.3718 58.4159 90.5471C59.0441 89.6479 59.5449 88.653 60.0437 87.6692C61.0613 85.6596 61.5023 83.4857 61.8846 81.2889Z" fill="white"/>
<path d="M54.6912 99.6766C54.053 99.9345 53.4109 100.182 52.7657 100.425C52.6622 100.668 52.5516 100.91 52.4381 101.152C52.4421 101.146 52.4461 101.142 52.4471 101.139H52.4481C52.4362 101.242 52.4212 101.347 52.4043 101.451C52.931 101.22 53.4557 100.981 53.9863 100.764C54.2432 100.658 54.4861 100.514 54.747 100.422C55.6122 100.119 56.4266 99.7393 57.1992 99.2972C57.2669 98.9178 57.3306 98.5374 57.3903 98.157C57.2041 98.2894 57.015 98.4169 56.8228 98.5384C56.1428 98.9676 55.4349 99.3769 54.6912 99.6766Z" fill="white"/>
<path d="M15.4773 71.014C15.4415 69.9026 15.3967 68.7933 15.6446 67.6999C15.6724 67.5804 15.7929 67.4828 15.992 67.2069C16.0777 67.67 16.1583 67.9478 16.1772 68.2296C16.2758 69.7194 16.4152 71.2022 16.7985 72.6501C17.0354 73.5453 17.0464 74.4406 16.908 75.3547C16.8174 75.9532 16.7487 76.5527 16.7019 77.1542C16.9837 77.201 17.2714 77.2588 17.5721 77.3205C17.595 76.3924 17.6627 75.4653 17.8031 74.5382C17.8618 74.1488 17.811 73.7326 17.7533 73.3372C17.4994 71.5637 17.0514 69.812 17.1061 68.0046C17.1529 66.469 17.2137 64.9325 17.3411 63.4019C17.4874 61.6453 17.9733 59.9554 18.8654 58.4407C19.5075 57.3493 20.0641 56.225 20.6416 55.1047C21.3345 53.7604 22.0981 52.4489 22.9046 51.1693C23.6662 49.9593 24.5384 48.8201 25.3349 47.6321C26.7108 45.5797 28.1833 43.612 29.9456 41.8683C31.1662 40.6614 32.3709 39.4355 33.5268 38.1668C35.7022 35.7828 38.1803 33.823 41.1691 32.5623C41.7167 32.3313 42.2643 32.1013 42.8119 31.8732C42.6028 31.7946 42.3937 31.7159 42.1837 31.6392C41.0487 32.1531 39.9147 32.6679 38.7807 33.1817C37.5033 33.7593 36.3772 34.5699 35.3259 35.492C34.5473 36.1742 33.7707 36.8633 32.9553 37.5006C31.2727 38.8161 29.8719 40.3975 28.5248 42.0376C27.5969 43.1658 26.7218 44.3539 25.6764 45.3636C24.5274 46.473 23.7041 47.7765 22.8966 49.1159C22.2335 50.2133 21.6591 51.3863 20.8536 52.3692C19.9287 53.4975 19.1531 54.6666 18.725 56.0597C18.7031 56.1324 18.6812 56.2121 18.6354 56.2678C18.5508 56.3664 18.4482 56.4501 18.2461 56.6433C18.272 56.3754 18.2421 56.231 18.3009 56.1484C18.8504 55.3636 18.9341 54.3658 19.5454 53.5881C20.0004 53.0085 20.2005 52.2368 20.5958 51.6024C21.8074 49.6606 23.034 47.7277 24.3024 45.8237C25.3189 44.2961 26.3404 42.7645 27.4814 41.3305C28.3884 40.1903 29.5155 39.2294 30.4782 38.129C32.565 35.744 35.0879 33.8898 37.7303 32.2048C38.469 31.7348 39.2197 31.2847 39.9794 30.8465C39.7195 30.7569 39.4547 30.6713 39.1879 30.6006C38.9419 30.745 38.696 30.8884 38.4501 31.0318C35.4463 32.7784 32.6307 34.777 30.0441 37.1023C28.4989 38.4915 27.1778 40.0788 25.8855 41.693C25.2423 42.4976 24.6569 43.3491 24.0137 44.1537C23.6792 44.5729 23.5288 45.1525 22.8707 45.3367C23.4303 44.3688 23.9321 43.361 24.5633 42.4429C25.4026 41.221 26.3265 40.0549 27.2455 38.8908C28.0868 37.8262 28.939 36.7667 29.844 35.7579C30.5838 34.9334 31.4071 34.1845 32.1986 33.4068C32.4685 33.1419 32.7323 32.8651 33.035 32.641C34.0286 31.9061 35.076 31.2379 36.0338 30.4602C36.2289 30.3018 36.428 30.1505 36.6301 30.0081C36.4788 29.8129 36.4071 29.551 36.3882 29.2343C35.2084 29.8955 34.0435 30.5807 33.0509 31.5068C31.21 33.2256 29.2457 34.8199 27.6776 36.8235C26.9189 37.7924 26.0039 38.6359 25.1895 39.562C24.7544 40.0559 24.3811 40.6036 23.9808 41.1264C23.936 41.0965 23.8922 41.0666 23.8484 41.0358C24.0127 40.7709 24.173 40.503 24.3432 40.2411C25.079 39.1069 25.6903 37.8621 26.5794 36.8633C28.8255 34.3389 31.0945 31.8195 33.7558 29.7093C34.6289 29.0172 35.522 28.356 36.4489 27.7436C36.4848 27.4219 36.5405 27.1042 36.6311 26.8005C36.6451 26.7547 36.658 26.7099 36.6699 26.6641C35.8028 27.1222 34.9545 27.6161 34.1321 28.1439C32.8816 28.9455 31.7257 29.8935 30.526 30.7738C30.3149 30.9282 30.0929 31.0666 29.7345 31.3076C29.8351 31.0557 29.843 30.973 29.8888 30.9302C30.7799 30.1166 31.6272 29.2453 32.58 28.5113C34.0186 27.403 35.4802 26.3235 36.9597 25.2699C37.0134 24.8796 37.0423 24.4902 37.0493 24.1028C36.667 24.313 36.2876 24.5291 35.9103 24.7501C34.1371 25.7898 32.581 27.1162 31.0129 28.4267C29.6777 29.543 28.3665 30.6872 27.0394 31.8145C26.8492 31.9758 26.6342 32.1073 26.4301 32.2526C26.7437 31.4749 27.1081 30.7997 27.7453 30.2978C29.3323 29.0511 30.8506 27.7117 32.4784 26.5227C33.9639 25.4362 35.4901 24.4006 37.0403 23.4088C37.0254 23.0712 36.9945 22.7346 36.9487 22.399C35.4005 23.2654 33.8354 24.1058 32.2415 24.9782C32.1608 24.7153 32.3709 24.6097 32.5441 24.4673C33.717 23.5073 34.8629 22.5145 36.0616 21.5904C36.2707 21.4291 36.4887 21.2787 36.7128 21.1363C36.6261 20.7718 36.5246 20.4083 36.4091 20.0459C35.53 20.6294 34.6837 21.2648 33.8175 21.8682C33.3147 22.2178 32.8488 22.6201 32.3659 22.9995C32.3211 22.9586 32.2763 22.9188 32.2315 22.878C32.348 22.7047 32.4416 22.5085 32.5849 22.3612C33.2341 21.691 33.8683 21.0029 34.5592 20.3795C35.0571 19.9304 35.5748 19.5151 36.1134 19.1297C35.981 18.592 36.0178 18.0861 36.3782 17.6031C35.3269 18.1707 34.3472 18.8429 33.6343 19.8855C33.3944 20.2381 33.0698 20.3546 32.4933 20.3685C33.8265 18.82 35.2323 17.5274 36.8581 16.5545C36.8989 16.1721 36.8143 15.7778 36.6391 15.3755C36.1453 14.2382 35.7311 13.0552 35.1238 11.9827C34.8091 11.428 34.1411 11.0785 33.6493 10.6194C33.2869 10.2809 32.9862 9.8656 32.5899 9.5788C32.3699 9.42046 31.8263 9.3169 31.7427 9.42644C31.2299 10.1046 30.6077 10.7499 31.1433 11.7716C31.7775 12.9805 31.1433 14.0869 29.7235 14.1436C27.8916 14.2183 26.0935 14.0879 24.5702 12.7585C23.028 11.4121 21.4331 10.1703 21.4062 7.86101C21.3823 5.78671 20.1776 4.72915 18.2501 4.32485C17.1479 5.45909 17.1798 5.75086 18.4303 6.68395C18.9261 7.05439 19.396 7.47463 19.8112 7.9337C19.9615 8.10001 20.0034 8.47045 19.9327 8.6965C19.8839 8.84886 19.5314 9.02512 19.3473 8.99525C17.9872 8.77019 16.6113 8.58099 15.2871 8.21253C14.1193 7.8879 13.5657 6.98369 13.1436 5.80165C12.8539 4.99105 11.9289 4.34576 11.1743 3.77914C10.3668 3.17368 9.41302 2.76739 8.54584 2.23661C7.71649 1.72874 7.37997 0.969929 7.55719 0H7.33716C6.72087 1.29755 5.42458 2.39794 6.0578 4.1944C6.95982 3.19459 8.44727 3.52421 9.04165 4.70625C9.42596 5.47004 9.46479 5.92912 8.48809 6.38321C7.6239 6.78453 6.9429 7.61205 6.23203 8.30415C5.73721 8.78513 5.42956 9.61564 4.86206 9.83771C2.88278 10.6115 1.83739 12.0186 1.43018 14.0291C1.29279 14.7083 0.874628 15.3844 0.927396 16.0347C1.01302 17.0853 1.33659 18.1279 1.67211 19.1377C1.73285 19.3209 2.45367 19.5181 2.6518 19.3846C3.83459 18.591 4.6709 19.0769 5.50623 19.9483C6.08766 20.5547 6.76866 21.0656 7.35707 21.6671C7.62688 21.9419 7.89271 22.3064 7.96738 22.6699C8.60358 25.7649 11.8065 26.7657 14.0586 25.9302C14.4787 25.7738 15.1975 25.744 15.4484 25.9919C15.7581 26.2966 15.7143 26.9549 15.8377 27.4558C15.9771 28.0184 15.9562 28.7892 16.3196 29.0919C17.124 29.7621 18.1246 30.1963 19.1441 30.7838C19.0336 32.6709 18.3974 33.1917 16.3933 33.0463C13.9859 32.872 11.5705 32.8033 9.15913 32.6958C8.42138 32.6639 8.06694 32.9975 8.2133 33.7613C8.52592 35.3855 7.8718 36.7567 7.09523 38.1041C5.76907 40.4034 5.63466 40.5976 3.82961 38.6508C3.77983 38.597 3.7191 38.4944 3.67728 38.5014C3.21333 38.5791 2.72149 38.607 2.30134 38.7932C2.09226 38.8858 1.8344 39.3628 1.90907 39.5181C2.34117 40.4303 1.92102 41.0995 1.34754 41.69C-0.15185 43.2365 -0.38582 44.8777 0.574948 46.8424C1.00306 47.7177 1.46304 48.3202 2.34615 48.7474C4.14522 49.6178 5.99109 50.4582 7.61792 51.5965C9.08944 52.6271 10.6038 53.141 12.3262 52.9976C13.2053 52.9249 13.4781 53.4228 13.8007 54.0123C14.1133 54.5859 14.3085 55.0559 13.6762 55.6375C12.9325 56.3236 13.0082 57.7098 13.6732 58.4158C14.4986 59.2922 14.0655 61.7588 12.9056 62.0147C11.1991 62.3902 10.784 63.5702 10.7043 64.9733C10.6376 66.1524 10.3817 67.6262 10.9512 68.4657C11.2131 68.851 11.5237 69.2026 11.8682 69.5382C11.8831 69.338 11.8981 69.1388 11.912 68.9397C11.9837 68.9387 12.0554 68.9367 12.1271 68.9347C12.1271 69.2046 12.1261 69.4744 12.1251 69.7433V69.7791C12.5074 70.1287 12.9245 70.4643 13.3556 70.8078C13.3955 69.3908 13.7997 68.0394 14.0854 66.6632C14.1073 66.5557 14.2875 66.481 14.3941 66.3904C14.4757 66.5238 14.63 66.6592 14.6251 66.7887C14.6061 67.2906 14.5325 67.7905 14.4847 68.2914C14.3801 69.3898 14.3134 70.4862 14.3234 71.5826C14.5016 71.729 14.6788 71.8793 14.856 72.0347C14.7286 72.3364 14.5683 72.7168 14.3921 73.1361C14.4349 73.6599 14.4986 74.1837 14.5882 74.7075C14.7057 75.3956 14.6748 76.1175 14.644 76.8216C14.642 76.8574 14.641 76.8923 14.64 76.9281C14.9138 76.9889 15.2403 77.0237 15.6177 77.0367C15.6087 76.6931 15.6008 76.3496 15.5928 76.006C15.554 74.342 15.5331 72.677 15.4773 71.014ZM36.432 15.1245C36.4509 15.1624 36.4698 15.2002 36.4887 15.238C36.3573 15.3068 36.2259 15.3745 36.0945 15.4432C36.0746 15.4044 36.0547 15.3645 36.0357 15.3257C36.1682 15.259 36.2996 15.1912 36.432 15.1245ZM27.4127 28.827C27.4436 28.8758 27.4754 28.9256 27.5063 28.9744C27.2285 29.1825 26.9508 29.3907 26.5824 29.6675C26.7324 29.1337 27.0092 28.8536 27.4127 28.827ZM27.0443 33.9694C27.0812 34.0043 27.118 34.0391 27.1559 34.074C26.6959 34.558 26.2349 35.0409 25.7749 35.5249C25.7411 35.493 25.7072 35.4612 25.6734 35.4283C26.1304 34.9414 26.5874 34.4554 27.0453 33.9684L27.0443 33.9694ZM23.6393 41.4301C23.6752 41.453 23.712 41.4759 23.7479 41.4988C23.6822 41.6094 23.6174 41.7199 23.5517 41.8294C23.5059 41.8006 23.4611 41.7707 23.4153 41.7418C23.49 41.6373 23.5647 41.5337 23.6393 41.4291V41.4301ZM20.9532 48.2296C20.9751 48.2704 20.996 48.3122 21.0179 48.3531C20.9114 48.4268 20.8048 48.4995 20.6983 48.5731C20.6754 48.5413 20.6525 48.5104 20.6306 48.4785C20.7381 48.3959 20.8466 48.3122 20.9542 48.2296H20.9532ZM19.5404 50.3537C19.5832 50.3835 19.626 50.4134 19.6688 50.4423C19.5653 50.5957 19.4608 50.749 19.3572 50.9014C19.3204 50.8695 19.2845 50.8386 19.2477 50.8068C19.3453 50.6554 19.4428 50.504 19.5404 50.3527V50.3537ZM15.6764 63.8839C15.8138 61.6323 16.7597 59.6168 17.5442 57.5554C17.582 57.4559 17.7841 57.42 18.032 57.2896C17.9414 57.5684 17.9006 57.6849 17.8648 57.8034C17.5054 59.0084 17.124 60.2063 16.7955 61.4192C16.5794 62.2209 16.444 63.0434 16.2648 63.855C16.1961 64.1647 16.1583 64.5033 15.7043 64.6507C15.6924 64.3659 15.6615 64.1229 15.6764 63.8819V63.8839ZM13.0789 64.2085C13.0828 64.0661 13.0858 63.9237 13.0898 63.7803C13.1177 63.7803 13.1446 63.7803 13.1725 63.7803C13.1874 63.9187 13.2013 64.0582 13.2163 64.1966C13.1705 64.2006 13.1257 64.2045 13.0799 64.2075L13.0789 64.2085ZM14.6858 65.2322C14.629 65.2183 14.5723 65.2053 14.5165 65.1914C14.4399 63.6877 14.9098 61.0607 15.4036 60.2252C15.1647 61.8913 14.9257 63.5622 14.6868 65.2322H14.6858Z" fill="white"/>
<path d="M56.3594 97.5537C56.673 97.8484 56.9189 97.6403 57.1121 97.474C57.2554 97.3505 57.3998 97.228 57.5451 97.1055C57.5929 96.768 57.6367 96.4294 57.6776 96.0918C57.4784 96.273 57.2753 96.4523 57.0702 96.6285C56.7765 96.8805 56.435 97.1205 56.3594 97.5537Z" fill="white"/>
<path d="M64.1478 34.2444C64.78 34.1637 64.8726 33.8181 64.5251 33.2854C64.3509 33.0195 64.1408 32.8004 63.9079 32.6172C63.6629 32.6291 63.417 32.65 63.1741 32.6779C63.2239 32.7068 63.2727 32.7377 63.3214 32.7686C63.6789 32.9956 63.9805 33.2436 63.8999 33.7494C63.643 33.9516 63.3543 33.9566 63.0516 33.864C62.281 33.6279 61.5005 33.4188 60.7358 33.1669C60.3525 33.2436 59.9702 33.3093 59.5879 33.3641C60.5576 33.6479 61.5214 33.9516 62.5021 34.1906C63.0257 34.319 63.6082 34.3141 64.1478 34.2444Z" fill="white"/>
<path d="M41.2174 34.3966C39.043 35.3427 37.0598 36.5884 35.2925 38.1668C32.9927 40.2202 30.8073 42.3881 28.9545 44.8637C27.4152 46.9211 25.8631 48.9725 24.4095 51.0906C22.7826 53.4606 21.2385 55.8884 19.7082 58.3242C19.3378 58.9127 19.1268 59.6138 18.9117 60.286C17.8016 63.7644 17.8325 67.2995 18.4985 70.8437C18.6598 71.7011 18.9764 72.5435 19.3239 73.3492C19.6186 74.0313 20.1492 74.581 20.8641 74.8489C21.3111 75.0152 21.4396 75.3249 21.4346 75.7202C21.4206 76.8296 21.4306 77.9429 21.336 79.0472C21.1419 81.3287 21.2086 83.6041 21.6357 85.8417C21.9623 87.5516 22.5427 89.2046 23.2506 90.8089C24.2631 93.1043 25.874 94.9246 27.6701 96.6205C28.7125 97.6054 29.8535 98.404 31.0721 99.0533C31.1976 98.8113 31.3698 98.5653 31.5859 98.3144C29.5877 97.208 27.8384 95.7481 26.34 93.9467C25.4688 92.8991 24.6106 91.8177 23.9276 90.6466C23.375 89.7005 23.0525 88.6101 22.701 87.5595C21.9583 85.3428 21.8199 83.0504 22.023 80.7401C22.1624 79.1488 22.1942 77.5625 22.0638 75.9721C22.02 75.4344 22.03 74.9116 22.6154 74.4406C22.2072 74.3768 21.9264 74.2982 21.6457 74.2952C20.6192 74.2872 20.0666 73.7027 19.8137 72.7885C19.6534 72.207 19.5987 71.5965 19.4483 71.011C18.7355 68.2466 18.8211 65.4523 19.1885 62.663C19.308 61.7508 19.6614 60.8616 19.972 59.9843C20.5584 58.3272 21.6228 56.9331 22.5188 55.4433C23.8599 53.2107 25.5485 51.237 27.0708 49.1398C28.4039 47.3025 29.7131 45.4473 31.0711 43.6289C32.005 42.3771 32.9947 41.1672 33.9813 39.9563C34.2661 39.6068 34.6026 39.2871 34.96 39.0123C37.4938 37.0635 40.1412 35.3058 43.1479 34.1517C43.9036 33.8619 44.6434 33.5333 45.3851 33.2086C45.5275 33.1459 45.6738 33.0861 45.8172 33.0204C45.5046 32.8999 45.1919 32.7794 44.8793 32.6589C44.6424 32.7754 44.4074 32.8959 44.1724 33.0184C43.2107 33.5223 42.214 33.9625 41.2174 34.3966Z" fill="white"/>
<path d="M63.0786 85.7403C63.4201 84.5124 63.5873 83.2109 63.6511 81.9342C63.7496 79.9227 63.7257 77.9031 63.6969 75.8876C63.661 73.3951 63.0099 71.039 61.9316 68.8043C61.39 67.681 60.6363 66.6882 59.7184 65.8448C59.4396 65.5898 59.0175 65.3648 58.6541 65.3528C57.6047 65.316 56.858 64.8101 56.17 64.0871C54.9145 62.7687 53.5267 61.5926 52.0432 60.537C50.2143 59.2355 48.2151 58.2915 46.0098 57.8204C45.6912 57.7527 45.3586 57.6979 45.0361 57.7099C42.7372 57.7965 40.5259 58.2257 38.5347 59.4615C38.02 59.7812 37.5022 60.0959 36.9935 60.4255C36.8581 60.5131 36.7506 60.6466 36.6191 60.7691C36.9039 61.0857 37.1737 60.9573 37.4146 60.8388C37.9353 60.5828 38.4501 60.313 38.9558 60.0282C41.0088 58.869 43.2141 58.3532 45.5647 58.4538C46.8083 58.5075 47.9134 59.0055 49.0066 59.5452C51.5842 60.8188 53.9608 62.3693 55.9082 64.5173C56.0267 64.6478 56.169 64.7673 56.2536 64.9176C56.6708 65.6595 57.1985 66.0678 58.1413 65.9304C58.5227 65.8746 58.9886 66.1933 59.3699 66.4183C59.6437 66.5797 59.8827 66.8406 60.0659 67.1065C61.5075 69.1857 62.6574 71.3885 62.8904 73.9677C62.989 75.0501 63.1931 76.1326 63.1811 77.213C63.1622 78.9239 63.0129 80.6347 62.8964 82.3435C62.8546 82.9719 62.753 83.5953 62.6734 84.2206C62.4314 86.1157 61.7196 87.8484 60.6662 89.4128C60.2222 90.0721 59.7662 90.7233 59.2962 91.3666C59.4784 91.523 59.805 91.5429 60.1206 91.5449C60.1565 91.4981 60.1913 91.4503 60.2252 91.4035C61.4776 89.6728 62.5051 87.7996 63.0786 85.7403Z" fill="white"/>
<path d="M52.2421 102.688C52.2371 102.823 52.2421 102.958 52.26 103.09C52.2739 103.2 52.3028 103.313 52.3426 103.426C53.5294 103.028 54.7022 102.584 55.8571 102.103C56.0264 102.032 56.1927 101.959 56.3579 101.882C56.5441 101.576 56.7014 101.25 56.8269 100.905C55.7486 101.52 54.6116 102.031 53.386 102.384C53.0077 102.494 52.6244 102.59 52.2421 102.688Z" fill="white"/>
<path d="M94.3186 118.608C93.4027 114.925 92.9706 111.205 93.5092 107.404C93.6237 106.593 93.3877 105.734 93.3409 104.896C93.1109 100.695 92.9297 96.4909 91.8346 92.3921C91.6872 91.8404 91.8913 91.1941 91.74 90.6454C91.4144 89.4634 91.1814 88.1698 90.5194 87.185C88.7283 84.5221 88.4166 81.5446 88.2962 78.5024C88.2673 77.7725 88.56 77.0346 88.6406 76.2937C88.6934 75.7998 88.7671 75.2411 88.5998 74.8009C87.642 72.2835 87.0238 69.7053 86.8983 67.0096C86.8645 66.2817 86.5389 65.8764 85.6847 66.0308C85.2904 66.1025 84.8473 65.9033 84.1614 65.7788C83.8786 66.0238 83.2713 66.4072 82.8601 66.9409C82.4131 67.5225 82.0098 67.6171 81.6096 67.4378C81.5748 67.5404 81.51 67.639 81.3985 67.7306C81.3328 67.6091 81.2592 67.405 81.1835 67.154C81.1108 67.0923 81.0381 67.0236 80.9645 66.9499C80.6598 66.6442 80.38 66.3136 79.7936 66.0088C79.7936 66.8324 79.7727 67.6569 79.7996 68.4805C79.8245 69.2383 80.0863 70.0459 79.8981 70.737C79.7289 71.3564 79.1992 72.0435 78.6367 72.3592C78.0274 72.7018 77.5137 73.1608 77.1204 73.6926C77.2359 74.1527 77.3255 74.6187 77.2737 75.1067C77.1911 75.034 77.1423 74.9533 77.1154 74.8667C77.0338 74.6008 76.9521 74.3339 76.8695 74.068C76.2184 75.1525 76.0332 76.4709 76.4832 77.7167C77.3683 80.1664 77.0507 80.99 74.719 82.2945C72.9079 83.3082 72.2847 83.2405 71.5977 81.5905C71.535 81.9639 71.4723 82.3373 71.4115 82.7108C71.3438 83.131 71.3179 83.5602 71.2194 83.9725C71.0282 84.7781 70.8261 85.5837 70.5782 86.3734C70.4707 86.7179 70.3472 87.0575 70.2168 87.3951C72.8273 90.3427 75.1501 93.3511 75.9625 97.2876C76.1317 98.1051 76.3747 98.9187 76.6833 99.6945C77.882 102.706 79.2221 105.679 78.8279 109.055C78.8199 109.121 78.8657 109.193 78.8906 109.277C79.1604 109.228 79.4312 109.179 79.7398 109.123C79.7916 109.316 79.8653 109.456 79.8543 109.588C79.8404 109.762 79.7598 109.931 79.706 110.107C78.4436 109.504 77.8651 109.556 77.8233 110.395C77.7426 112.025 77.8512 113.672 78.0055 115.301C78.0583 115.85 78.5063 116.058 79.1664 115.737C80.2695 115.201 80.4766 114.287 80.5901 113.221C80.6548 112.604 80.9047 112.008 81.072 111.401C81.2771 111.454 81.4812 111.508 81.6863 111.561C81.3478 112.905 81.304 114.443 80.5871 115.541C79.8653 116.648 80.1461 117.331 80.7156 118.13C81.4961 119.223 81.7918 120.398 81.7858 121.734C81.7828 122.379 82.0437 123.086 82.3673 123.663C83.9383 126.46 85.5702 129.224 87.1811 132H87.8412C87.4798 130.968 86.9172 129.96 86.7968 128.902C86.4513 125.841 85.0505 122.961 85.3203 119.797C85.4756 117.972 86.741 117.084 88.0911 116.232C88.2066 116.159 88.3708 116.138 88.5122 116.138C89.2738 116.138 91.7629 117.911 92.0705 118.64C92.3652 119.339 92.6838 120.027 92.9825 120.699C94.692 120.245 94.7029 120.154 94.3186 118.608ZM71.4245 88.5064C71.3747 88.4706 71.3249 88.4347 71.2761 88.3999C71.4125 88.1788 71.5499 87.9577 71.6863 87.7367C71.7441 87.7755 71.8008 87.8143 71.8586 87.8532C71.7142 88.0712 71.5688 88.2893 71.4245 88.5074V88.5064ZM72.7357 85.6166C72.6929 85.6116 72.6511 85.6066 72.6093 85.6016C72.6302 85.4921 72.6511 85.3835 72.672 85.274C72.6959 85.278 72.7198 85.282 72.7447 85.2859L72.7367 85.6166H72.7357Z" fill="white"/>
<path d="M40.332 107.221C40.4664 107.54 40.787 107.765 41.3466 108.048C41.3466 108.048 41.3472 108.048 41.3486 108.048C41.3486 108.048 41.3495 108.049 41.3505 108.048H41.3515C42.6498 108.031 43.9471 107.927 45.2414 107.797C45.4465 107.543 45.6197 107.237 45.7571 106.884C43.9481 107.127 42.1401 107.24 40.332 107.221Z" fill="white"/>
<path d="M47.1506 103.009C47.2312 102.803 47.3109 102.596 47.3895 102.388C47.29 102.415 47.1894 102.439 47.0879 102.46C45.9548 102.695 44.789 102.812 43.6321 102.882C41.7553 102.996 39.8736 103.036 38.0059 102.849C38.0447 103.105 38.0825 103.361 38.1502 103.609C38.5973 103.641 39.0453 103.662 39.4953 103.677C42.0869 103.762 44.6366 103.506 47.1506 103.009Z" fill="white"/>
<path d="M78.5131 56.4142C78.3678 55.4552 78.1547 54.5112 77.8172 53.5891C77.2816 52.1292 76.7867 50.6514 76.3447 49.1606C75.8768 47.5793 75.2684 46.0577 74.4719 44.6247C73.6894 43.2146 72.7933 41.8673 71.959 40.4851C71.049 38.9744 69.8742 37.6888 68.557 36.5376C67.9895 36.0427 67.3424 35.6364 66.7141 35.2172C66.505 35.0768 66.2482 34.8935 65.9355 35.1803C66.0072 35.2918 66.052 35.4123 66.1377 35.483C66.5638 35.8386 67.0248 36.1552 67.432 36.5307C70.4875 39.3448 72.877 42.64 74.3873 46.5187C75.2216 48.6607 75.9116 50.8585 76.6494 53.0364C76.7708 53.3929 76.7987 53.7783 76.8853 54.1467C77.0605 54.8926 77.1621 55.6544 77.2726 56.4142C77.4289 56.4311 77.5872 56.455 77.7465 56.4889C78.0472 56.5526 78.3051 56.5237 78.5131 56.4142Z" fill="white"/>
<path d="M68.4626 85.4096C68.823 84.2843 69.1406 83.1401 69.3945 81.987C69.7768 80.2483 69.6752 78.4777 69.5647 76.7201C69.5627 76.6932 69.5617 76.6673 69.5597 76.6404C69.3437 76.3984 69.1057 76.1584 68.8897 75.8936C68.7613 76.019 68.6517 76.1455 68.5591 76.271C68.5741 76.499 68.595 76.7271 68.6318 76.9511C68.8758 78.4339 68.9086 79.8977 68.5721 81.3835C68.1818 83.1053 67.9638 84.8609 67.238 86.501C66.4534 88.2776 65.5235 89.9565 64.3457 91.4821C65.0745 91.3616 65.6749 90.9524 65.9417 89.7783C65.9686 89.6568 66.1259 89.5522 66.2433 89.4666C66.4275 89.3312 66.6117 89.1967 66.7969 89.0613C67.0259 88.6669 67.2489 88.2676 67.466 87.8653C67.8841 87.0916 68.1938 86.2491 68.4626 85.4096Z" fill="white"/>
</svg>
