<svg width="94" height="132" viewBox="0 0 94 132" fill="none" xmlns="http://www.w3.org/2000/svg">
<path d="M43.1702 68.8634C40.981 69.0743 38.9889 69.8418 37.3434 71.2827C36.2939 72.2018 35.3701 73.2891 34.5137 74.3973C33.5721 75.6173 33.2721 77.1187 32.9948 78.613C32.6245 80.6115 32.7334 82.5644 33.4117 84.4807C33.5463 84.859 33.676 85.2472 33.875 85.5918C34.8394 87.2624 36.0909 88.7043 37.5652 89.9353C38.0167 90.3116 38.6048 90.5473 39.1602 90.7701C40.5305 91.3198 41.9335 91.6347 43.4266 91.2861C44.0355 91.1435 44.6702 91.1148 45.291 91.0177C46.1375 90.885 46.8692 90.5037 47.4623 89.8907C48.7376 88.5726 49.9742 87.2248 51.0079 85.6977C51.297 85.2699 51.5415 84.8312 51.7069 84.3668C51.4762 84.347 51.2455 84.3321 51.0188 84.3182C50.7227 85.1541 50.3197 85.9513 49.7752 86.6732C48.894 87.8438 47.8554 88.8677 46.6801 89.7422C46.3435 89.9927 45.9514 90.2215 45.5494 90.3245C44.1326 90.6879 42.682 90.8989 41.2226 90.6939C39.7028 90.48 38.3454 89.8858 37.1741 88.846C34.88 86.8079 33.6919 84.2786 33.6552 81.2136C33.6453 80.3352 33.6671 79.4558 33.6958 78.5774C33.7443 77.0414 34.2542 75.6778 35.2869 74.527C36.2592 73.4426 37.2246 72.3513 38.2295 71.2976C38.4949 71.0193 38.8771 70.8242 39.2394 70.6717C40.0038 70.3519 40.784 70.0676 41.5702 69.8032C42.0444 69.6438 42.5405 69.5507 43.0256 69.4259C43.3058 69.3546 43.6316 69.3516 43.7563 68.905C43.5375 68.8882 43.3514 68.8456 43.1702 68.8634Z" fill="white"/>
<path d="M31.0892 71.2948C29.2377 73.3269 28.3169 75.7155 28.1911 78.4736C28.0901 80.6909 28.3901 82.8092 29.0001 84.9393C29.6763 87.3032 30.9436 89.2828 32.5011 91.1129C33.2565 92.0012 34.2268 92.637 35.2437 93.2015C35.6823 93.4441 36.0912 93.7402 36.514 94.0116C36.7803 94.1819 37.0279 94.4176 37.4288 94.28C37.2684 93.7026 36.7467 93.5412 36.3516 93.2906C33.6387 91.5625 31.4436 89.3739 30.203 86.3584C29.707 85.1512 29.2149 83.9183 28.9476 82.6487C28.5901 80.9533 28.5882 79.2173 28.805 77.4743C29.0248 75.7136 29.7506 74.2113 30.8149 72.8407C31.5535 71.89 32.2783 70.9244 33.0753 70.0242C34.4357 68.4862 36.1912 67.5078 38.0378 66.673C39.0902 66.1976 40.1338 65.7005 41.1804 65.2093C41.2655 65.1687 41.3358 65.0964 41.4121 65.039C41.3972 64.9706 41.3823 64.9033 41.3675 64.835C41.0883 64.8775 40.7982 64.8865 40.5309 64.9667C37.7922 65.7906 35.3348 67.1285 33.2268 69.0666C32.4704 69.7618 31.7823 70.5342 31.0892 71.2948Z" fill="white"/>
<path d="M58.5429 79.2479C58.3409 77.6545 58.2409 76.0443 57.7429 74.4984C57.2547 72.9832 56.5626 71.571 55.6696 70.2569C54.4785 68.506 53.1587 66.868 51.5567 65.4667C49.9349 64.0486 48.1249 62.9295 46.1685 62.0561C45.5823 61.7936 44.916 61.7105 44.2843 61.556C44.2289 61.5431 44.1536 61.6124 43.918 61.7233C44.2041 61.9085 44.3724 62.0442 44.5615 62.1353C45.6002 62.6354 46.6338 63.1484 47.6903 63.6109C49.5141 64.4091 51.0279 65.6242 52.4656 66.973C54.1864 68.5872 55.3725 70.5589 56.3676 72.6564C56.6874 73.3308 56.8646 74.0765 57.0755 74.7984C57.7557 77.1237 58.2052 79.4906 58.1448 81.9238C58.1062 83.4875 57.931 85.0284 57.0874 86.4198C56.7745 86.9347 56.5042 87.4774 56.2359 88.0201C56.3616 88.1885 56.4933 88.3529 56.629 88.5143C57.6973 87.0001 58.5557 85.3958 58.6963 83.4548C58.7983 82.0416 58.7211 80.6453 58.5429 79.2479Z" fill="white"/>
<path d="M39.7383 62.9318C39.9541 63.0734 40.0264 63.1547 40.1096 63.1655C40.2294 63.1834 40.364 63.1725 40.4809 63.1358C41.7284 62.7546 42.6947 63.2101 43.4819 64.1559C43.8254 64.5668 44.2799 64.752 44.7621 64.9045C45.169 65.0343 45.5849 65.1392 45.9878 65.2789C48.1364 66.0266 49.9473 67.1565 51.3938 68.6955C51.5562 68.6677 51.7196 68.64 51.8889 68.6123C51.8255 68.7767 51.7661 68.9183 51.7057 69.0391C52.0948 69.4837 52.4552 69.9611 52.7859 70.4711C52.978 70.4127 53.1691 70.3552 53.3592 70.2978C52.3721 68.8658 51.2235 67.5774 49.777 66.5504C48.6453 65.7463 47.4671 65.0531 46.1076 64.6758C45.0126 64.3727 43.9858 63.8667 43.1195 63.12C42.0789 62.2257 41.0106 62.4139 39.7383 62.9318Z" fill="white"/>
<path d="M47.6382 67.5773C45.5253 66.3116 43.2877 66.1215 40.9768 66.9256C38.7005 67.7169 36.5678 68.7934 34.8797 70.5571C33.5707 71.9247 32.5212 73.4894 31.7707 75.2413C31.6618 75.4948 31.5331 75.7404 31.4123 75.99C30.3727 78.1172 30.3608 80.3493 30.739 82.6221C31.1608 85.1613 32.3757 87.2914 34.0906 89.1721C34.9539 90.1198 35.8114 91.0626 36.8985 91.7766C38.5668 92.8729 40.3599 93.5859 42.357 93.7691C43.2976 93.8552 44.2144 93.7721 45.1075 93.4601C45.558 93.3017 46.0095 93.1462 46.457 92.9778C47.5521 92.5639 48.5461 91.9885 49.3541 91.1259C49.7808 90.6714 50.2214 90.2267 50.6511 89.7732C50.562 89.6088 50.4768 89.4513 50.3927 89.2978C49.3907 90.5813 48.1382 91.5775 46.662 92.3074C44.5996 93.3284 42.4035 93.5116 40.2916 92.7283C37.9757 91.8697 35.9133 90.5149 34.245 88.6165C32.7737 86.9438 31.8301 85.0444 31.5044 82.8439C31.3806 81.9992 31.2955 81.1485 31.2034 80.2998C31.0658 79.0203 31.3074 77.8102 31.7985 76.6228C32.44 75.0749 33.3569 73.6984 34.3678 72.3842C35.0074 71.5534 35.6252 70.6373 36.452 70.0313C38.2629 68.7033 40.2629 67.6832 42.5213 67.3079C43.6679 67.1168 44.8015 67.0821 45.9402 67.4763C48.0946 68.223 49.661 69.7243 51.063 71.4167C51.1788 71.5573 51.2917 71.7029 51.3967 71.8554C51.4382 71.6782 51.4828 71.4781 51.5323 71.2533C50.8303 70.2343 49.9521 69.3509 48.9729 68.5507C48.5461 68.2031 48.1085 67.8585 47.6382 67.5773Z" fill="white"/>
<path d="M57.5349 93.7462C57.5181 93.5105 57.4408 93.2521 57.327 93.0154C57.1795 93.2026 57.0299 93.3877 56.8795 93.5729C55.8676 94.8187 54.6913 95.8289 53.3933 96.6528C53.3467 97.0054 53.2824 97.3549 53.1992 97.7015C53.6042 97.451 53.9864 97.1598 54.3487 96.837C55.4577 95.8497 56.5309 94.8286 57.5349 93.7462Z" fill="white"/>
<path d="M54.3624 80.0772C54.3199 78.454 54.0852 76.8834 53.3674 75.395C53.0208 74.677 52.8486 73.8768 52.5485 73.1331C52.3446 72.63 52.103 72.1556 51.8278 71.707C51.7881 71.8635 51.7683 72.0378 51.7664 72.2289C51.7654 72.319 51.7654 72.4101 51.7664 72.5013C51.9198 72.835 52.0208 73.1955 52.0396 73.5837C52.0476 73.7609 52.0693 73.9709 51.9782 74.1026C52.1307 74.6344 52.2614 75.1652 52.3614 75.698C53.1377 76.2486 53.5159 77.0409 53.5634 78.0282C53.6317 79.4651 53.6565 80.911 53.6 82.3489C53.7862 82.652 53.9743 82.954 54.1416 83.259C54.3258 82.2311 54.3911 81.1675 54.3624 80.0772Z" fill="white"/>
<path d="M52.5912 91.7476C52.8427 91.4387 53.0753 91.1059 53.2872 90.7484C53.6585 90.1205 53.9625 89.4531 54.2773 88.7906C54.1437 88.5103 54.0219 88.2221 53.913 87.927C53.6278 88.5875 53.3318 89.2441 53.0407 89.9037C52.8041 90.4394 52.4971 90.9108 52.1367 91.3317C52.3219 91.4694 52.4694 91.604 52.5912 91.7476Z" fill="white"/>
<path d="M50.8552 56.0739C52.4929 56.5889 53.9157 57.4405 55.079 58.7171C55.3186 58.9795 55.6117 59.1934 55.9305 59.4756C56.1028 59.034 55.8711 58.8458 55.7216 58.6329C54.5751 56.9999 52.986 56.0085 51.1018 55.4441C50.8404 55.3658 50.58 55.2212 50.3008 55.5114C50.3196 55.9016 50.5929 55.9907 50.8552 56.0739Z" fill="white"/>
<path d="M75.0439 52.4796C74.6826 51.1526 74.3598 49.8058 73.8667 48.5273C73.2716 46.9853 72.5568 45.486 71.8182 44.0055C70.2211 40.7998 67.5231 38.7113 64.5023 36.9832C63.6349 36.487 62.6914 36.1256 61.825 35.6294C60.224 34.7154 58.5121 34.1776 56.6854 34.033C54.3022 33.8439 51.92 33.9697 49.5378 34.1222C45.8625 34.3569 42.4961 35.4937 39.4476 37.5437C38.1129 38.4409 36.8208 39.4035 35.5396 40.376C34.9416 40.8286 34.4079 41.3673 33.8624 41.8862C33.7693 41.9744 33.7624 42.1556 33.7148 42.2932C33.7624 42.3289 33.8099 42.3645 33.8574 42.4002C34.095 42.2388 34.3515 42.1001 34.5673 41.913C34.9079 41.6169 35.2178 41.2851 35.5456 40.9741C37.1119 39.4867 38.9773 38.432 40.8357 37.3803C41.706 36.8881 42.6427 36.5058 43.5704 36.1266C44.2437 35.8512 44.9615 35.6888 45.6417 35.4274C46.8288 34.9709 48.0526 34.7461 49.3209 34.7045C51.0784 34.646 52.8348 34.4807 54.5893 34.4965C56.9814 34.5183 59.2844 35.0748 61.4042 36.188C63.0874 37.0713 64.7538 37.9913 66.3152 39.1024C67.935 40.2552 69.3538 41.5772 70.4231 43.2499C70.9231 44.0302 71.33 44.869 71.7994 45.6692C72.7667 47.3151 73.3212 49.1135 73.7677 50.9506C74.1241 52.4152 74.3736 53.9106 74.7964 55.3555C74.8826 55.6506 74.9647 55.9457 75.0439 56.2418C75.3647 56.1636 75.6895 56.1091 76.0192 56.0883C75.6984 54.8841 75.3717 53.6818 75.0439 52.4796Z" fill="white"/>
<path d="M71.5816 54.7802C71.4697 54.1889 71.341 53.5918 71.1311 53.0303C70.4013 51.0764 69.5716 49.17 68.5756 47.33C66.4399 43.3846 63.53 40.274 59.325 38.5182C57.4567 37.7388 55.5448 37.1654 53.4754 37.3397C50.8259 37.5636 48.2586 38.1161 45.7922 39.1164C45.3021 39.3144 44.815 39.5224 44.314 39.6858C42.9298 40.1394 41.7219 40.8851 40.6001 41.8011C40.0169 42.2765 39.407 42.7251 38.7773 43.137C36.1832 44.8344 33.7743 46.7636 31.4703 48.8343C29.5921 50.5238 28.0534 52.5014 26.5158 54.484C25.1267 56.2745 23.7663 58.0908 23.0227 60.2645C22.6336 61.4024 22.294 62.564 22.0316 63.7375C21.8415 64.5942 21.8623 65.4864 22.0861 66.352C22.3019 67.1838 22.6623 67.3413 23.3821 66.8857C24.1762 66.3837 24.8356 65.7231 25.3356 64.9299C26.192 63.5712 27.0049 62.1847 27.8505 60.8191C29.3921 58.3294 31.3188 56.127 33.2792 53.9849C34.9347 52.1766 36.8426 50.5852 38.7367 49.0175C40.4001 47.641 42.1862 46.412 43.9466 45.1573C44.5981 44.6928 45.3071 44.2917 46.0328 43.954C46.9952 43.5064 47.7516 43.8035 48.2209 44.7572C48.4081 45.1365 48.518 45.5574 48.6388 45.9664C48.7615 46.3773 48.9823 46.6804 49.3982 46.8359C49.9853 47.0547 50.5497 47.3974 51.1546 47.4944C52.1279 47.6499 52.9715 48.0322 53.7794 48.557C55.0428 49.376 56.3735 50.1039 57.5715 51.0081C59.7211 52.6312 61.7676 54.3781 63.1161 56.7865C63.2646 57.0509 63.5122 57.2609 63.6914 57.4689C64.0538 57.3223 64.0221 57.1143 63.93 56.9281C63.7854 56.636 63.6231 56.3508 63.4409 56.0814C62.4112 54.5514 61.1488 53.2164 59.8607 51.9102C59.5112 51.5557 59.1012 51.2497 58.6804 50.9813C56.9874 49.8989 55.2883 48.8264 53.5745 47.7776C52.8457 47.331 52.0774 46.9636 51.1952 46.8824C50.6645 46.8339 50.1754 46.6427 49.7962 46.2209C49.0685 45.4128 48.3942 44.577 48.0308 43.5282C47.9279 43.2311 47.7556 42.9588 47.6279 42.7023C46.7655 42.7072 46.1437 43.1093 45.5486 43.5203C44.1011 44.5205 42.6744 45.5514 41.2476 46.5804C39.903 47.5499 38.4753 48.4303 37.2496 49.5335C35.2159 51.3646 33.3109 53.3383 31.3614 55.2624C31.0406 55.5784 30.7386 55.924 30.4842 56.2953C29.1059 58.3027 27.7287 60.312 26.3841 62.3422C25.6326 63.4751 24.9029 64.6159 23.8722 65.527C23.5811 65.7835 23.2811 65.9776 22.8732 65.9856C22.5722 65.6687 22.591 65.2874 22.5851 64.914C22.5524 62.8968 23.1861 61.0409 24.089 59.2891C25.1524 57.2272 26.5336 55.3625 28.1247 53.6779C29.798 51.9073 31.5406 50.2019 33.2584 48.4748C35.0495 46.6715 36.909 44.9473 39.0179 43.5094C41.309 41.9477 43.6585 40.4939 46.2962 39.5808C47.317 39.2273 48.3794 38.9896 49.3883 38.6054C51.8933 37.6527 54.4547 37.8527 56.9715 38.3469C59.2171 38.7876 61.1874 39.9492 62.9488 41.4188C64.9181 43.0618 66.4726 45.0622 67.8231 47.227C68.331 48.0401 68.6875 48.9155 68.9578 49.8444C69.337 51.1457 69.7974 52.4262 70.2776 53.6948C70.7429 54.9277 71.1212 56.1795 71.4053 57.459C71.6231 57.4223 71.839 57.3718 72.0538 57.3104C71.8974 56.4667 71.741 55.6229 71.5816 54.7802Z" fill="white"/>
<path d="M74.0878 56.5399C73.8739 55.6704 73.6501 54.8029 73.3996 53.9433C72.9155 52.2855 72.3501 50.6515 71.8709 48.9927C71.5313 47.8221 71.0056 46.7486 70.3758 45.7177C69.1214 43.6678 67.5431 41.8793 65.8768 40.164C64.8867 39.145 63.8065 38.2141 62.5282 37.6041C60.2282 36.5068 57.8381 35.666 55.2579 35.5056C52.3885 35.3274 49.5984 35.674 46.8677 36.5959C44.8835 37.2654 43.0083 38.1745 41.0954 39.0083C39.7063 39.6144 38.532 40.4592 37.43 41.4722C35.7082 43.0568 33.9131 44.5501 31.8398 45.6811C31.2735 45.9901 30.7398 46.402 30.2784 46.8556C28.4715 48.6322 26.6952 50.4326 25.319 52.5915C24.4021 54.0304 23.3536 55.3852 22.416 56.8112C21.1625 58.7166 20.5734 60.8765 20.2011 63.0938C19.8952 64.9199 20.0853 66.754 20.2585 68.5811C20.2942 68.9554 20.3219 69.3357 20.41 69.6982C20.5209 70.1527 20.6982 70.2626 21.1229 70.0824C21.5803 69.8883 22.0011 69.6071 22.4328 69.3555C22.9506 69.0545 23.4279 68.6346 23.9843 68.4593C25.3101 68.0404 26.2299 67.1659 27.0081 66.0835C28.3854 64.1683 29.7468 62.2411 31.1388 60.3377C33.4854 57.1291 36.0032 54.0789 38.9478 51.3774C41.0538 49.4443 43.4043 47.9598 45.9974 46.816C46.239 46.709 46.4697 46.5793 46.8816 46.3713C46.5647 46.2446 46.4202 46.1307 46.2974 46.1495C46.0023 46.1951 45.7063 46.2802 45.4281 46.3901C42.1964 47.6706 39.3548 49.5017 37.132 52.2251C36.2112 53.354 35.232 54.4345 34.2904 55.5466C33.1547 56.8875 31.9695 58.1917 30.918 59.596C29.5656 61.4013 28.3448 63.3057 27.0289 65.1388C26.2814 66.1796 25.4913 67.1966 24.3279 67.8324C23.4912 68.2909 22.6655 68.7722 21.8298 69.2337C21.617 69.3516 21.3833 69.4338 21.0338 69.5882C20.9199 69.1525 20.811 68.8465 20.7635 68.5316C20.6774 67.9602 20.612 67.3848 20.5655 66.8084C20.3882 64.6198 20.6308 62.4917 21.5477 60.4724C21.9734 59.5346 22.4328 58.6126 22.8586 57.6748C23.412 56.4577 24.0784 55.302 24.92 54.2691C26.1566 52.7529 27.4824 51.311 28.7151 49.7929C29.5765 48.7342 30.5141 47.7667 31.5616 46.8972C32.9359 45.7573 34.2725 44.5709 35.6844 43.4816C37.2943 42.2388 38.8795 40.9226 40.6379 39.9274C42.5964 38.8182 44.737 38.0329 46.7994 37.1069C46.8222 37.097 46.8459 37.0891 46.8697 37.0822C48.4608 36.6167 50.038 36.0948 51.7291 36.1117C52.3311 36.1186 52.9321 36.0275 53.5351 35.9998C55.2797 35.9196 56.9906 36.0978 58.6678 36.6227C59.8767 37.001 60.9995 37.5437 62.0629 38.225C63.6669 39.2539 65.2392 40.3166 66.5184 41.7614C68.5838 44.0916 70.0115 46.7922 71.1273 49.6681C71.5442 50.7446 71.859 51.8606 72.2016 52.9638C72.4778 53.8502 72.7759 54.7335 72.9739 55.6377C73.065 56.0546 73.1442 56.4745 73.2175 56.8954C73.2798 56.8696 73.3422 56.8429 73.4046 56.8162C73.6323 56.7181 73.86 56.625 74.0878 56.5399Z" fill="white"/>
<path d="M61.6158 56.6085C61.1722 55.8737 60.694 55.1795 60.0425 54.6012C58.597 53.3187 57.1989 51.9749 55.5217 50.9895C54.8316 50.5845 54.091 50.2656 53.3692 49.917C52.0959 49.303 50.7365 48.9376 49.3721 48.6137C48.8513 48.49 48.2434 48.4236 47.7444 48.5692C45.0315 49.3624 42.4077 50.3755 40.1671 52.17C38.9819 53.1197 38.0354 54.2972 37.1176 55.4944C36.7106 56.0243 36.2215 56.4343 35.6532 56.7729C35.3671 56.9443 35.1146 57.173 34.7344 57.4612C35.2502 57.6692 35.5572 57.5315 35.8512 57.3572C36.8562 56.7611 37.7275 56.0243 38.3869 55.0389C39.7364 53.0236 41.6701 51.6748 43.6998 50.4419C45.478 50.0071 47.2493 49.5427 49.0385 49.1624C49.4513 49.0742 49.9563 49.1961 50.3642 49.3585C51.6672 49.8774 53.0296 50.2408 54.2613 50.9499C57.1989 52.6423 59.8287 54.719 61.5782 57.6405C62.8663 59.7904 64.0109 62.0226 64.5931 64.4905C64.7683 64.233 64.8941 63.8656 64.9703 63.4892C64.8119 62.8218 64.6228 62.1612 64.398 61.5096C64.0693 60.553 63.598 59.6706 63.0237 58.8358C62.5257 58.1128 62.0693 57.3602 61.6158 56.6085Z" fill="white"/>
<path d="M69.7371 56.3333C69.5629 55.6035 69.3223 54.8875 69.0837 54.1744C68.9322 53.7229 68.6648 53.303 68.5619 52.8435C68.3193 51.7601 67.9282 50.7341 67.4718 49.7299C65.6569 45.734 62.939 42.5888 58.9568 40.6062C57.6291 39.9456 56.2627 39.5396 54.7746 39.4901C52.6191 39.4178 50.5171 39.7109 48.4429 40.2724C45.7656 40.9963 43.2894 42.1708 41.0616 43.795C39.1755 45.1695 37.4002 46.6976 35.6022 48.189C34.5398 49.0704 33.4388 49.9309 32.51 50.944C30.8813 52.7197 29.3526 54.5884 27.8179 56.4492C26.4694 58.0832 25.308 59.844 24.5001 61.8167C24.403 62.0514 24.1535 62.2891 24.4615 62.5931C24.8545 62.5881 24.9466 62.2495 25.0971 61.9722C25.6733 60.9135 26.2189 59.8361 26.8357 58.8012C28.4179 56.1471 30.5199 53.917 32.6813 51.7383C34.9685 49.4328 37.4348 47.3284 39.9378 45.2666C40.4992 44.8041 41.0715 44.3317 41.7042 43.9831C43.8864 42.7848 46.0933 41.6262 48.4844 40.8854C49.1775 40.6695 49.8874 40.4566 50.6053 40.3784C52.4944 40.1734 54.3746 39.8436 56.2875 40.3655C59.0232 41.1112 61.3895 42.3788 63.2638 44.5684C65.0539 46.659 66.2064 49.1199 67.5203 51.4907C67.5688 51.5778 67.6104 51.6749 67.6272 51.7719C67.9044 53.3198 68.6074 54.7251 69.0936 56.2026C69.2223 56.5948 69.347 56.9869 69.4609 57.3801C69.6361 57.4306 69.8094 57.4662 69.9827 57.491C69.9084 57.1038 69.8282 56.7176 69.7371 56.3333Z" fill="white"/>
<path d="M52.4065 45.8655C53.1995 46.1843 54.0065 46.4715 54.7887 46.8152C56.5669 47.5945 58.1897 48.6265 59.6392 49.9238C60.8362 50.9963 62.0382 52.0638 63.2214 53.1512C63.7571 53.6434 64.2581 54.1752 64.767 54.6971C65.1897 55.1308 65.4175 55.6607 65.3967 56.2647C65.3739 56.9659 65.3383 57.67 65.2452 58.3642C65.1353 59.1842 65.1709 59.9695 65.4264 60.7528C65.6066 60.327 65.8422 59.9339 66.1105 59.5605C66.061 59.205 66.0214 58.8475 65.9818 58.491C65.9135 57.8691 65.9313 57.2362 65.9313 56.6084C65.9313 55.4596 65.5096 54.501 64.665 53.7295C64.0531 53.171 63.4283 52.6253 62.8115 52.0727C62.0264 51.3686 61.2343 50.6734 60.462 49.9555C58.4729 48.1065 56.3144 46.5369 53.6629 45.7694C53.1233 45.6129 52.5778 45.4792 51.9847 45.3218C51.9748 45.7328 52.2114 45.7872 52.4065 45.8655Z" fill="white"/>
<path d="M67.1908 53.8523C66.9898 53.2601 66.675 52.7075 66.4254 52.1311C66.1849 51.5765 65.7967 51.1566 65.272 50.8813C63.7383 50.0782 62.4086 49.0245 61.2947 47.7004C60.4888 46.7428 59.4739 46.0615 58.3996 45.4435C57.163 44.7315 55.7808 44.4284 54.4501 43.9779C54.1818 43.8877 53.8857 43.8788 53.6016 43.8323C53.6253 44.0492 53.6936 44.1848 53.7966 44.2215C54.1986 44.3661 54.6135 44.472 55.0194 44.6057C57.6462 45.4683 59.9155 46.8874 61.8066 48.9175C62.3521 49.5028 62.9521 50.0455 63.5739 50.5496C64.5353 51.329 65.4066 52.1885 66.1918 53.1442C66.8829 53.984 67.2066 54.9317 67.0868 56.0112C67.0027 56.7777 67.0581 57.5244 67.1859 58.2641C67.3859 58.0423 67.5878 57.8205 67.7849 57.5966C67.6938 57.0133 67.6413 56.4221 67.6492 55.8151C67.6581 55.1615 67.4057 54.489 67.1908 53.8523Z" fill="white"/>
<path d="M24.629 69.8014C24.3983 69.5489 24.225 69.6885 24.0755 69.8113C23.8834 69.9688 23.7131 70.154 23.5339 70.3273C22.9686 70.8769 22.3309 71.2948 21.5438 71.4572C21.3656 71.4949 21.1992 71.5919 20.9844 71.6781C21.227 72.1396 21.5844 72.1514 21.9161 72.0673C22.2478 71.9831 22.5804 71.8395 22.8666 71.6523C23.5983 71.173 24.2121 70.5719 24.629 69.8014Z" fill="white"/>
<path d="M59.0688 43.3312C57.9827 42.7479 56.8945 42.128 55.6282 42.0814C54.351 42.0359 53.0698 42.0636 51.7905 42.0943C51.1648 42.1101 50.54 42.2062 49.9153 42.2686C49.7915 42.2805 49.6529 42.2755 49.5499 42.331C49.4559 42.3815 49.3212 42.5449 49.342 42.5865C49.4004 42.6974 49.5202 42.8043 49.639 42.8469C49.7469 42.8865 49.8856 42.838 50.0103 42.8301C51.2885 42.7479 52.5658 42.6558 53.845 42.5875C54.8123 42.535 55.7539 42.7063 56.6381 43.0905C59.2401 44.2245 61.6451 45.6465 63.4738 47.8876C63.8699 48.3729 64.3382 48.7759 65.0065 48.9968C64.8095 48.668 64.6392 48.3174 64.4105 48.0124C62.957 46.0803 61.2094 44.48 59.0688 43.3312Z" fill="white"/>
<path d="M35.4283 59.4474C37.4392 58.5303 39.4808 57.6807 41.4986 56.7765C42.4581 56.3467 43.4105 55.8892 44.3284 55.3762C45.4927 54.7256 46.1581 54.685 47.1195 55.6248C48.6433 57.1152 50.3849 58.2768 52.1928 59.3711C54.3621 60.6833 56.4978 62.0489 58.6552 63.3799C59.1008 63.6542 59.577 63.878 60.077 64.1454C60.4246 63.7592 60.2721 63.4067 60.1691 63.0848C59.2206 60.105 57.8117 57.4212 55.2057 55.5347C54.3126 54.888 53.4077 54.2522 52.4651 53.6808C51.3572 53.0094 50.1146 52.8073 48.8354 52.9262C48.3948 52.9668 47.9017 53.0559 47.5472 53.2936C46.3531 54.0908 44.9769 54.4285 43.6779 54.9583C42.3987 55.4792 41.1016 55.9595 39.8462 56.5329C39.0966 56.8745 38.4254 57.3816 37.6966 57.7738C37.0352 58.1313 36.362 58.4828 35.661 58.7512C34.5481 59.177 33.6273 59.8485 32.8798 60.7566C31.4619 62.4787 30.0421 64.2009 28.6659 65.9567C27.8777 66.9609 27.1193 67.9987 26.453 69.0851C26.053 69.7367 25.8678 70.5181 25.5619 71.2301C25.3163 71.8035 25.0926 72.3987 24.7579 72.9186C24.05 74.0169 23.7262 75.2161 23.7579 76.4956C23.8143 78.7337 23.7391 80.9639 23.5619 83.1951C23.4341 84.7974 23.9737 86.2671 24.5955 87.707C24.9064 88.424 25.2757 89.1013 25.8163 89.6856C26.0856 89.9758 26.2797 90.3402 26.4827 90.6858C27.5005 92.4159 28.7065 94.0103 30.3857 95.1215C31.9718 96.1702 33.6392 97.115 35.3402 97.9686C35.761 98.1795 36.2026 98.3281 36.657 98.4321C36.6422 98.132 36.6639 97.8537 36.7125 97.5962C35.8679 97.4239 35.0382 97.1367 34.2313 96.8238C33.1342 96.399 32.3332 95.5265 31.4263 94.8194C30.754 94.2945 30.1411 93.6944 29.4857 93.1478C27.7391 91.689 26.4371 89.8807 25.3807 87.8902C24.5638 86.3512 24.1777 84.6726 24.2252 82.9436C24.2886 80.6371 24.4718 78.3327 24.6322 76.0302C24.6718 75.4568 24.7955 74.8874 24.9173 74.3239C25.3213 72.4611 26.3262 70.8954 27.4183 69.3832C28.4144 68.0027 29.4698 66.6648 30.4619 65.2823C31.0887 64.4079 31.6134 63.4611 32.2481 62.5936C32.8105 61.8271 33.4283 61.0923 34.0877 60.407C34.4639 60.0168 34.9352 59.6722 35.4283 59.4474ZM47.8601 53.7164C48.0462 53.6451 48.2452 53.5956 48.4433 53.5728C49.3512 53.4659 50.268 53.4728 51.1047 53.8561C52.1275 54.3235 53.1106 54.8781 54.1017 55.4119C55.0215 55.908 55.7483 56.6289 56.4047 57.4301C57.4978 58.766 58.2493 60.2941 58.9156 61.8697C59.0285 62.1361 59.0602 62.4371 59.1295 62.7223C59.083 62.7818 59.0374 62.8412 58.9909 62.9006C58.7453 62.8313 58.4572 62.8214 58.2612 62.6817C56.9117 61.7281 55.5819 60.7457 54.2443 59.7762C52.8859 58.7908 51.5532 57.745 49.9433 57.1984C48.7987 56.8092 48.0373 56.0169 47.4046 55.0652C46.9789 54.4235 47.1462 53.9898 47.8601 53.7164Z" fill="white"/>
<path d="M42.5502 98.5689C43.37 98.4976 44.1898 98.3184 44.9839 98.0985C46.97 97.5489 48.97 97.025 50.8225 96.0882C51.2809 95.8555 51.7503 95.6267 52.1879 95.3563C52.1621 95.2306 52.1285 95.1028 52.0889 94.9731C52.0552 94.8642 52.0245 94.7542 51.9958 94.6433C51.477 94.9394 50.9394 95.2098 50.4077 95.4801C47.6621 96.8784 44.7126 97.5855 41.6739 97.9619C40.2175 98.1421 38.7789 97.9807 37.3541 97.7192C37.3333 97.9926 37.3175 98.2718 37.3125 98.5521C37.9452 98.6412 38.5937 98.662 39.2363 98.66C40.3422 98.6571 41.4512 98.665 42.5502 98.5689Z" fill="white"/>
<path d="M20.9764 90.8958C21.3427 92.0029 21.9239 93.0715 22.5774 94.044C23.9427 96.0791 25.5695 97.8923 27.6705 99.2184C28.0309 99.4461 28.3933 99.6769 28.7735 99.87C30.1566 100.571 31.523 101.315 32.9438 101.934C34.1785 102.472 35.4666 102.763 36.7795 102.924C36.7805 102.669 36.7884 102.413 36.7973 102.157C36.6151 102.131 36.4339 102.101 36.2527 102.069C34.5121 101.764 32.8765 101.26 31.3428 100.568C31.3349 100.701 31.3279 100.834 31.32 100.966C31.1309 100.759 30.9824 100.554 30.8735 100.35C28.5824 99.2421 26.5229 97.7052 24.6833 95.7691C23.8437 94.8847 23.2259 93.8469 22.6853 92.7655C21.1892 89.7737 20.1318 86.6453 19.7635 83.302C19.6536 82.3028 19.4942 81.3095 19.3595 80.3133C19.1833 78.9981 19.2556 77.7058 19.71 76.4471C19.8348 76.1044 19.9278 75.7588 19.306 75.5627C19.206 75.8866 19.0952 76.1361 19.0536 76.3966C18.5961 79.2348 18.707 82.0681 19.3268 84.8618C19.7783 86.8959 20.3209 88.9181 20.9764 90.8958Z" fill="white"/>
<path d="M66.5945 76.8207C66.7232 78.3101 66.7242 79.8095 66.5509 81.3078C66.4648 82.0545 66.4291 82.8151 66.248 83.539C66.1103 84.0856 65.8083 84.6026 65.5182 85.0968C65.3677 85.3523 65.0826 85.5285 64.8588 85.7405C64.8172 85.7098 64.7757 85.6791 64.7351 85.6484C64.8529 85.0146 64.9628 84.3778 65.0905 83.746C65.5083 81.6851 65.4767 79.6045 65.4182 77.5179C65.3559 75.261 64.8519 73.0872 64.3202 70.9125C64.0697 69.8875 63.8261 68.8596 63.6311 67.8227C63.0945 64.9607 61.9539 62.2948 60.9925 59.5714C60.4509 58.0384 59.3509 56.8728 58.2558 55.729C56.6815 54.0851 54.8379 52.7799 52.8696 51.6558C52.4666 51.4261 51.9795 51.3082 51.5161 51.23C50.529 51.0636 49.5329 50.9339 48.5359 50.8349C47.7765 50.7586 47.0329 50.9022 46.327 51.2023C45.1002 51.7242 43.8735 52.2441 42.6517 52.7749C41.8814 53.1096 41.2091 53.5909 40.6467 54.2168C40.5259 54.3525 40.4438 54.5228 40.3438 54.6773C40.3794 54.7219 40.414 54.7674 40.4497 54.812C40.7774 54.6555 41.1121 54.5129 41.4309 54.3416C42.6042 53.7127 43.7804 53.0888 44.9408 52.4342C47.2626 51.124 49.6379 51.2171 52.0716 52.0817C54.53 52.9551 56.531 54.4614 58.2202 56.4153C58.6311 56.8906 59.0231 57.3828 59.4231 57.8661C59.9627 58.5167 60.3073 59.2624 60.539 60.0705C61.5915 63.7426 62.6826 67.4048 63.6955 71.0878C64.5064 74.035 64.9252 77.0534 64.7806 80.1105C64.7113 81.5811 64.3826 83.0419 64.1341 84.5006C63.9697 85.4652 63.7608 86.4228 63.5341 87.3745C63.2093 88.7352 62.3172 89.7839 61.5241 90.8792C61.5043 90.9059 61.4855 90.9327 61.4647 90.9594C61.5826 90.9535 61.6994 90.9495 61.8172 90.9505C62.0311 90.9515 62.2499 90.9644 62.4697 90.9782C63.0509 90.1206 63.5865 89.2313 64.0875 88.3212C64.6341 87.3289 65.2816 86.4178 65.8994 85.477C67.1133 83.6301 67.5767 81.5702 67.3608 79.3599C67.2163 79.139 67.0876 78.9152 67.0252 78.6736C66.8658 78.0596 66.7282 77.4406 66.5945 76.8207Z" fill="white"/>
<path d="M34.0414 98.9691C33.1542 98.6443 32.3077 98.261 31.5008 97.8203C31.4819 98.1531 31.4631 98.4729 31.4453 98.7829C32.5958 99.3454 33.8117 99.7851 35.078 100.133C35.6642 100.294 36.2513 100.455 36.8424 100.589C36.8424 100.368 36.8374 100.148 36.8256 99.9287C36.4612 99.8415 36.1018 99.7247 35.7483 99.5682C35.1988 99.3246 34.6077 99.176 34.0414 98.9691Z" fill="white"/>
<path d="M37.0446 105.3C37.0317 105.273 37.0198 105.244 37.006 105.215C36.9228 105.037 36.8713 104.842 36.8396 104.638C36.505 104.602 36.1703 104.558 35.8356 104.507C34.8158 104.35 33.7931 104.181 32.8633 103.717C32.3109 103.44 31.7594 103.161 31.2099 102.878C31.1633 103.132 31.1188 103.387 31.0742 103.641C31.1168 103.662 31.1594 103.684 31.2019 103.705C33.0742 104.629 35.0297 105.108 37.0446 105.3Z" fill="white"/>
<path d="M72.5496 36.4855C73.0298 36.9717 73.4348 37.4976 73.7764 38.0908C74.5793 39.4842 75.3962 40.8696 76.2427 42.2362C77.0021 43.4642 77.5655 44.7724 78.0219 46.1371C78.6645 48.0553 79.1051 50.025 79.5596 51.9908C79.9893 52.0037 80.4804 51.9205 80.9606 51.771C80.8883 51.4679 80.82 51.1639 80.7596 50.8589C80.3596 48.8416 79.8338 46.863 79.0249 44.9665C78.4833 43.696 77.9487 42.4264 77.8437 41.0211C77.7497 39.7575 77.1833 38.6761 76.4576 37.6649C76.0794 37.1381 75.6427 36.6321 75.3724 36.0517C74.917 35.0693 74.2516 34.2553 73.5348 33.4868C73.1229 33.5393 72.712 33.5769 72.3031 33.5997C72.4496 33.777 72.5981 33.9523 72.7516 34.1226C74.416 35.9646 75.7635 38.0116 76.8487 40.2398C77.0011 40.5537 77.1774 40.8627 76.9685 41.3865C76.7457 41.1944 76.5695 41.0954 76.4695 40.9459C76.1358 40.4487 75.7962 39.9506 75.518 39.4218C74.6625 37.7967 73.514 36.3775 72.3417 34.9881C71.9358 34.5068 71.5021 34.0543 71.0486 33.6205C70.5773 33.6096 70.107 33.5779 69.6367 33.5235C69.7951 33.6571 69.9526 33.7918 70.109 33.9285C70.9922 34.7009 71.7219 35.6457 72.5496 36.4855Z" fill="white"/>
<path d="M79.2395 42.3152C79.6652 43.5749 79.9672 44.8791 80.2632 46.1774C80.6731 47.9788 80.9791 49.8059 81.4543 51.5914C81.8345 51.435 82.19 51.2409 82.4811 51.026C82.3039 50.4971 82.2652 49.9663 82.3217 49.4028C82.5801 49.7811 82.7801 50.1862 82.9445 50.6051C82.9841 50.5585 83.0207 50.512 83.0524 50.4645C83.092 50.405 83.1583 50.3377 83.1554 50.2783C82.9732 47.3371 85.6682 45.301 85.6267 42.4023C85.6168 41.7249 85.7267 41.0387 85.6514 40.3712C85.5435 39.4136 85.8257 39.1204 86.7277 39.4789C87.196 39.6651 87.6217 39.9612 88.0653 40.2098C88.8564 40.6534 89.8812 40.5168 90.3287 39.8473C90.8564 39.058 90.2237 38.6104 89.7792 38.0737C89.4019 37.6181 89.2336 36.9784 88.8257 36.5654C88.1782 35.9078 87.4188 35.3572 86.6831 34.7918C86.491 34.6432 86.189 34.6442 85.9782 34.5105C84.69 33.6935 83.3682 33.2221 82.0227 32.9844C82.293 33.4945 82.5633 34.0035 82.8336 34.5135C82.1623 34.1738 82.1048 33.5083 81.8395 32.9537C81.4246 32.8874 81.0098 32.8418 80.591 32.8161C80.7573 33.0795 80.8375 33.3667 80.7652 33.6836C80.6959 33.9856 80.4108 34.0768 80.2028 33.847C80.0217 33.6479 79.89 33.3984 79.7573 33.1597C79.688 33.0349 79.6187 32.9112 79.5484 32.7864C79.1256 32.7874 78.7009 32.8042 78.2751 32.8349C78.383 33.027 78.484 33.2211 78.5741 33.4212C78.8969 34.1382 79.289 34.7977 79.7821 35.4087C80.9959 36.911 81.8118 38.6332 82.4613 40.4375C82.6187 40.8762 82.7157 41.3387 82.4454 41.7982C81.9088 40.5316 81.391 39.2571 80.8286 38.0024C80.587 37.4626 80.3028 36.9269 79.9494 36.4555C79.0999 35.3196 78.2157 34.2045 77.6741 32.8844C77.2751 32.923 76.8751 32.9716 76.4751 33.026C76.9216 33.74 77.3325 34.4788 77.7048 35.2443C78.1315 36.1227 78.6276 36.9714 79.1504 37.7964C79.8949 38.9719 80.5682 40.1692 80.8524 41.5507C80.8969 41.7705 80.9603 41.9953 81.0593 42.1953C81.6187 43.3243 81.6187 44.582 81.892 45.7763C81.9167 45.8862 81.8415 46.018 81.8128 46.1408C81.7573 46.1457 81.7009 46.1507 81.6444 46.1556C81.5613 45.8853 81.4524 45.6198 81.3969 45.3435C81.0415 43.5739 80.6821 41.8042 79.8167 40.1929C79.1563 38.964 78.482 37.7419 77.8008 36.5238C77.4008 35.8088 77.0127 35.0829 76.5503 34.4095C76.2602 33.9847 75.9652 33.5638 75.6622 33.1468C75.2592 33.2092 74.8543 33.2776 74.4503 33.3489C74.4473 33.3499 74.4444 33.3499 74.4414 33.3509C75.2365 34.3966 75.984 35.4771 76.6256 36.6387C77.6365 38.4698 78.5721 40.3355 79.2405 42.3152H79.2395ZM84.8059 35.6573C85.2673 36.7011 85.6286 37.7726 85.6376 38.9531C85.2534 37.8905 84.7306 36.8516 84.8059 35.6573ZM83.7702 37.3478C83.9049 37.8182 84.09 38.3103 83.8158 38.9887C83.4336 37.9043 83.2999 36.9427 83.2108 35.9593C83.7029 36.3119 83.6336 36.8714 83.7692 37.3478H83.7702ZM82.2197 37.323C81.5355 36.5565 81.293 35.584 80.7731 34.7749C80.6781 34.6274 80.689 34.4135 80.6464 34.2045C81.087 34.1669 81.2573 34.3857 81.388 34.6789C81.6642 35.2958 81.9563 35.9049 82.2276 36.5228C82.3306 36.7585 82.489 37.0101 82.2197 37.323Z" fill="white"/>
<path d="M70.4295 82.6954C70.7542 81.915 70.8414 81.1 70.882 80.276C70.582 79.4016 70.3285 78.5063 70.0008 77.6448C69.9829 78.2122 69.9552 78.7787 69.9186 79.3432C69.7542 81.8794 69.2037 84.3551 68.4898 86.7893C68.4552 86.9102 68.4166 87.031 68.375 87.1518C68.7067 86.9111 69.0433 86.6665 69.3869 86.416C69.3968 86.4269 69.4067 86.4378 69.4166 86.4487C69.6899 85.5148 69.975 84.5839 70.2423 83.6481C70.3315 83.3381 70.3077 82.9875 70.4295 82.6954Z" fill="white"/>
<path d="M73.6761 41.3488C74.9138 43.5067 75.7474 45.8181 76.5593 48.1394C77.0544 49.5555 77.3395 51.0449 77.7168 52.5027C77.9851 53.5385 78.2514 54.5744 78.5178 55.6103C78.5574 55.5221 78.5881 55.4251 78.6118 55.3201C78.792 54.511 78.9148 53.6891 79.0346 52.8691C79.0386 52.8443 79.0415 52.8186 79.0435 52.7938C79.0296 52.7433 79.0158 52.6938 79.0019 52.6433C78.6732 51.4638 78.3524 50.2794 77.9772 49.1138C77.695 48.2344 77.2999 47.3897 77.0118 46.5123C76.1663 43.9404 74.8761 41.5884 73.4474 39.3117C72.3593 37.5767 70.8682 36.1694 69.4721 34.6899C69.0256 34.2165 68.584 33.7362 68.1266 33.2738C67.5186 33.143 66.9097 32.9727 66.2969 32.7618C66.181 32.7222 66.0622 32.6855 65.9414 32.6528C66.7761 33.352 67.587 34.0819 68.382 34.8266C70.4415 36.7567 72.2583 38.876 73.6761 41.3488Z" fill="white"/>
<path d="M45.0436 71.0522C43.4624 71.0868 41.9545 71.4246 40.5564 72.1831C40.0485 72.4584 39.5574 72.7654 39.0475 73.0358C37.6881 73.7548 36.7594 74.9045 35.9623 76.1652C35.3831 77.0822 35.2188 78.1329 35.2188 79.2025C35.2188 82.2962 36.2118 85.0206 38.294 87.326C38.9326 88.0341 39.7069 88.4966 40.6624 88.6946C41.9307 88.9571 43.1901 89.1036 44.4674 88.8095C44.7228 88.7501 44.9713 88.66 45.3099 88.557C44.9614 88.243 44.6604 88.3203 44.3782 88.3371C43.3208 88.3965 42.2802 88.3292 41.2356 88.1212C39.7663 87.8281 38.6821 87.025 37.8396 85.8198C36.7247 84.2244 36.2742 82.4091 36.0296 80.5226C35.9128 79.6283 35.7683 78.736 35.9386 77.824C36.095 76.9861 36.3702 76.2315 37.0495 75.6671C37.898 74.961 38.7109 74.2073 39.5861 73.5369C41.1257 72.3574 42.9139 71.8078 44.8238 71.6078C45.208 71.5672 45.6109 71.5889 46.0416 71.3731C45.7218 71.0463 45.3812 71.0443 45.0436 71.0522Z" fill="white"/>
<path d="M49.5516 78.5931C49.0625 76.457 47.3595 75.229 45.2218 75.2726C44.6238 75.2845 44.0238 75.4004 43.4307 75.5043C42.7287 75.6261 42.1941 76.051 41.7337 76.564C40.9059 77.4869 40.2752 78.5436 39.7079 79.6409C39.5109 80.0202 39.4703 80.3935 39.6287 80.8005C39.7198 81.0323 39.7505 81.2868 39.8069 81.5314C40.0812 82.7089 40.6752 83.5784 41.9069 83.9606C43.0802 84.3241 44.2406 84.5716 45.4575 84.2409C47.3644 83.723 48.3516 81.8265 47.6565 79.9756C47.4723 79.4834 47.2486 78.9982 46.9753 78.5495C46.3624 77.5424 45.4278 77.0968 44.2584 77.1275C44.0802 77.1324 44.0812 77.1374 43.8169 77.4285C43.9396 77.7226 44.206 77.6573 44.4466 77.7058C44.9347 77.8038 45.4505 77.8801 45.8852 78.1019C46.7595 78.5505 47.1456 79.3705 47.2585 80.3143C47.3654 81.2165 47.1486 82.0632 46.7268 82.8594C46.407 83.4625 45.8832 83.7913 45.2198 83.8616C43.9109 84.0002 42.6614 83.7319 41.501 83.1377C40.6515 82.7019 40.0881 81.2076 40.2119 80.2648C40.4604 78.3723 41.596 77.1126 43.098 76.147C44.1802 75.4509 45.3743 75.5083 46.4525 76.1807C47.7189 76.97 48.5664 78.1604 49.2219 79.4824C49.3476 79.7359 49.4288 79.9984 49.4714 80.2638C49.5823 80.239 49.6941 80.2143 49.807 80.1905C49.7615 79.6557 49.6733 79.1239 49.5516 78.5931Z" fill="white"/>
<path d="M47.8506 70.3201C47.516 70.0706 47.1635 69.8467 46.7457 69.5605C46.5982 70.1498 46.9536 70.3063 47.1902 70.4835C48.0873 71.154 48.7893 71.9868 49.3922 72.9147C49.8021 73.0039 50.112 73.0712 50.3546 73.09C50.2972 73.0128 50.2408 72.9355 50.1843 72.8573C49.5091 71.9145 48.7863 71.0193 47.8506 70.3201Z" fill="white"/>
<path d="M45.7567 73.0568C43.9765 73.2143 42.2824 73.7223 40.7992 74.7176C39.2616 75.7505 38.215 77.233 37.5289 78.9472C37.3972 79.275 37.4012 79.688 37.4467 80.0484C37.523 80.6446 37.6764 81.2319 37.8091 81.8201C38.1843 83.4838 39.0368 84.8742 40.4477 85.8141C42.2973 87.046 44.2864 87.3986 46.3617 86.3072C47.2102 85.8606 48.0369 85.3872 48.6577 84.6277C48.9656 84.2523 49.2132 83.8532 49.3993 83.4284C49.3587 82.9501 49.3181 82.4569 49.2765 81.9538C48.5627 84.186 47.1419 85.718 44.7121 86.224C44.0052 86.3706 43.322 86.3062 42.6329 86.1062C40.4943 85.4843 38.9883 84.2216 38.4586 81.9875C38.3022 81.3299 38.1952 80.6535 38.1418 79.9801C38.0636 78.9928 38.3319 78.0767 38.9774 77.3142C39.5121 76.6834 40.0626 76.0575 40.6695 75.4989C42.3626 73.9382 44.42 73.5124 46.631 73.7986C47.827 73.9541 48.724 74.7285 49.4993 75.6089C50.5449 76.7963 51.2102 78.0926 51.4855 79.485C51.6785 79.2869 51.8241 79.0423 51.93 78.7422C51.7993 77.7133 51.3191 76.7982 50.6399 75.9901C50.2429 75.5178 49.8181 75.0751 49.3656 74.6641C48.4973 74.3502 47.7904 73.7936 47.1369 73.1559C46.6923 73.0271 46.225 73.0152 45.7567 73.0568Z" fill="white"/>
<path d="M44.9085 81.4777C44.3986 81.6589 43.8352 81.6926 43.2966 81.7946C43.0402 81.8431 42.7857 81.8966 42.5303 81.9481C42.5273 82.0362 42.5243 82.1234 42.5214 82.2115C42.7184 82.2749 42.9303 82.4185 43.1115 82.3868C43.7986 82.2709 44.5075 82.1768 45.1491 81.9243C45.9382 81.6143 46.0739 80.8518 45.4897 80.217C44.7828 79.4495 43.8649 79.0514 42.8263 78.9969C42.256 78.9672 41.9897 79.3574 42.0917 79.9605C42.1402 79.9635 42.2016 79.9863 42.2352 79.9645C43.3125 79.295 44.2115 79.807 45.0669 80.421C45.5927 80.7993 45.5323 81.2559 44.9085 81.4777Z" fill="white"/>
<path d="M53.2327 84.5747C53.0317 85.2055 52.7475 85.8126 52.3871 86.388C51.9782 87.0416 51.5317 87.6704 51.096 88.3062C50.9703 88.7637 50.8455 89.2272 50.7148 89.7045C51.1099 89.2856 51.496 88.8598 51.8535 88.4112C52.7218 87.3199 53.3317 86.1463 53.7337 84.9075C53.6327 84.75 53.4466 84.642 53.2327 84.5747Z" fill="white"/>
<path d="M55.9957 91.4189C55.1769 92.2865 54.2759 93.0668 53.3125 93.7798C53.3551 94.0007 53.3887 94.2205 53.4125 94.4384C54.4343 93.6174 55.4491 92.7816 56.4145 91.8973C56.2709 91.7398 56.1313 91.5804 55.9957 91.4189Z" fill="white"/>
<path d="M47.5847 94.4551C47.4065 94.5591 47.2441 94.6928 46.9609 94.8938C47.2035 94.9562 47.2966 95.0097 47.3778 94.9959C47.6253 94.9533 47.8798 94.9146 48.1105 94.8216C49.4233 94.2917 50.6382 93.6272 51.656 92.7201C51.6234 92.4527 51.5937 92.1853 51.563 91.9189C51.1115 92.3319 50.6035 92.6904 50.0629 93.0142C49.2431 93.5054 48.4085 93.9709 47.5847 94.4551Z" fill="white"/>
<path d="M53.0273 70.8557C53.2719 71.2608 53.4986 71.6856 53.7085 72.1302C54.4927 73.794 55.1491 75.5003 55.5868 77.2947C56.0888 79.3526 55.8967 81.3709 55.4541 83.4109C55.3026 84.1051 55.1076 84.7815 54.8818 85.446C55.0066 85.8471 55.161 86.2254 55.3412 86.5849C55.8165 85.3836 56.0769 84.121 56.269 82.8385C56.361 82.2196 56.4284 81.5838 56.3907 80.9629C56.2937 79.3338 56.2165 77.6958 55.9719 76.0856C55.7165 74.406 54.9798 72.875 54.0937 71.4271C53.9432 71.1805 53.7887 70.9369 53.6303 70.6973C53.4788 70.7943 53.3283 70.8646 53.1808 70.8577C53.1273 70.8547 53.0768 70.8537 53.0273 70.8557Z" fill="white"/>
<path d="M35.6292 64.4211C34.852 64.8787 34.0857 65.361 33.348 65.8799C30.7639 67.6961 28.9341 70.1729 27.3371 72.8428C26.4925 74.254 26.2321 75.8385 25.9777 77.4368C25.6697 79.3689 25.7856 81.2931 25.9103 83.2232C26.0539 85.4524 26.9638 87.3944 28.1955 89.2097C29.5203 91.1606 31.146 92.8352 33.0005 94.2761C33.5847 94.7297 34.2985 95.0228 34.9698 95.3546C35.351 95.5427 35.7718 95.6497 36.1649 95.8151C36.5302 95.9696 36.9005 96.0924 37.2748 96.1864C37.3649 96.0329 37.457 95.8884 37.5461 95.7507C37.5342 95.9072 37.5184 96.0706 37.5006 96.2409C38.2421 96.4043 39.0016 96.4568 39.7738 96.4172C41.0026 96.3528 42.2293 96.2468 43.4561 96.1389C43.7313 96.1141 43.9996 96.0032 44.3907 95.9002C43.9254 95.5299 43.5422 95.6467 43.1838 95.6586C42.0541 95.6952 40.9253 95.7487 39.7966 95.7923C37.2411 95.8884 35.0183 94.9971 33.0441 93.4453C32.2173 92.7946 31.453 92.0618 30.6787 91.3448C29.8609 90.5862 29.2025 89.7009 28.6866 88.7106C28.6282 88.5997 28.5698 88.4877 28.5015 88.3828C26.3183 85.0603 25.9717 81.3743 26.544 77.5824C26.9945 74.5887 28.1183 71.8237 30.047 69.4321C30.8163 68.4785 31.7668 67.7496 32.7886 67.098C34.0817 66.275 35.3738 65.4511 36.6639 64.6242C36.7659 64.5588 36.85 64.4647 37.052 64.2884C36.456 64.0993 36.0134 64.1954 35.6292 64.4211Z" fill="white"/>
<path d="M25.891 102.203C24.5019 101.341 23.092 100.506 22.0217 99.2398C21.1464 98.2059 20.3048 97.1433 19.4722 96.0738C19.283 95.8312 19.1048 95.5826 18.9375 95.3301C19.0127 95.8421 19.1098 96.3481 19.2395 96.8472C19.7771 97.5781 20.3623 98.2713 21.0187 98.912C22.0247 99.8954 23.0415 100.87 24.097 101.8C24.6583 102.295 25.289 102.723 25.9277 103.117C26.9306 103.734 27.9584 104.314 28.992 104.879C29.2326 105.01 29.4742 105.14 29.7178 105.266C29.7346 105.088 29.7455 104.915 29.7485 104.751C29.3901 104.556 29.0416 104.334 28.7039 104.081C27.8029 103.406 26.8495 102.797 25.891 102.203Z" fill="white"/>
<path d="M26.8242 107.941C26.8411 108.162 26.8599 108.382 26.8836 108.602C27.4114 108.811 27.9421 109.014 28.4757 109.207C28.5827 109.041 28.6846 108.857 28.7827 108.658C28.7708 108.654 28.7579 108.651 28.746 108.647C28.0856 108.456 27.446 108.22 26.8242 107.941Z" fill="white"/>
<path d="M26.7657 105.343C26.7647 105.612 26.7598 105.88 26.7578 106.15C27.3954 106.547 28.0519 106.913 28.737 107.198C28.9133 107.272 29.0905 107.344 29.2677 107.414C29.3311 107.215 29.3885 107.012 29.44 106.809C29.2568 106.724 29.0766 106.632 28.8994 106.529C28.1955 106.121 27.4568 105.769 26.7657 105.343Z" fill="white"/>
<path d="M20.7238 100.816C20.6377 101.052 20.5545 101.266 20.4961 101.47C20.8486 101.824 21.2149 102.163 21.6001 102.474C22.9248 103.543 24.3209 104.532 25.7348 105.484C25.8763 105.579 26.0179 105.674 26.1615 105.767C26.1991 105.533 26.2377 105.298 26.2773 105.065C26.2922 105.066 26.3051 105.067 26.3199 105.067C25.1961 104.371 24.0664 103.68 23.009 102.895C22.1723 102.272 21.4209 101.569 20.7238 100.816Z" fill="white"/>
<path d="M21.7206 107.284C21.4553 107.085 21.1959 106.881 20.9414 106.671C21.0384 107.385 21.2246 108.072 22.0493 108.268C22.6365 108.407 22.9959 108.657 23.2107 108.994C23.9424 109.37 24.6751 109.743 25.4167 110.097C25.4593 109.882 25.5009 109.667 25.5405 109.451C25.3959 109.377 25.2523 109.301 25.1098 109.224C23.9701 108.601 22.783 108.08 21.7196 107.284H21.7206Z" fill="white"/>
<path d="M21.4416 104.033C21.1297 103.728 20.8149 103.427 20.5 103.125C20.5386 103.503 20.5842 103.88 20.6327 104.258C21.4673 105.059 22.3357 105.827 23.198 106.598C23.9555 107.277 24.8396 107.764 25.7694 108.153C25.807 107.929 25.8446 107.705 25.8812 107.482C25.4406 107.248 25.009 106.992 24.5862 106.718C23.4178 105.959 22.4287 104.998 21.4416 104.033Z" fill="white"/>
<path d="M24.7191 111.329C24.7597 111.305 24.7983 111.276 24.836 111.243C24.3855 111.047 23.9399 110.84 23.5003 110.62C23.4874 111.582 23.8756 111.832 24.7191 111.329Z" fill="white"/>
<path d="M30.7643 105.226C30.7277 105.391 30.6871 105.555 30.6445 105.718C31.4554 106.091 32.2911 106.4 33.1653 106.582C34.1921 106.794 35.2327 106.939 36.2753 107.072C36.3881 107.006 36.5 106.939 36.6109 106.871C36.808 106.749 36.9535 106.618 37.0505 106.476C35.8881 106.37 34.7267 106.21 33.5654 105.997C32.6 105.82 31.6584 105.585 30.7643 105.226Z" fill="white"/>
<path d="M40.1894 100.919C42.5488 100.748 44.8983 100.468 47.1835 99.8388C48.6746 99.4288 50.1459 98.9436 51.6093 98.4405C51.8123 98.1067 51.9776 97.7601 52.0925 97.3997C51.137 97.8918 50.1301 98.3008 49.0845 98.6435C45.8597 99.7011 42.5251 100.129 39.1369 100.154C38.5537 100.159 37.9775 100.132 37.4102 100.044C37.4428 100.274 37.4824 100.503 37.524 100.732C38.3983 100.896 39.2834 100.986 40.1894 100.919Z" fill="white"/>
<path d="M47.7617 101.629C48.0479 101.856 48.232 102.004 48.3548 102.101C48.7182 101.715 49.0855 101.35 49.4439 100.99C49.4231 100.996 49.4013 101.004 49.3805 101.012C48.8409 101.211 48.3063 101.442 47.7617 101.629Z" fill="white"/>
<path d="M30.3156 109.455C30.4077 109.657 30.5067 109.812 30.6166 109.919C30.8008 109.975 30.9849 110.031 31.1691 110.084H31.1701C31.3206 110.055 31.4889 109.976 31.677 109.85C31.8097 109.761 31.9443 109.672 32.078 109.584C31.4374 109.41 30.7988 109.233 30.1602 109.052C30.2027 109.184 30.2542 109.318 30.3156 109.455Z" fill="white"/>
<path d="M30.1963 107.108C30.1319 107.317 30.0844 107.518 30.0547 107.713C31.1695 108.119 32.3062 108.457 33.4646 108.707C33.7914 108.505 34.1201 108.306 34.4488 108.108C34.4626 108.1 34.4755 108.092 34.4894 108.084C33.9626 107.98 33.4369 107.874 32.9112 107.764C31.9983 107.573 31.0755 107.409 30.1953 107.108H30.1963Z" fill="white"/>
<path d="M30.5257 103.338C30.6069 103.109 30.6881 102.88 30.7693 102.65C29.9039 102.203 29.0425 101.747 28.1831 101.286C27.1227 100.717 26.0277 100.184 25.1643 99.3158C24.1534 98.3017 23.1098 97.3124 22.1791 96.228C20.6504 94.4494 19.5692 92.3955 19.0306 90.1118C18.3454 87.2013 17.7672 84.2689 17.5959 81.2653C17.5494 80.4394 17.5038 79.6145 17.481 78.7905C17.4207 78.8628 17.3593 78.9341 17.2979 79.0054C16.9731 79.3817 16.7335 79.7987 16.582 80.2344C16.584 80.272 16.586 80.3087 16.589 80.3463C16.6573 81.3257 16.7632 82.3002 16.9078 83.2687C16.9078 83.2687 16.9081 83.2694 16.9088 83.2707C16.9296 83.3064 16.9513 83.339 16.9741 83.3737C17.289 83.857 17.6751 84.368 17.7632 84.9097C18.0603 86.7388 18.2345 88.5877 18.4622 90.4287C18.4781 90.5555 18.4929 90.6832 18.5068 90.811C18.7474 91.5933 19.0127 92.3687 19.2444 93.153C19.3009 93.3432 19.4048 93.5224 19.5038 93.6967C20.3514 95.1862 21.2751 96.63 22.4633 97.8669C23.1019 98.5314 23.8227 99.1425 24.589 99.6525C26.0712 100.641 27.6099 101.543 29.1297 102.475C29.3029 102.581 29.4752 102.69 29.6465 102.798C29.6633 102.673 29.6792 102.549 29.6851 102.428C29.795 102.437 29.9059 102.445 30.0158 102.454C30.0297 102.655 30.0445 102.855 30.0584 103.056C30.2138 103.152 30.3693 103.247 30.5257 103.338Z" fill="white"/>
<path d="M40.364 104.734C40.2877 104.979 40.2234 105.196 40.1719 105.391C42.1927 105.332 44.1521 104.951 46.1006 104.511C46.1987 104.238 46.3006 103.964 46.4056 103.691C46.2907 103.724 46.1759 103.755 46.061 103.787C44.1779 104.309 42.2788 104.639 40.364 104.734Z" fill="white"/>
<path d="M61.5425 80.8397C61.9722 78.3669 61.792 75.9337 61.1484 73.5322C60.9019 72.6142 60.5395 71.7219 60.1682 70.8435C59.7078 69.7552 59.1851 68.6945 58.6851 67.623C58.6355 67.5161 58.5573 67.422 58.4266 67.22C58.3425 67.4309 58.2454 67.5547 58.2593 67.6646C58.294 67.9369 58.3444 68.2172 58.4514 68.4677C58.9019 69.5313 59.4009 70.5741 59.8296 71.6457C60.089 72.2943 60.2663 72.9786 60.4573 73.653C60.9603 75.4267 61.2474 77.232 61.1742 79.0829C61.1692 79.2275 61.1514 79.3721 61.1405 79.5107C60.5148 79.5484 60.49 79.5484 60.393 79.0483C60.2108 78.1124 60.0811 77.1657 59.8781 76.2338C59.6544 75.2058 59.4326 74.171 59.0989 73.1767C58.8207 72.3488 58.4058 71.5635 58.0108 70.7791C57.1157 69.0005 55.9434 67.3962 54.785 65.786C53.6711 64.2401 52.3583 62.9071 50.6464 62.0159C49.5117 61.4256 48.3909 60.8047 47.2364 60.2571C45.182 59.2816 43.0908 59.3618 41.0185 60.2016C40.0423 60.5977 39.0809 61.0414 38.1433 61.5217C37.3334 61.9366 36.5383 62.1406 35.6116 61.9683C34.5195 61.7663 33.3759 62.8844 33.3868 64.048C33.6294 64.1658 33.7482 63.9985 33.866 63.8351C34.0422 63.5924 34.2046 63.3379 34.3937 63.1052C34.664 62.7734 35.0096 62.5883 35.4522 62.6665C36.5393 62.8586 37.4789 62.4833 38.375 61.9247C39.9017 60.974 41.6057 60.5413 43.3562 60.2967C45.1117 60.0501 46.7364 60.567 48.3018 61.3018C51.1256 62.6269 53.4078 64.6105 55.0761 67.2249C56.893 70.0711 58.4108 73.0806 59.2722 76.3714C59.4742 77.1429 59.5148 77.9569 59.6504 78.7482C59.7633 79.4147 59.8356 80.1 60.0504 80.7348C60.5158 82.1054 60.4247 83.4512 60.0395 84.805C59.5425 86.5509 58.589 88.0522 57.5524 89.5179C57.7296 89.6961 57.9098 89.8724 58.093 90.0467C58.7177 89.1524 59.2158 88.1631 59.7118 87.1847C60.7237 85.1862 61.1623 83.0244 61.5425 80.8397Z" fill="white"/>
<path d="M54.3876 99.1255C53.7529 99.382 53.1143 99.6286 52.4727 99.8702C52.3697 100.112 52.2598 100.352 52.1469 100.593C52.1509 100.587 52.1549 100.583 52.1559 100.58H52.1568C52.145 100.682 52.1301 100.786 52.1133 100.89C52.637 100.66 53.1588 100.423 53.6866 100.207C53.942 100.102 54.1836 99.9583 54.443 99.8672C55.3034 99.5652 56.1133 99.1879 56.8816 98.7482C56.949 98.3709 57.0123 97.9926 57.0717 97.6143C56.8866 97.746 56.6985 97.8727 56.5074 97.9935C55.8311 98.4204 55.1272 98.8274 54.3876 99.1255Z" fill="white"/>
<path d="M15.3917 70.6212C15.3561 69.5161 15.3115 68.4128 15.5581 67.3255C15.5858 67.2066 15.7056 67.1096 15.9036 66.8353C15.9887 67.2958 16.0689 67.5721 16.0878 67.8523C16.1858 69.3338 16.3244 70.8084 16.7056 72.2483C16.9412 73.1386 16.9521 74.0289 16.8145 74.938C16.7244 75.5332 16.6561 76.1294 16.6095 76.7275C16.8897 76.7741 17.1759 76.8315 17.4749 76.8929C17.4977 75.9699 17.565 75.0479 17.7046 74.126C17.763 73.7388 17.7125 73.3248 17.6551 72.9316C17.4026 71.1679 16.9571 69.4259 17.0115 67.6285C17.0581 66.1015 17.1185 64.5734 17.2452 63.0513C17.3907 61.3044 17.8739 59.6238 18.761 58.1175C19.3997 57.0322 19.9531 55.9141 20.5274 54.8C21.2165 53.4631 21.9759 52.1588 22.7779 50.8863C23.5354 49.683 24.4027 48.5501 25.1948 47.3687C26.5631 45.3276 28.0275 43.3708 29.78 41.6367C30.9938 40.4365 32.1919 39.2174 33.3414 37.9557C35.5048 35.5849 37.9692 33.636 40.9415 32.3823C41.486 32.1525 42.0306 31.9237 42.5751 31.697C42.3672 31.6187 42.1593 31.5405 41.9504 31.4642C40.8217 31.9752 39.6939 32.4872 38.5662 32.9982C37.2959 33.5726 36.1761 34.3787 35.1305 35.2958C34.3562 35.9741 33.584 36.6594 32.7731 37.2932C31.0998 38.6014 29.7067 40.1741 28.3671 41.8051C27.4443 42.9271 26.574 44.1086 25.5344 45.1127C24.3918 46.216 23.573 47.5123 22.77 48.8442C22.1106 49.9356 21.5393 51.1022 20.7383 52.0796C19.8185 53.2016 19.0472 54.3643 18.6214 55.7497C18.5997 55.822 18.5779 55.9012 18.5323 55.9567C18.4482 56.0547 18.3462 56.1379 18.1452 56.33C18.1709 56.0636 18.1412 55.92 18.1997 55.8378C18.7462 55.0575 18.8294 54.0652 19.4373 53.2917C19.8898 52.7154 20.0888 51.9479 20.4819 51.3171C21.6868 49.3859 22.9066 47.4637 24.168 45.5703C25.1789 44.0511 26.1948 42.528 27.3294 41.102C28.2314 39.9681 29.3522 39.0124 30.3097 37.9181C32.3849 35.5463 34.8939 33.7024 37.5216 32.0267C38.2563 31.5593 39.0028 31.1117 39.7583 30.676C39.4999 30.5868 39.2365 30.5017 38.9711 30.4313C38.7266 30.5749 38.482 30.7175 38.2375 30.8602C35.2503 32.5972 32.4503 34.5847 29.878 36.8971C28.3413 38.2786 27.0275 39.8572 25.7423 41.4624C25.1027 42.2626 24.5205 43.1093 23.8809 43.9095C23.5482 44.3264 23.3987 44.9028 22.7443 45.086C23.3007 44.1234 23.7997 43.1212 24.4274 42.2082C25.2621 40.993 26.1809 39.8334 27.0948 38.6757C27.9314 37.6171 28.779 36.5634 29.679 35.5602C30.4146 34.7402 31.2334 33.9955 32.0206 33.222C32.2889 32.9586 32.5513 32.6833 32.8523 32.4605C33.8404 31.7296 34.882 31.0651 35.8345 30.2917C36.0285 30.1343 36.2266 29.9837 36.4276 29.8421C36.2771 29.648 36.2058 29.3876 36.187 29.0726C35.0137 29.7302 33.8553 30.4115 32.8681 31.3325C31.0374 33.0418 29.0839 34.6273 27.5245 36.6198C26.77 37.5834 25.8601 38.4222 25.0502 39.3432C24.6175 39.8344 24.2463 40.379 23.8482 40.899C23.8037 40.8693 23.7601 40.8395 23.7165 40.8088C23.8799 40.5454 24.0393 40.279 24.2086 40.0186C24.9403 38.8906 25.5482 37.6527 26.4324 36.6594C28.6661 34.149 30.9226 31.6435 33.5691 29.545C34.4374 28.8567 35.3256 28.1992 36.2474 27.5901C36.283 27.2703 36.3384 26.9544 36.4285 26.6523C36.4424 26.6068 36.4553 26.5622 36.4672 26.5166C35.6048 26.9722 34.7612 27.4634 33.9434 27.9882C32.6998 28.7854 31.5503 29.7282 30.3572 30.6037C30.1473 30.7572 29.9265 30.8948 29.5701 31.1345C29.6701 30.8839 29.678 30.8017 29.7235 30.7591C30.6097 29.9501 31.4523 29.0835 32.3998 28.3537C33.8305 27.2514 35.284 26.1779 36.7553 25.1302C36.8087 24.742 36.8375 24.3548 36.8444 23.9695C36.4642 24.1785 36.087 24.3934 35.7117 24.6133C33.9483 25.6471 32.4008 26.9662 30.8414 28.2695C29.5136 29.3796 28.2097 30.5175 26.8898 31.6385C26.7007 31.799 26.4869 31.9297 26.2839 32.0743C26.5958 31.3008 26.9582 30.6294 27.5918 30.1303C29.1701 28.8904 30.68 27.5584 32.2988 26.376C33.776 25.2956 35.2939 24.2657 36.8355 23.2793C36.8206 22.9436 36.7899 22.6089 36.7444 22.2751C35.2048 23.1367 33.6483 23.9725 32.0632 24.84C31.983 24.5786 32.1919 24.4736 32.3642 24.332C33.5305 23.3773 34.6701 22.39 35.8622 21.471C36.0701 21.3106 36.287 21.161 36.5097 21.0194C36.4236 20.657 36.3226 20.2955 36.2078 19.935C35.3335 20.5153 34.4919 21.1472 33.6305 21.7473C33.1305 22.0949 32.6671 22.495 32.1869 22.8723C32.1424 22.8317 32.0978 22.7921 32.0533 22.7515C32.1691 22.5792 32.2622 22.3841 32.4047 22.2375C33.0503 21.571 33.681 20.8867 34.3681 20.2668C34.8632 19.8201 35.378 19.4072 35.9137 19.0239C35.782 18.4892 35.8186 17.9861 36.1771 17.5058C35.1315 18.0703 34.1572 18.7387 33.4483 19.7756C33.2097 20.1261 32.8869 20.242 32.3137 20.2559C33.6394 18.7159 35.0374 17.4305 36.6543 16.463C36.6949 16.0827 36.6107 15.6905 36.4365 15.2904C35.9454 14.1595 35.5335 12.983 34.9295 11.9164C34.6166 11.3648 33.9523 11.0172 33.4632 10.5607C33.1028 10.224 32.8038 9.81104 32.4097 9.52583C32.1909 9.36837 31.6503 9.26537 31.5671 9.37431C31.0572 10.0487 30.4384 10.6904 30.9711 11.7065C31.6018 12.9087 30.9711 14.009 29.5592 14.0654C27.7374 14.1397 25.9492 14.01 24.4344 12.6879C22.9007 11.349 21.3145 10.1141 21.2878 7.81754C21.264 5.75471 20.066 4.703 18.1492 4.30093C17.0531 5.4289 17.0848 5.71906 18.3284 6.64699C18.8214 7.01538 19.2888 7.43329 19.7017 7.88983C19.8512 8.05521 19.8927 8.42361 19.8224 8.64841C19.7739 8.79993 19.4234 8.97521 19.2403 8.9455C17.8878 8.72169 16.5194 8.53353 15.2026 8.16712C14.0412 7.84427 13.4907 6.94507 13.0709 5.76957C12.7828 4.96345 11.863 4.32173 11.1125 3.75824C10.3095 3.15613 9.36096 2.75208 8.49858 2.22424C7.67382 1.71918 7.33916 0.964565 7.5154 0H7.29659C6.68371 1.29038 5.39459 2.38468 6.0243 4.1712C6.92133 3.17693 8.40056 3.50472 8.99165 4.68022C9.37383 5.43979 9.41245 5.89633 8.44115 6.34791C7.58174 6.74701 6.9045 7.56996 6.19756 8.25822C5.70548 8.73655 5.39954 9.56247 4.83518 9.78331C2.86684 10.5528 1.82723 11.9521 1.42227 13.9515C1.28564 14.6269 0.869791 15.2994 0.922267 15.946C1.00742 16.9908 1.3292 18.0277 1.66287 19.0318C1.72326 19.2141 2.4401 19.4101 2.63713 19.2774C3.81338 18.4882 4.64507 18.9714 5.47578 19.838C6.054 20.4411 6.73123 20.9491 7.31639 21.5472C7.58471 21.8206 7.84906 22.183 7.92332 22.5445C8.556 25.6224 11.7412 26.6177 13.9808 25.7868C14.3986 25.6313 15.1135 25.6016 15.363 25.8482C15.6709 26.1512 15.6274 26.8058 15.7501 27.3039C15.8887 27.8635 15.868 28.63 16.2293 28.931C17.0294 29.5975 18.0244 30.0293 19.0383 30.6136C18.9284 32.4902 18.2957 33.0081 16.3026 32.8636C13.9085 32.6903 11.5065 32.6219 9.10848 32.515C8.37481 32.4833 8.02233 32.815 8.16788 33.5746C8.47877 35.1898 7.82827 36.5535 7.05599 37.8934C5.73716 40.18 5.6035 40.3731 3.80843 38.437C3.75893 38.3836 3.69853 38.2816 3.65695 38.2885C3.19556 38.3657 2.70644 38.3935 2.28862 38.5787C2.08069 38.6708 1.82426 39.1451 1.89851 39.2996C2.32822 40.2067 1.9104 40.8722 1.34009 41.4595C-0.151011 42.9974 -0.383686 44.6295 0.571768 46.5834C0.997515 47.4538 1.45495 48.053 2.33317 48.4778C4.1223 49.3434 5.95796 50.1792 7.5758 51.3111C9.03918 52.3361 10.5451 52.8471 12.258 52.7045C13.1323 52.6322 13.4036 53.1274 13.7244 53.7136C14.0353 54.284 14.2293 54.7515 13.6006 55.3298C12.861 56.0121 12.9362 57.3907 13.5976 58.0928C14.4184 58.9643 13.9877 61.4173 12.8343 61.6718C11.1372 62.0451 10.7243 63.2187 10.6451 64.614C10.5788 65.7865 10.3243 67.2522 10.8907 68.087C11.1511 68.4703 11.46 68.8199 11.8026 69.1536C11.8174 68.9545 11.8323 68.7565 11.8461 68.5584C11.9174 68.5574 11.9887 68.5555 12.06 68.5535C12.06 68.8218 12.059 69.0902 12.058 69.3576V69.3932C12.4382 69.7409 12.8531 70.0746 13.2818 70.4162C13.3214 69.007 13.7234 67.6632 14.0075 66.2946C14.0293 66.1876 14.2085 66.1133 14.3145 66.0232C14.3957 66.1559 14.5491 66.2906 14.5442 66.4193C14.5254 66.9185 14.4521 67.4156 14.4046 67.9137C14.3006 69.006 14.2343 70.0964 14.2442 71.1867C14.4214 71.3323 14.5976 71.4818 14.7739 71.6363C14.6472 71.9364 14.4877 72.3147 14.3125 72.7316C14.3551 73.2525 14.4184 73.7734 14.5075 74.2943C14.6244 74.9786 14.5937 75.6966 14.563 76.3968C14.561 76.4324 14.56 76.4671 14.559 76.5027C14.8313 76.5631 15.1561 76.5978 15.5313 76.6107C15.5224 76.269 15.5145 75.9273 15.5066 75.5857C15.4679 73.9309 15.4472 72.2751 15.3917 70.6212ZM36.2305 15.0409C36.2493 15.0785 36.2681 15.1161 36.287 15.1538C36.1563 15.2221 36.0256 15.2895 35.8949 15.3578C35.8751 15.3192 35.8553 15.2795 35.8365 15.2409C35.9681 15.1746 36.0988 15.1072 36.2305 15.0409ZM27.2611 28.6676C27.2918 28.7161 27.3235 28.7656 27.3542 28.8142C27.078 29.0211 26.8017 29.2281 26.4354 29.5034C26.5846 28.9726 26.8598 28.694 27.2611 28.6676ZM26.8948 33.7816C26.9314 33.8162 26.9681 33.8509 27.0057 33.8856C26.5483 34.3669 26.0898 34.8472 25.6324 35.3284C25.5987 35.2968 25.5651 35.2651 25.5314 35.2324C25.9859 34.7481 26.4403 34.2649 26.8958 33.7806L26.8948 33.7816ZM23.5086 41.201C23.5443 41.2238 23.5809 41.2466 23.6165 41.2693C23.5512 41.3793 23.4868 41.4892 23.4215 41.5981C23.3759 41.5694 23.3314 41.5397 23.2858 41.511C23.3601 41.407 23.4344 41.304 23.5086 41.2V41.201ZM20.8373 47.9629C20.8591 48.0035 20.8799 48.0451 20.9017 48.0857C20.7957 48.159 20.6898 48.2312 20.5838 48.3045C20.5611 48.2728 20.5383 48.2421 20.5165 48.2104C20.6234 48.1283 20.7314 48.0451 20.8383 47.9629H20.8373ZM19.4323 50.0752C19.4749 50.1049 19.5175 50.1346 19.5601 50.1633C19.4571 50.3159 19.3531 50.4684 19.2502 50.6199C19.2135 50.5882 19.1779 50.5575 19.1413 50.5258C19.2383 50.3753 19.3353 50.2247 19.4323 50.0742V50.0752ZM15.5897 63.5306C15.7264 61.2915 16.667 59.2871 17.4472 57.2372C17.4848 57.1381 17.6858 57.1025 17.9323 56.9727C17.8422 57.25 17.8016 57.3659 17.766 57.4837C17.4086 58.682 17.0294 59.8734 16.7026 61.0796C16.4878 61.8768 16.3531 62.6948 16.1749 63.5019C16.1066 63.8099 16.0689 64.1466 15.6175 64.2931C15.6056 64.0099 15.5749 63.7683 15.5897 63.5286V63.5306ZM13.0065 63.8534C13.0105 63.7118 13.0135 63.5702 13.0174 63.4276C13.0452 63.4276 13.0719 63.4276 13.0996 63.4276C13.1145 63.5653 13.1283 63.7039 13.1432 63.8416C13.0976 63.8455 13.0531 63.8495 13.0075 63.8525L13.0065 63.8534ZM14.6046 64.8715C14.5481 64.8576 14.4917 64.8447 14.4363 64.8309C14.36 63.3355 14.8273 60.7231 15.3184 59.8922C15.0808 61.549 14.8432 63.2107 14.6056 64.8715H14.6046Z" fill="white"/>
<path d="M56.0469 97.0143C56.3588 97.3075 56.6033 97.1005 56.7954 96.9351C56.938 96.8123 57.0815 96.6905 57.2261 96.5687C57.2736 96.233 57.3172 95.8963 57.3578 95.5605C57.1598 95.7408 56.9578 95.919 56.7538 96.0943C56.4617 96.3449 56.1221 96.5835 56.0469 97.0143Z" fill="white"/>
<path d="M63.7925 34.0552C64.4212 33.975 64.5133 33.6313 64.1678 33.1015C63.9945 32.8371 63.7856 32.6192 63.5539 32.437C63.3103 32.4489 63.0658 32.4697 62.8242 32.4974C62.8737 32.5261 62.9222 32.5568 62.9707 32.5875C63.3262 32.8133 63.6262 33.0599 63.546 33.563C63.2905 33.764 63.0034 33.769 62.7024 33.6769C61.9361 33.4422 61.1598 33.2342 60.3994 32.9837C60.0182 33.0599 59.638 33.1253 59.2578 33.1797C60.2222 33.462 61.1806 33.764 62.1559 34.0017C62.6767 34.1295 63.2559 34.1245 63.7925 34.0552Z" fill="white"/>
<path d="M40.9916 34.2069C38.8292 35.1477 36.8569 36.3865 35.0994 37.9562C32.8123 39.9982 30.639 42.1541 28.7964 44.616C27.2657 46.662 25.7221 48.7021 24.2766 50.8085C22.6587 53.1654 21.1231 55.5798 19.6013 58.0021C19.2329 58.5874 19.023 59.2846 18.8092 59.953C17.7052 63.4122 17.7359 66.9278 18.3983 70.4523C18.5587 71.305 18.8735 72.1428 19.2191 72.944C19.5122 73.6223 20.0399 74.169 20.7508 74.4354C21.1953 74.6008 21.3231 74.9087 21.3181 75.3019C21.3042 76.4051 21.3142 77.5123 21.2201 78.6105C21.027 80.8793 21.0934 83.1422 21.5181 85.3674C21.8429 87.0678 22.4201 88.7117 23.1241 90.3071C24.131 92.5898 25.733 94.4001 27.5192 96.0866C28.5558 97.066 29.6905 97.8602 30.9024 98.5059C31.0271 98.2653 31.1984 98.0207 31.4133 97.7711C29.4261 96.6709 27.6865 95.2191 26.1964 93.4276C25.33 92.3858 24.4766 91.3103 23.7973 90.1457C23.2478 89.2049 22.927 88.1205 22.5775 87.0757C21.8389 84.8713 21.7013 82.5916 21.9033 80.2941C22.0419 78.7115 22.0736 77.134 21.9439 75.5524C21.9003 75.0177 21.9102 74.4978 22.4924 74.0293C22.0864 73.966 21.8072 73.8877 21.528 73.8848C20.5072 73.8768 19.9577 73.2955 19.7062 72.3864C19.5468 71.8081 19.4924 71.201 19.3428 70.6187C18.6339 67.8696 18.7191 65.0908 19.0844 62.3169C19.2032 61.4098 19.5547 60.5254 19.8636 59.653C20.4468 58.0051 21.5052 56.6186 22.3963 55.1371C23.73 52.9169 25.4092 50.954 26.9231 48.8684C28.2489 47.0413 29.5509 45.1964 30.9014 43.3881C31.8301 42.1432 32.8143 40.94 33.7955 39.7358C34.0786 39.3882 34.4133 39.0703 34.7687 38.797C37.2886 36.8589 39.9213 35.111 42.9114 33.9632C43.6629 33.6751 44.3985 33.3483 45.1362 33.0254C45.2777 32.963 45.4233 32.9036 45.5659 32.8382C45.255 32.7184 44.9441 32.5986 44.6332 32.4788C44.3975 32.5946 44.1639 32.7145 43.9302 32.8363C42.9738 33.3374 41.9827 33.7751 40.9916 34.2069Z" fill="white"/>
<path d="M62.7272 85.2661C63.0668 84.0451 63.2331 82.7507 63.2965 81.4812C63.3945 79.4807 63.3708 77.4724 63.342 75.468C63.3064 72.9892 62.6589 70.6461 61.5866 68.4239C61.048 67.3068 60.2984 66.3195 59.3856 65.4807C59.1083 65.2271 58.6885 65.0033 58.3271 64.9915C57.2836 64.9548 56.541 64.4517 55.8568 63.7328C54.6083 62.4216 53.2281 61.252 51.7528 60.2023C49.934 58.908 47.9459 57.9691 45.7528 57.5007C45.4359 57.4334 45.1052 57.3789 44.7844 57.3908C42.4983 57.477 40.2992 57.9038 38.319 59.1328C37.8071 59.4506 37.2923 59.7636 36.7863 60.0914C36.6517 60.1785 36.5448 60.3112 36.4141 60.433C36.6972 60.748 36.9656 60.6202 37.2052 60.5024C37.723 60.2478 38.2349 59.9795 38.7378 59.6962C40.7794 58.5435 42.9725 58.0305 45.3102 58.1306C46.5468 58.184 47.6458 58.6792 48.733 59.2159C51.2964 60.4826 53.6598 62.0245 55.5964 64.1606C55.7142 64.2903 55.8558 64.4091 55.94 64.5587C56.3548 65.2965 56.8796 65.7025 57.8172 65.5658C58.1964 65.5104 58.6598 65.8273 59.039 66.0511C59.3113 66.2115 59.5489 66.471 59.7311 66.7354C61.1648 68.8032 62.3084 70.9937 62.54 73.5587C62.6381 74.6351 62.841 75.7116 62.8292 76.7861C62.8103 78.4874 62.6618 80.1888 62.546 81.8882C62.5044 82.5131 62.4034 83.133 62.3242 83.7549C62.0836 85.6395 61.3757 87.3626 60.3281 88.9184C59.8866 89.574 59.4331 90.2217 58.9658 90.8614C59.1469 91.0169 59.4717 91.0367 59.7856 91.0387C59.8212 90.9921 59.8559 90.9446 59.8895 90.8981C61.1351 89.1769 62.1569 87.3141 62.7272 85.2661Z" fill="white"/>
<path d="M51.9549 102.12C51.95 102.255 51.9549 102.388 51.9728 102.52C51.9866 102.629 52.0153 102.742 52.0549 102.854C53.2351 102.458 54.4015 102.017 55.55 101.538C55.7183 101.467 55.8837 101.395 56.048 101.319C56.2332 101.014 56.3896 100.69 56.5144 100.346C55.4421 100.958 54.3114 101.466 53.0926 101.818C52.7163 101.927 52.3351 102.023 51.9549 102.12Z" fill="white"/>
<path d="M93.7967 117.952C92.8858 114.289 92.4561 110.59 92.9917 106.81C93.1056 106.003 92.8709 105.15 92.8244 104.316C92.5957 100.139 92.4155 95.9575 91.3263 91.8814C91.1798 91.3328 91.3828 90.6901 91.2323 90.1444C90.9085 88.9689 90.6768 87.6825 90.0184 86.7031C88.2372 84.055 87.9273 81.0939 87.8075 78.0685C87.7788 77.3426 88.0699 76.6088 88.1501 75.872C88.2026 75.3808 88.2758 74.8252 88.1095 74.3875C87.157 71.884 86.5421 69.3201 86.4174 66.6393C86.3837 65.9154 86.06 65.5123 85.2104 65.6658C84.8184 65.7371 84.3778 65.5391 83.6956 65.4153C83.4144 65.6589 82.8104 66.0402 82.4015 66.571C81.957 67.1493 81.556 67.2434 81.1579 67.0651C81.1233 67.1672 81.0589 67.2652 80.948 67.3563C80.8827 67.2355 80.8094 67.0325 80.7342 66.7829C80.6619 66.7215 80.5896 66.6532 80.5163 66.5799C80.2134 66.2759 79.9352 65.9471 79.352 65.644C79.352 66.463 79.3312 67.283 79.3579 68.102C79.3827 68.8556 79.6431 69.6588 79.4559 70.3461C79.2876 70.962 78.7609 71.6453 78.2015 71.9593C77.5955 72.2999 77.0846 72.7565 76.6935 73.2853C76.8084 73.7428 76.8975 74.2063 76.846 74.6915C76.7638 74.6193 76.7153 74.539 76.6886 74.4529C76.6074 74.1885 76.5262 73.9231 76.444 73.6587C75.7965 74.7371 75.6123 76.0483 76.0599 77.2872C76.9401 79.7233 76.6242 80.5423 74.3054 81.8396C72.5044 82.8478 71.8846 82.7804 71.2014 81.1395C71.139 81.5109 71.0767 81.8822 71.0163 82.2536C70.9489 82.6715 70.9232 83.0983 70.8252 83.5083C70.6351 84.3095 70.4341 85.1106 70.1875 85.896C70.0806 86.2386 69.9578 86.5763 69.8281 86.912C72.4242 89.8434 74.7341 92.8351 75.542 96.7498C75.7104 97.5628 75.9519 98.3719 76.2589 99.1434C77.451 102.138 78.7837 105.095 78.3916 108.452C78.3836 108.518 78.4292 108.589 78.4539 108.673C78.7223 108.625 78.9916 108.575 79.2985 108.52C79.35 108.712 79.4233 108.85 79.4124 108.982C79.3985 109.155 79.3183 109.323 79.2648 109.498C78.0094 108.899 77.4341 108.95 77.3926 109.784C77.3124 111.405 77.4203 113.043 77.5737 114.664C77.6262 115.209 78.0718 115.416 78.7282 115.097C79.8252 114.565 80.0312 113.655 80.1441 112.595C80.2084 111.982 80.4569 111.389 80.6233 110.786C80.8272 110.838 81.0302 110.891 81.2342 110.944C80.8975 112.281 80.854 113.81 80.1411 114.902C79.4233 116.003 79.7025 116.683 80.2688 117.477C81.0451 118.563 81.3391 119.732 81.3332 121.061C81.3302 121.703 81.5896 122.406 81.9114 122.979C83.4738 125.761 85.0966 128.509 86.6986 131.27H87.355C86.9956 130.244 86.4362 129.242 86.3164 128.189C85.9728 125.145 84.5797 122.281 84.8481 119.135C85.0025 117.32 86.261 116.437 87.6035 115.59C87.7184 115.517 87.8818 115.496 88.0224 115.496C88.7798 115.496 91.2551 117.259 91.561 117.984C91.8541 118.679 92.1709 119.364 92.4679 120.032C94.168 119.58 94.1788 119.489 93.7967 117.952ZM71.0291 88.0172C70.9796 87.9816 70.9301 87.9459 70.8816 87.9113C71.0172 87.6914 71.1539 87.4715 71.2895 87.2517C71.347 87.2903 71.4034 87.3289 71.4608 87.3676C71.3172 87.5844 71.1727 87.8013 71.0291 88.0182V88.0172ZM72.3331 85.1433C72.2905 85.1384 72.2489 85.1334 72.2074 85.1285C72.2282 85.0195 72.2489 84.9116 72.2697 84.8027C72.2935 84.8066 72.3173 84.8106 72.342 84.8145L72.3341 85.1433H72.3331Z" fill="white"/>
<path d="M40.1094 106.628C40.243 106.945 40.5619 107.169 41.1183 107.451C41.1183 107.451 41.119 107.451 41.1203 107.451C41.1203 107.451 41.1213 107.452 41.1223 107.451H41.1232C42.4143 107.435 43.7045 107.331 44.9916 107.202C45.1956 106.948 45.3678 106.644 45.5045 106.294C43.7054 106.535 41.9074 106.647 40.1094 106.628Z" fill="white"/>
<path d="M46.891 102.439C46.9712 102.235 47.0504 102.029 47.1286 101.823C47.0296 101.849 46.9296 101.873 46.8286 101.894C45.7019 102.128 44.5425 102.244 43.392 102.314C41.5256 102.427 39.6543 102.467 37.7969 102.281C37.8355 102.536 37.8731 102.79 37.9404 103.037C38.385 103.068 38.8305 103.089 39.2781 103.104C41.8553 103.189 44.391 102.935 46.891 102.439Z" fill="white"/>
<path d="M78.0784 56.1021C77.9338 55.1484 77.7219 54.2096 77.3863 53.2926C76.8536 51.8408 76.3615 50.3711 75.9219 48.8886C75.4565 47.316 74.8516 45.8028 74.0595 44.3778C73.2813 42.9755 72.3902 41.6356 71.5605 40.261C70.6555 38.7587 69.4872 37.4802 68.1773 36.3354C67.6129 35.8432 66.9693 35.4392 66.3446 35.0223C66.1367 34.8826 65.8812 34.7004 65.5703 34.9856C65.6416 35.0965 65.6862 35.2164 65.7713 35.2867C66.1951 35.6402 66.6535 35.9551 67.0584 36.3285C70.0971 39.1271 72.4733 42.4041 73.9753 46.2613C74.8051 48.3915 75.4912 50.5771 76.2249 52.7429C76.3457 53.0975 76.3734 53.4807 76.4595 53.8471C76.6338 54.5889 76.7348 55.3465 76.8447 56.1021C77.0001 56.1189 77.1576 56.1427 77.316 56.1764C77.615 56.2397 77.8714 56.211 78.0784 56.1021Z" fill="white"/>
<path d="M68.0824 84.9371C68.4408 83.818 68.7566 82.6801 69.0091 81.5334C69.3893 79.8043 69.2883 78.0435 69.1784 76.2956C69.1765 76.2689 69.1755 76.2431 69.1735 76.2164C68.9586 75.9757 68.722 75.7371 68.5071 75.4736C68.3794 75.5984 68.2705 75.7242 68.1784 75.849C68.1933 76.0757 68.2141 76.3025 68.2507 76.5253C68.4933 77.9999 68.5259 79.4557 68.1913 80.9332C67.8032 82.6455 67.5863 84.3914 66.8646 86.0225C66.0843 87.7892 65.1596 89.4588 63.9883 90.976C64.713 90.8562 65.3101 90.4492 65.5754 89.2816C65.6022 89.1608 65.7586 89.0568 65.8754 88.9716C66.0586 88.8369 66.2418 88.7032 66.4259 88.5685C66.6537 88.1764 66.8754 87.7793 67.0913 87.3792C67.5071 86.6097 67.8151 85.7719 68.0824 84.9371Z" fill="white"/>
</svg>
