<svg width="957" height="1331" viewBox="0 0 957 1331" fill="none" xmlns="http://www.w3.org/2000/svg">
<path d="M923.522 -469.547C930.157 -457.001 935.023 -448.273 939.668 -439.273C1207.18 80.9846 1474.58 601.242 1741.98 1121.36C1865.95 1362.6 1990.03 1603.71 2114.22 1844.81C2206.67 2024.42 2270.81 2218.2 2305.75 2426.58C2319.58 2508.67 2327.76 2591.72 2332.29 2675.59C2336.72 2759.59 2335.61 2843.19 2329.75 2926.79C2314.93 3139.66 2270.59 3342.86 2194.61 3535C2086.46 3808.56 1932.63 4034.94 1729.81 4209.5C1571.56 4345.73 1397.17 4435.87 1208.06 4483.74C1087.97 4514.01 966.761 4524.92 844.784 4516.47C421.676 4486.88 31.8559 4235.13 -224.043 3793.43C-337.616 3597.32 -415.249 3381.31 -456.83 3145.94C-481.491 3006.02 -491.112 2864.6 -487.131 2721.68C-478.947 2423.3 -413.258 2145.65 -289.732 1889.14C-253.017 1812.9 -213.206 1738.99 -174.721 1663.99C-9.72491 1342.97 155.271 1021.81 320.378 700.793C516.781 318.953 713.185 -62.8874 909.698 -444.728C913.458 -451.955 917.55 -458.91 923.522 -469.547Z" fill="url(#paint0_linear_175_889)" fill-opacity="0.22"/>
<defs>
<linearGradient id="paint0_linear_175_889" x1="923.5" y1="-469.547" x2="923.5" y2="4519.24" gradientUnits="userSpaceOnUse">
<stop offset="0.11014" stop-color="#9B000B"/>
<stop offset="1" stop-color="#A2020E"/>
</linearGradient>
</defs>
</svg>
