<svg width="974" height="1268" viewBox="0 0 974 1268" fill="none" xmlns="http://www.w3.org/2000/svg">
<path d="M940.522 -447.322C947.157 -435.37 952.023 -427.055 956.668 -418.481C1224.18 77.1514 1491.58 572.784 1758.98 1068.29C1882.95 1298.11 2007.03 1527.8 2131.22 1757.49C2223.67 1928.59 2287.81 2113.21 2322.75 2311.72C2336.58 2389.93 2344.76 2469.05 2349.29 2548.95C2353.72 2628.98 2352.61 2708.61 2346.75 2788.25C2331.93 2991.05 2287.59 3184.63 2211.61 3367.68C2103.46 3628.29 1949.63 3843.96 1746.81 4010.25C1588.56 4140.04 1414.17 4225.91 1225.06 4271.51C1104.97 4300.35 983.761 4310.75 861.784 4302.69C438.676 4274.5 48.8559 4034.67 -207.043 3613.87C-320.616 3427.05 -398.249 3221.27 -439.83 2997.03C-464.491 2863.73 -474.112 2729.01 -470.131 2592.86C-461.947 2308.6 -396.258 2044.09 -272.732 1799.72C-236.017 1727.09 -196.206 1656.68 -157.721 1585.22C7.27509 1279.4 172.271 973.447 337.378 667.623C533.781 303.856 730.185 -59.9107 926.698 -423.677C930.458 -430.563 934.55 -437.189 940.522 -447.322Z" fill="url(#paint0_linear_177_1057)" fill-opacity="0.22"/>
<defs>
<linearGradient id="paint0_linear_177_1057" x1="940.5" y1="-447.322" x2="940.5" y2="4305.33" gradientUnits="userSpaceOnUse">
<stop offset="0.11014" stop-color="#9B000B"/>
<stop offset="1" stop-color="#A2020E"/>
</linearGradient>
</defs>
</svg>
